<svg width="10" height="10" viewBox="0 0 10 10" fill="none" xmlns="http://www.w3.org/2000/svg">
<path fill-rule="evenodd" clip-rule="evenodd" d="M5.49995 10H4.49995C2.29081 10 0.499954 8.20915 0.499954 6.00001V3.36001C0.497287 2.46807 0.85043 1.61189 1.48113 0.981192C2.11183 0.350491 2.96801 -0.00265152 3.85995 1.49917e-05H6.13995C7.0319 -0.00265152 7.88808 0.350491 8.51878 0.981192C9.14948 1.61189 9.50262 2.46807 9.49996 3.36001V6.00001C9.49996 8.20915 7.70909 10 5.49995 10ZM3.85995 1.50002C2.8327 1.50002 1.99995 2.33277 1.99995 3.36001V6.00001C1.99995 7.38073 3.11924 8.50001 4.49995 8.50001H5.49995C6.88067 8.50001 7.99995 7.38073 7.99995 6.00001V3.36001C7.99995 2.86671 7.80399 2.39361 7.45517 2.0448C7.10636 1.69598 6.63326 1.50002 6.13995 1.50002H3.85995Z" fill="black"/>
</svg>
