<svg width="16" height="8" viewBox="0 0 16 8" fill="none" xmlns="http://www.w3.org/2000/svg">
<path fill-rule="evenodd" clip-rule="evenodd" d="M15.58 2.71L15.82 3.85C16.0474 4.83559 15.8228 5.87126 15.2076 6.67414C14.5924 7.47702 13.6508 7.96324 12.64 8H3.35997C2.34915 7.96324 1.40754 7.47702 0.792319 6.67414C0.177098 5.87126 -0.0474614 4.83559 0.179972 3.85L0.419972 2.71C0.696007 1.16677 2.02259 0.0326886 3.58997 0H12.41C13.9774 0.0326886 15.3039 1.16677 15.58 2.71ZM12.64 6.49C13.1478 6.48411 13.6256 6.24885 13.94 5.85V5.86C14.3257 5.37618 14.4759 4.74578 14.35 4.14L14.11 3C13.9768 2.15517 13.2646 1.52257 12.41 1.49H3.58998C2.73534 1.52257 2.02314 2.15517 1.88998 3L1.64998 4.14C1.52713 4.74258 1.67724 5.36864 2.05998 5.85C2.37431 6.24885 2.85219 6.48411 3.35998 6.49H12.64Z" fill="black"/>
</svg>
