<svg width="21" height="20" viewBox="0 0 21 20" fill="none" xmlns="http://www.w3.org/2000/svg">
<path d="M18.2889 0H3.67917C2.19077 0 0.984131 1.20659 0.984131 2.69504V17.3049C0.984131 18.7933 2.19072 19.9999 3.67917 19.9999H10.8846L10.8969 12.853H9.04014C8.79884 12.853 8.60299 12.6579 8.60206 12.4166L8.59316 10.1129C8.59223 9.87025 8.78866 9.67308 9.03128 9.67308H10.8847V7.44709C10.8847 4.86384 12.4624 3.45724 14.7668 3.45724H16.6577C16.8997 3.45724 17.0959 3.65339 17.0959 3.89537V5.83789C17.0959 6.07978 16.8998 6.27587 16.658 6.27602L15.4975 6.27655C14.2443 6.27655 14.0016 6.87207 14.0016 7.74602V9.67313H16.7554C17.0178 9.67313 17.2213 9.90225 17.1904 10.1628L16.9174 12.4666C16.8912 12.687 16.7043 12.8531 16.4823 12.8531H14.0139L14.0016 20H18.289C19.7774 20 20.984 18.7934 20.984 17.305V2.69504C20.9839 1.20659 19.7773 0 18.2889 0Z" fill="black" fill-opacity="0.5"/>
</svg>
