<svg width="20" height="20" viewBox="0 0 20 20" fill="none" xmlns="http://www.w3.org/2000/svg">
<path d="M9.99234 0.00963964C5.89959 0.00963964 2.01312 -0.354435 0.528643 3.45539C-0.0845355 5.02891 0.00451083 7.07247 0.00451083 9.99859C0.00451083 12.5663 -0.0777724 14.9795 0.528643 16.5407C2.00974 20.3527 5.92777 19.9875 9.99008 19.9875C13.9092 19.9875 17.9501 20.3956 19.4526 16.5407C20.067 14.9514 19.9768 12.9382 19.9768 9.99859C19.9768 6.09634 20.1921 3.57712 18.2996 1.68574C16.3834 -0.230447 13.792 0.00963964 9.98783 0.00963964H9.99234ZM9.09737 1.80973C17.6345 1.7962 18.7211 0.847126 18.1215 14.0316C17.9084 18.6947 14.3579 18.1829 9.99346 18.1829C2.03566 18.1829 1.80685 17.9553 1.80685 9.99408C1.80685 1.94048 2.43806 1.81423 9.09737 1.80747V1.80973ZM15.3238 3.46779C14.6622 3.46779 14.1257 4.00432 14.1257 4.66597C14.1257 5.32761 14.6622 5.86414 15.3238 5.86414C15.9855 5.86414 16.522 5.32761 16.522 4.66597C16.522 4.00432 15.9855 3.46779 15.3238 3.46779ZM9.99234 4.86886C7.15977 4.86886 4.86373 7.16602 4.86373 9.99859C4.86373 12.8312 7.15977 15.1272 9.99234 15.1272C12.8249 15.1272 15.1198 12.8312 15.1198 9.99859C15.1198 7.16602 12.8249 4.86886 9.99234 4.86886ZM9.99234 6.66894C14.3939 6.66894 14.3996 13.3282 9.99234 13.3282C5.59188 13.3282 5.58511 6.66894 9.99234 6.66894Z" fill="black" fill-opacity="0.5"/>
</svg>
