<?xml version="1.0" standalone="no"?>
<!DOCTYPE svg PUBLIC "-//W3C//DTD SVG 1.1//EN" "http://www.w3.org/Graphics/SVG/1.1/DTD/svg11.dtd" >
<svg>
<metadata>
Created by FontForge 20090914 at Sat Nov 13 19:32:27 2021
 By www-data
Copyright &#239;&#190;&#169; 2004, Joshua Darden &#38; Phil's Fonts, Inc. All rights reserved. Published by Garagefonts USA 301-260-2285 www.garagefonts.com
</metadata>
<defs>
<font id="FreightSansLight" horiz-adv-x="400" >
  <font-face 
    font-family="FreightSans Light"
    font-weight="400"
    font-stretch="normal"
    units-per-em="1000"
    panose-1="2 0 6 6 3 0 0 2 0 4"
    ascent="800"
    descent="-200"
    x-height="458"
    cap-height="625"
    bbox="-75 -257.999 1100 859"
    underline-thickness="20"
    underline-position="-113"
    unicode-range="U+0020-U+FB04"
  />
<missing-glyph horiz-adv-x="500" 
 />
    <glyph glyph-name=".notdef" horiz-adv-x="500" 
 />
    <glyph glyph-name="space" unicode=" " horiz-adv-x="124" 
 />
    <glyph glyph-name="exclam" unicode="!" horiz-adv-x="245" 
d="M98 647h50l-13 -470h-23zM158 28c0 -10 -3.33301 -18.833 -10 -26.5s-15.334 -11.5 -26.001 -11.5s-19.167 3.83301 -25.5 11.5s-9.5 16.5 -9.5 26.5c0 9.33301 3.16699 17.666 9.5 24.999s14.833 11 25.5 11s19.334 -3.66699 26.001 -11s10 -15.666 10 -24.999z" />
    <glyph glyph-name="quotedbl" unicode="&#x22;" horiz-adv-x="302" 
d="M146 398l139 250l44 -22l-150 -228h-33zM-1 398l139 250l44 -22l-150 -228h-33z" />
    <glyph glyph-name="numbersign" unicode="#" horiz-adv-x="566" 
d="M41 376v34h136l62 232h36l-62 -232h183l62 232h36l-62 -232h92v-34h-102l-45 -170h127v-34h-137l-65 -246h-36l66 246h-184l-66 -246h-35l66 246h-92v34h101l46 170h-127zM203 376l-46 -170h184l46 170h-184z" />
    <glyph glyph-name="dollar" unicode="$" horiz-adv-x="476" 
d="M221 27h10.001c24 0 45.833 3.5 65.5 10.5s36.5 16.5 50.5 28.5s24.833 25.833 32.5 41.5s11.5 32.167 11.5 49.5c0 18.667 -3.33301 35 -10 49s-15.834 26.333 -27.501 37s-25.667 20.167 -42 28.5s-34.5 15.833 -54.5 22.5zM283.001 730l37.001 -0.00292969l-14 -102
c22 -4 42.5 -9.83301 61.5 -17.5s36.167 -16.834 51.5 -27.501l-16 -37c-31.333 22 -65.333 37 -102 45l-35 -257c21.333 -7.33301 41.833 -15.666 61.5 -24.999s37 -20.666 52 -33.999s27.167 -29.166 36.5 -47.499s14 -40.5 14 -66.5c0 -24 -4.83301 -46.5 -14.5 -67.5
s-23.334 -39.167 -41.001 -54.5s-38.834 -27.333 -63.501 -36s-52 -13 -82 -13h-13l-15 -113h-37l16 116c-28 4 -53.667 10.5 -77 19.5s-45 20.167 -65 33.5l16 36c18.667 -12.667 38.834 -23.5 60.501 -32.5s45.167 -15.5 70.5 -19.5l38 276
c-22 7.33301 -43.333 15.333 -64 24s-39 19.334 -55 32.001s-28.833 27.834 -38.5 45.501s-14.5 39.5 -14.5 65.5c0 23.333 4.66699 44.833 14 64.5s22.5 36.667 39.5 51s37 25.666 60 33.999s48.167 12.5 75.5 12.5h15c4.66699 0 9.66699 -0.333008 15 -1zM265.002 596.997
c-4 0 -8.16602 0.166992 -12.499 0.5s-8.5 0.5 -12.5 0.5c-24.667 0 -46.167 -3.33301 -64.5 -10s-33.833 -15.667 -46.5 -27s-22.167 -24.333 -28.5 -39s-9.5 -29.667 -9.5 -45c0 -18 3.33301 -33.667 10 -47s16.167 -25 28.5 -35s27.166 -19 44.499 -27
s36.333 -15.667 57 -23z" />
    <glyph glyph-name="percent" unicode="%" horiz-adv-x="746" 
d="M349 482c0 -22 -3.83301 -43 -11.5 -63s-18.667 -37.5 -33 -52.5s-31.666 -27 -51.999 -36s-43.5 -13.5 -69.5 -13.5c-25.333 0 -48.333 4.5 -69 13.5s-38.167 21 -52.5 36s-25.333 32.5 -33 52.5s-11.5 41 -11.5 63c0 22.667 3.83301 44.167 11.5 64.5s18.667 38 33 53
s31.833 27 52.5 36s43.667 13.5 69 13.5c26 0 49.167 -4.5 69.5 -13.5s37.666 -21 51.999 -36s25.333 -32.667 33 -53s11.5 -41.833 11.5 -64.5zM139 -15h-46l516 654h45zM729 142c0 -22.667 -3.83301 -44.167 -11.5 -64.5s-18.667 -38 -33 -53s-31.833 -27 -52.5 -36
s-43.667 -13.5 -69 -13.5c-26 0 -49.167 4.5 -69.5 13.5s-37.666 21 -51.999 36s-25.333 32.667 -33 53s-11.5 41.833 -11.5 64.5c0 22 3.83301 43 11.5 63s18.667 37.5 33 52.5s31.666 27 51.999 36s43.5 13.5 69.5 13.5c25.333 0 48.333 -4.5 69 -13.5
s38.167 -21 52.5 -36s25.333 -32.5 33 -52.5s11.5 -41 11.5 -63zM313 482c0 18.667 -3 36 -9 52s-14.5 30 -25.5 42s-24.667 21.5 -41 28.5s-34.5 10.5 -54.5 10.5s-38.167 -3.5 -54.5 -10.5s-30 -16.5 -41 -28.5s-19.5 -26 -25.5 -42s-9 -33.333 -9 -52
c0 -17.333 3 -34 9 -50s14.5 -30 25.5 -42s24.667 -21.5 41 -28.5s34.5 -10.5 54.5 -10.5s38.167 3.5 54.5 10.5s30 16.5 41 28.5s19.5 26 25.5 42s9 32.667 9 50zM693 142c0 17.333 -3 34 -9 50s-14.5 30 -25.5 42s-24.667 21.5 -41 28.5s-34.5 10.5 -54.5 10.5
s-38.167 -3.5 -54.5 -10.5s-30 -16.5 -41 -28.5s-19.5 -26 -25.5 -42s-9 -32.667 -9 -50c0 -18.667 3 -36 9 -52s14.5 -30 25.5 -42s24.667 -21.5 41 -28.5s34.5 -10.5 54.5 -10.5s38.167 3.5 54.5 10.5s30 16.5 41 28.5s19.5 26 25.5 42s9 33.333 9 52z" />
    <glyph glyph-name="ampersand" unicode="&#x26;" horiz-adv-x="626" 
d="M243 348c40 16.667 70.8311 35.998 92.498 57.998s32.5 49.667 32.5 83c0 14.667 -3 28.667 -9 42s-14.333 25 -25 35s-23.167 17.833 -37.5 23.5s-29.833 8.5 -46.5 8.5c-18.667 0 -35.5 -3 -50.5 -9s-27.667 -14.333 -38 -25s-18.333 -22.667 -24 -36
s-8.5 -27.666 -8.5 -42.999c0 -17.333 3.33301 -33.166 10 -47.499s15.334 -27 26.001 -38s22.834 -20.833 36.501 -29.5s27.5 -16 41.5 -22zM416.998 166.998c-33.333 41.333 -65.833 74.001 -97.5 98.001s-63.834 42.333 -96.501 55c-18.667 -8 -36.667 -17.333 -54 -28
s-32.666 -23 -45.999 -37s-24 -29.333 -32 -46s-12 -35 -12 -55c0 -16.667 3.33301 -32.667 10 -48s16 -29 28 -41s26.667 -21.5 44 -28.5s36.666 -10.5 57.999 -10.5c34.667 0 68.834 12.667 102.501 38s65.5 59.666 95.5 102.999zM436.998 143.999
c-28 -45.333 -61.1689 -82.3311 -99.502 -110.998s-79.166 -43 -122.499 -43c-27.333 0 -52 4.66699 -74 14s-40.667 21.5 -56 36.5s-27.166 32.5 -35.499 52.5s-12.5 40.333 -12.5 61c0 23.333 4 44.166 12 62.499s19.167 35 33.5 50s31.166 28.167 50.499 39.5
s40 21.333 62 30c-14.667 7.33301 -28.5 15.833 -41.5 25.5s-24.5 20.667 -34.5 33s-17.833 25.833 -23.5 40.5s-8.5 30.667 -8.5 48c0 19.333 4.16699 38.166 12.5 56.499s19.833 34.5 34.5 48.5s32.334 25.167 53.001 33.5s43 12.5 67 12.5c22 0 42.5 -3.66699 61.5 -11
s35.333 -17.333 49 -30s24.5 -27.5 32.5 -44.5s12 -35.5 12 -55.5c0 -36 -11.833 -67.5 -35.5 -94.5s-56.5 -48.167 -98.5 -63.5c28 -14 56 -32.5 84 -55.5s54.667 -50.167 80 -81.5l117 187h51l-147 -211l133 -166l-33 -20l-123 156v0z" />
    <glyph glyph-name="quotesingle" unicode="'" horiz-adv-x="173" 
d="M-1 398l139 250l44 -22l-150 -228h-33z" />
    <glyph glyph-name="parenleft" unicode="(" horiz-adv-x="335" 
d="M327 -224c-26.667 14 -55 34.8311 -85 62.498s-57.833 61 -83.5 100s-47 83.333 -64 133s-25.5 103.834 -25.5 162.501s8.5 112.834 25.5 162.501s38.333 94 64 133s53.5 72.333 83.5 100s58.333 48.5 85 62.5l22 -35c-26 -13.333 -53.167 -32.833 -81.5 -58.5
s-54.166 -56.667 -77.499 -93s-42.666 -77.333 -57.999 -123s-23 -95.167 -23 -148.5s7.66699 -102.833 23 -148.5s34.666 -86.667 57.999 -123s49.166 -67.333 77.499 -93s55.5 -45.167 81.5 -58.5l-22 -35v0z" />
    <glyph glyph-name="parenright" unicode=")" horiz-adv-x="335" 
d="M-14 -189c26 13.333 53.167 32.835 81.5 58.502s54.166 56.667 77.499 93s42.666 77.333 57.999 123s23 95.167 23 148.5s-7.66699 102.833 -23 148.5s-34.666 86.667 -57.999 123s-49.166 67.333 -77.499 93s-55.5 45.167 -81.5 58.5l22 35
c26.667 -14 55 -34.833 85 -62.5s57.833 -61 83.5 -100s47 -83.333 64 -133s25.5 -103.834 25.5 -162.501s-8.5 -112.834 -25.5 -162.501s-38.333 -94 -64 -133s-53.5 -72.333 -83.5 -100s-58.333 -48.5 -85 -62.5z" />
    <glyph glyph-name="asterisk" unicode="*" horiz-adv-x="334" 
d="M41 358l-25 35l126 81v5l-126 81l25 35l115 -101l3 1l39 147l41 -13l-60 -140l3 -3l146 13v-45l-146 13l-3 -3l60 -140l-41 -13l-39 147l-3 1z" />
    <glyph glyph-name="plus" unicode="+" horiz-adv-x="488" 
d="M265 216v-189h-40v189h-183l3 38h180v187h40v-187h178l3 -38h-181z" />
    <glyph glyph-name="comma" unicode="," horiz-adv-x="153" 
d="M32 28c0 9.33301 3.83398 18.3301 11.501 26.9971s17.5 13 29.5 13c15.333 0 28.666 -6 39.999 -18s17 -28.333 17 -49c0 -25.333 -9 -51.666 -27 -78.999s-42.333 -50.666 -73 -69.999l-19 17c28 20.667 47.333 40 58 58s16 36 16 54c0 13.333 -4.5 23.333 -13.5 30
s-22.167 12.334 -39.5 17.001z" />
    <glyph glyph-name="hyphen" unicode="-" horiz-adv-x="274" 
d="M36 224v38h205v-38h-205z" />
    <glyph glyph-name="period" unicode="." horiz-adv-x="153" 
d="M112 28c0 -10 -3.33301 -18.833 -10 -26.5s-15.334 -11.5 -26.001 -11.5s-19.167 3.83301 -25.5 11.5s-9.5 16.5 -9.5 26.5c0 9.33301 3.16699 17.666 9.5 24.999s14.833 11 25.5 11s19.334 -3.66699 26.001 -11s10 -15.666 10 -24.999z" />
    <glyph glyph-name="slash" unicode="/" horiz-adv-x="197" 
d="M-14 -199h-37l243 901h38z" />
    <glyph glyph-name="zero" unicode="0" horiz-adv-x="579" 
d="M529 236c0 -35.333 -6.33301 -68 -19 -98s-29.834 -56 -51.501 -78s-47 -39.167 -76 -51.5s-60.167 -18.5 -93.5 -18.5c-32.667 0 -63.667 6.16699 -93 18.5s-54.666 29.5 -75.999 51.5s-38.333 48 -51 78s-19 62.667 -19 98s6.33301 68 19 98s29.667 56 51 78
s46.666 39.167 75.999 51.5s60.333 18.5 93 18.5c33.333 0 64.5 -6.16699 93.5 -18.5s54.333 -29.5 76 -51.5s38.834 -48 51.501 -78s19 -62.667 19 -98zM488 236c0 29.333 -5 56.5 -15 81.5s-23.667 47 -41 66s-38.166 33.833 -62.499 44.5s-51.166 16 -80.499 16
c-28.667 0 -55.167 -5.33301 -79.5 -16s-45.333 -25.5 -63 -44.5s-31.334 -41 -41.001 -66s-14.5 -52.167 -14.5 -81.5c0 -28.667 4.83301 -55.667 14.5 -81s23.334 -47.5 41.001 -66.5s38.667 -33.833 63 -44.5s50.833 -16 79.5 -16c29.333 0 56.166 5.33301 80.499 16
s45.166 25.5 62.499 44.5s31 41.167 41 66.5s15 52.333 15 81z" />
    <glyph glyph-name="one" unicode="1" horiz-adv-x="308" 
d="M164 428l-116 -51l-3 39l159 66v-482h-40v428z" />
    <glyph glyph-name="two" unicode="2" horiz-adv-x="422" 
d="M49 0l-0.000976562 43.002l123.5 96c34.333 27.333 62.5 52.166 84.5 74.499s38.167 43.166 48.5 62.499s15.5 39.333 15.5 60c0 30 -10.5 55.5 -31.5 76.5s-48.833 31.5 -83.5 31.5c-25.333 0 -50.166 -5.66699 -74.499 -17s-46.833 -25.333 -67.5 -42l-15 35
c23.333 18.667 48.166 33.667 74.499 45s54.5 17 84.5 17c23.333 0 44.5 -3.5 63.5 -10.5s35.333 -16.833 49 -29.5s24.334 -27.5 32.001 -44.5s11.5 -35.5 11.5 -55.5c0 -28 -7.33301 -54.167 -22 -78.5s-34.167 -48.5 -58.5 -72.5s-52.5 -48.333 -84.5 -73l-100 -79h288
v-39h-338z" />
    <glyph glyph-name="three" unicode="3" horiz-adv-x="401" 
d="M208 163c25.333 0 48.668 -3.99902 70.001 -11.999s39.5 -19.167 54.5 -33.5s26.667 -31.166 35 -50.499s12.5 -40.333 12.5 -63c0 -27.333 -5.5 -52.333 -16.5 -75s-25.833 -42.334 -44.5 -59.001s-40.5 -29.5 -65.5 -38.5s-51.5 -13.5 -79.5 -13.5
c-27.333 0 -54.666 3.66699 -81.999 11s-50.333 16.666 -69 27.999l16 37c15.333 -9.33301 35.166 -18 59.499 -26s50.5 -12 78.5 -12c23.333 0 44.666 3.5 63.999 10.5s36.333 16.667 51 29s26 27.333 34 45s12 37.5 12 59.5c0 42 -13.667 75 -41 99s-62.333 36 -105 36
c-14.667 0 -29.5 -0.833008 -44.5 -2.5s-29.5 -4.16699 -43.5 -7.5v31c68.667 17.333 121 40.666 157 69.999s54 64 54 104c0 37.333 -11.833 65.666 -35.5 84.999s-54.167 29 -91.5 29c-28 0 -55.5 -6.16699 -82.5 -18.5s-50.5 -26.833 -70.5 -43.5l-16 33
c21.333 18 47.5 33.667 78.5 47s61.833 20 92.5 20c25.333 0 48.333 -3.5 69 -10.5s38.167 -17 52.5 -30s25.5 -28.667 33.5 -47s12 -38.5 12 -60.5c0 -20 -4 -38.833 -12 -56.5s-18.833 -33.667 -32.5 -48s-29.5 -27.166 -47.5 -38.499s-37 -20.666 -57 -27.999z" />
    <glyph glyph-name="four" unicode="4" horiz-adv-x="478" 
d="M366 21v-205h-41v205h-306l-8 36l320 431h35v-429h95l3 -38h-98zM325 419l-269 -360h269v360z" />
    <glyph glyph-name="five" unicode="5" horiz-adv-x="409" 
d="M84 201c12.667 4.66699 26.501 8.16504 41.501 10.498s33.5 3.5 55.5 3.5c30 0 57.333 -4.66699 82 -14s45.834 -22.5 63.501 -39.5s31.167 -36.833 40.5 -59.5s14 -47.667 14 -75c0 -30.667 -5.5 -58.834 -16.5 -84.501s-26 -47.667 -45 -66
s-41.667 -32.666 -68 -42.999s-54.833 -15.5 -85.5 -15.5c-24.667 0 -50.167 3.66699 -76.5 11s-49.5 16.666 -69.5 27.999l9 40c21.333 -12 43.5 -21.833 66.5 -29.5s47.5 -11.5 73.5 -11.5c24.667 0 47.334 4 68.001 12s38.667 19.333 54 34s27.333 32.5 36 53.5
s13 44.5 13 70.5c0 22 -3.83301 42.333 -11.5 61s-18.5 34.834 -32.5 48.501s-31 24.334 -51 32.001s-42.333 11.5 -67 11.5c-14 0 -26.333 -0.5 -37 -1.5s-20.334 -2.33301 -29.001 -4s-16.834 -3.66699 -24.501 -6s-15.834 -5.16602 -24.501 -8.49902l-18 19l38 295h281
l3 -39h-250l-33 -233v0z" />
    <glyph glyph-name="six" unicode="6" horiz-adv-x="490" 
d="M46 230c0 40 6.83105 81.001 20.498 123.001s34.834 81.833 63.501 119.5s65.167 71.167 109.5 100.5s97.166 51 158.499 65l11 -37c-48 -11.333 -90.5 -27.5 -127.5 -48.5s-68.667 -45.333 -95 -73s-47.5 -57.334 -63.5 -89.001s-27 -63.834 -33 -96.501l1 -1
c24 21.333 51.167 39.5 81.5 54.5s62.5 22.5 96.5 22.5c22.667 0 44.667 -3.5 66 -10.5s40.333 -17.667 57 -32s30 -32.5 40 -54.5s15 -48.333 15 -79c0 -30 -4.66699 -57.5 -14 -82.5s-22.5 -46.5 -39.5 -64.5s-37.667 -32 -62 -42s-51.5 -15 -81.5 -15
c-32 0 -60.667 6.33301 -86 19s-46.666 29.834 -63.999 51.501s-30.666 47 -39.999 76s-14 60.167 -14 93.5zM86.998 231.001c0 -27.333 3.66992 -53.333 11.0029 -78s18 -46.5 32 -65.5s31.167 -34 51.5 -45s43.5 -16.5 69.5 -16.5c24 0 45.5 4.16699 64.5 12.5
s35.333 19.833 49 34.5s24 32.167 31 52.5s10.5 42.5 10.5 66.5c0 23.333 -3.83301 43.833 -11.5 61.5s-17.834 32.5 -30.501 44.5s-27.334 21 -44.001 27s-34.334 9 -53.001 9c-33.333 0 -64.5 -6.33301 -93.5 -19s-57.5 -33 -85.5 -61c-0.666992 -4 -1 -7.83301 -1 -11.5
v-11.5z" />
    <glyph glyph-name="seven" unicode="7" horiz-adv-x="421" 
d="M20 433l3 40h374v-29l-284 -628h-42l281 617h-332z" />
    <glyph glyph-name="eight" unicode="8" horiz-adv-x="473" 
d="M256 328c15.333 6 30.167 13.1689 44.5 21.502s27 18.166 38 29.499s19.833 24.166 26.5 38.499s10 30.5 10 48.5c0 18.667 -3.33301 36 -10 52s-16 30 -28 42s-26.5 21.333 -43.5 28s-35.833 10 -56.5 10c-22 0 -41.667 -3.66699 -59 -11s-31.833 -16.833 -43.5 -28.5
s-20.667 -25.167 -27 -40.5s-9.5 -31 -9.5 -47c0 -19.333 4.5 -36.166 13.5 -50.499s20.833 -26.833 35.5 -37.5s31.5 -20.334 50.5 -29.001zM223.001 302.002c-16.667 -6 -33.166 -13.3311 -49.499 -21.998s-30.833 -18.834 -43.5 -30.501s-22.834 -25.167 -30.501 -40.5
s-11.5 -32.333 -11.5 -51c0 -40 12.333 -72 37 -96s62 -36 112 -36c26 0 48.333 3.33301 67 10s34 15.667 46 27s20.833 24.666 26.5 39.999s8.5 32 8.5 50c0 21.333 -4.66699 39.333 -14 54s-21.5 27.667 -36.5 39s-32.167 21.333 -51.5 30zM288.002 313.004
c18 -8 35.3311 -16.5 51.998 -25.5s31.334 -19.5 44.001 -31.5s22.834 -25.833 30.501 -41.5s11.5 -34.167 11.5 -55.5s-3.83301 -42.166 -11.5 -62.499s-19.167 -38.333 -34.5 -54s-35 -28.334 -59 -38.001s-52.333 -14.5 -85 -14.5s-61 4.33301 -85 13
s-43.667 20.5 -59 35.5s-26.666 32.333 -33.999 52s-11 40.167 -11 61.5c0 24.667 5 46 15 64s22.167 33.667 36.5 47s29.833 24.333 46.5 33s31.667 15.667 45 21c-18 7.33301 -35 15.5 -51 24.5s-30 19.167 -42 30.5s-21.667 24.666 -29 39.999s-11 33.333 -11 54
c0 25.333 4.66699 48.333 14 69s22.166 38.334 38.499 53.001s35.5 26 57.5 34s45.333 12 70 12s47.834 -3.66699 69.501 -11s40.667 -17.833 57 -31.5s29.166 -30.5 38.499 -50.5s14 -43 14 -69c0 -21.333 -4.16699 -40.5 -12.5 -57.5s-18.833 -32 -31.5 -45
s-26.5 -24.167 -41.5 -33.5s-29.167 -17 -42.5 -23z" />
    <glyph glyph-name="nine" unicode="9" horiz-adv-x="490" 
d="M444 242c0 -40 -6.83105 -81.001 -20.498 -123.001s-34.834 -81.833 -63.501 -119.5s-65.167 -71.167 -109.5 -100.5s-97.166 -51 -158.499 -65l-11 37c48 11.333 90.5 27.5 127.5 48.5s68.667 45.333 95 73s47.5 57.334 63.5 89.001s27 63.834 33 96.501l-1 1
c-24 -21.333 -51.167 -39.5 -81.5 -54.5s-62.5 -22.5 -96.5 -22.5c-22.667 0 -44.667 3.5 -66 10.5s-40.333 17.667 -57 32s-30 32.5 -40 54.5s-15 48.333 -15 79c0 30 4.66699 57.5 14 82.5s22.5 46.5 39.5 64.5s37.667 32 62 42s51.5 15 81.5 15
c32 0 60.667 -6.33301 86 -19s46.666 -29.834 63.999 -51.501s30.666 -47 39.999 -76s14 -60.167 14 -93.5zM403.002 240.999c0 28 -3.50391 54.5 -10.5039 79.5s-17.333 46.833 -31 65.5s-30.667 33.334 -51 44.001s-44.166 16 -71.499 16
c-24 0 -45.5 -4.16699 -64.5 -12.5s-35.333 -19.833 -49 -34.5s-24 -32.167 -31 -52.5s-10.5 -42.5 -10.5 -66.5c0 -22.667 3.83301 -42.834 11.5 -60.501s17.834 -32.5 30.501 -44.5s27.334 -21.167 44.001 -27.5s34.334 -9.5 53.001 -9.5c33.333 0 64.5 6.33301 93.5 19
s57.5 33 85.5 61c0.666992 4 1 7.83301 1 11.5v11.5z" />
    <glyph glyph-name="colon" unicode=":" horiz-adv-x="153" 
d="M112 357c0 -10 -3.33301 -18.833 -10 -26.5s-15.334 -11.5 -26.001 -11.5s-19.167 3.83301 -25.5 11.5s-9.5 16.5 -9.5 26.5c0 9.33301 3.16699 17.666 9.5 24.999s14.833 11 25.5 11s19.334 -3.66699 26.001 -11s10 -15.666 10 -24.999zM112 28
c0 -10 -3.33301 -18.833 -10 -26.5s-15.334 -11.5 -26.001 -11.5s-19.167 3.83301 -25.5 11.5s-9.5 16.5 -9.5 26.5c0 9.33301 3.16699 17.666 9.5 24.999s14.833 11 25.5 11s19.334 -3.66699 26.001 -11s10 -15.666 10 -24.999z" />
    <glyph glyph-name="semicolon" unicode=";" horiz-adv-x="153" 
d="M112 357c0 -10 -3.33301 -18.833 -10 -26.5s-15.334 -11.5 -26.001 -11.5s-19.167 3.83301 -25.5 11.5s-9.5 16.5 -9.5 26.5c0 9.33301 3.16699 17.666 9.5 24.999s14.833 11 25.5 11s19.334 -3.66699 26.001 -11s10 -15.666 10 -24.999zM32 28
c0 9.33301 3.83398 18.3301 11.501 26.9971s17.5 13 29.5 13c15.333 0 28.666 -6 39.999 -18s17 -28.333 17 -49c0 -25.333 -9 -51.666 -27 -78.999s-42.333 -50.666 -73 -69.999l-19 17c28 20.667 47.333 40 58 58s16 36 16 54c0 13.333 -4.5 23.333 -13.5 30
s-22.167 12.334 -39.5 17.001z" />
    <glyph glyph-name="less" unicode="&#x3c;" horiz-adv-x="437" 
d="M396 19l-361 192v48l361 192v-42l-325 -170v-9l325 -170v-41z" />
    <glyph glyph-name="equal" unicode="=" horiz-adv-x="428" 
d="M39 300l-3 38h357l-3 -38h-351zM36 131l3 38h351l3 -38h-357z" />
    <glyph glyph-name="greater" unicode="&#x3e;" horiz-adv-x="437" 
d="M48 19v41l325 170v9l-325 170v42l361 -192v-48z" />
    <glyph glyph-name="question" unicode="?" horiz-adv-x="341" 
d="M300 473c0 -20 -2.83301 -36.998 -8.5 -50.998s-13.334 -26.333 -23.001 -37s-20.834 -19.667 -33.501 -27s-26 -14.333 -40 -21c-27.333 -12.667 -47.333 -23.834 -60 -33.501s-19 -22.167 -19 -37.5c0 -16 5.66699 -31 17 -45s27.333 -27.667 48 -41l-25 -10
c-20.667 12.667 -38.5 27.167 -53.5 43.5s-22.5 33.833 -22.5 52.5c0 25.333 8.16699 45.5 24.5 60.5s39.166 28.833 68.499 41.5c12.667 5.33301 24.5 11.166 35.5 17.499s20.5 13.5 28.5 21.5s14.167 17.167 18.5 27.5s6.5 22.833 6.5 37.5
c0 17.333 -3.33301 33.833 -10 49.5s-16 29.5 -28 41.5s-26.667 21.667 -44 29s-36.666 11 -57.999 11c-13.333 0 -25.166 -0.833008 -35.499 -2.5s-21.166 -4.16699 -32.499 -7.5v37c8.66699 2 18.5 4 29.5 6s23.167 3 36.5 3c30 0 56.333 -5 79 -15s41.5 -23 56.5 -39
s26.167 -33.833 33.5 -53.5s11 -39.167 11 -58.5zM180 28.002c0 -10 -3.33301 -18.833 -10 -26.5s-15.334 -11.5 -26.001 -11.5s-19.167 3.83301 -25.5 11.5s-9.5 16.5 -9.5 26.5c0 9.33301 3.16699 17.666 9.5 24.999s14.833 11 25.5 11s19.334 -3.66699 26.001 -11
s10 -15.666 10 -24.999z" />
    <glyph glyph-name="at" unicode="@" horiz-adv-x="834" 
d="M539 209c-8.66699 -40.667 -5.83496 -71.4951 8.49805 -92.4951s36.5 -31.5 66.5 -31.5c17.333 0 34.5 4.66699 51.5 14s32.333 23.333 46 42s24.667 41.667 33 69s12.5 59.333 12.5 96c0 45.333 -9.16699 86.5 -27.5 123.5s-42.666 68.5 -72.999 94.5
s-65.166 46.167 -104.499 60.5s-80 21.5 -122 21.5c-48.667 0 -94.167 -9.83301 -136.5 -29.5s-79.333 -46.167 -111 -79.5s-56.5 -71.833 -74.5 -115.5s-27 -89.834 -27 -138.501c0 -46.667 7.83301 -90.334 23.5 -131.001s37.667 -76.167 66 -106.5
s62.166 -54.333 101.499 -72s82.333 -26.5 129 -26.5c19.333 0 40.333 2.16699 63 6.5s42.334 9.16602 59.001 14.499l6 -28c-21.333 -6.66699 -43.333 -11.667 -66 -15s-44 -5 -64 -5c-50.667 0 -97.5 9.33301 -140.5 28s-80 44.334 -111 77.001s-55.167 71 -72.5 115
s-26 91.333 -26 142c0 53.333 9.83301 103.666 29.5 150.999s46.667 88.666 81 123.999s74.666 63.333 120.999 84s96.166 31 149.499 31c48 0 93.667 -7.66699 137 -23s81.5 -37 114.5 -65s59.167 -62.167 78.5 -102.5s29 -85.5 29 -135.5
c0 -40.667 -5 -76.834 -15 -108.501s-23.333 -58.167 -40 -79.5s-35.667 -37.5 -57 -48.5s-43 -16.5 -65 -16.5c-29.333 0 -53.666 7.5 -72.999 22.5s-32.333 32.167 -39 51.5c-22.667 -28 -44 -47.333 -64 -58s-40.667 -16 -62 -16s-40.666 4.16699 -57.999 12.5
s-32 20 -44 35s-21.333 32.5 -28 52.5s-10 41.333 -10 64c0 32 5.5 62.5 16.5 91.5s26 54.167 45 75.5s40.833 38.333 65.5 51s50.667 19 78 19c22 0 41.5 -4 58.5 -12s32.167 -17 45.5 -27l45 29l-49 -235v0zM534.999 377.005
c-11.333 11.333 -25.499 21.5039 -42.499 30.5039s-36.167 13.5 -57.5 13.5s-41.666 -5.5 -60.999 -16.5s-36.166 -25.833 -50.499 -44.5s-25.833 -40.334 -34.5 -65.001s-13 -50.667 -13 -78c0 -18 2.33301 -34.833 7 -50.5s11.5 -29.334 20.5 -41.001
s20.167 -20.834 33.5 -27.501s28.666 -10 45.999 -10s35.166 5.16699 53.499 15.5s36.166 27.166 53.499 50.499z" />
    <glyph glyph-name="A" unicode="A" horiz-adv-x="576" 
d="M551 0h-43l-73 195h-295l-73 -195h-42l239 625h52zM289 588l-134 -355h265z" />
    <glyph glyph-name="B" unicode="B" horiz-adv-x="534" 
d="M338 317c50.667 -6.66699 88.835 -23.1631 114.502 -49.4961s38.5 -58.5 38.5 -96.5c0 -24.667 -4 -47.334 -12 -68.001s-20.833 -38.667 -38.5 -54s-40.167 -27.333 -67.5 -36s-60.333 -13 -99 -13h-192v625h182c37.333 0 69.166 -4 95.499 -12s47.666 -19 63.999 -33
s28.333 -30.833 36 -50.5s11.5 -41.167 11.5 -64.5c0 -14.667 -2.5 -29.834 -7.5 -45.501s-12.667 -30.334 -23 -44.001s-24 -25.834 -41 -36.501s-37.5 -18 -61.5 -22zM429.001 462.004c0 38 -13.001 68.333 -39.001 91s-68.667 34 -128 34h-138v-255h132
c24.667 0 47.5 2.66699 68.5 8s39.333 13.5 55 24.5s27.834 24.5 36.501 40.5s13 35 13 57zM449 172.004c0 36.667 -15.167 66.168 -45.5 88.501s-79.5 33.5 -147.5 33.5h-132v-256h151c32 0 59 3.33301 81 10s40 16 54 28s24 26.167 30 42.5s9 34.166 9 53.499z" />
    <glyph glyph-name="C" unicode="C" horiz-adv-x="571" 
d="M513 549c-22 14 -48.499 25.499 -79.499 34.499s-63.167 13.5 -96.5 13.5c-34 0 -65.833 -6.16699 -95.5 -18.5s-55.667 -30.666 -78 -54.999s-39.833 -54.333 -52.5 -90s-19 -76.5 -19 -122.5c0 -44 5.83301 -83.5 17.5 -118.5s28.334 -64.667 50.001 -89
s47.667 -43 78 -56s64.166 -19.5 101.499 -19.5c34 0 66 4.66699 96 14s55.667 21.666 77 36.999l10 -39c-21.333 -14 -47.833 -25.833 -79.5 -35.5s-66.5 -14.5 -104.5 -14.5c-44.667 0 -84.834 7.5 -120.501 22.5s-66 36.333 -91 64s-44.167 61.334 -57.5 101.001
s-20 84.167 -20 133.5s7.16699 94 21.5 134s34.5 74 60.5 102s56.667 49.667 92 65s74 23 116 23c40.667 0 77 -5.33301 109 -16s58 -22 78 -34z" />
    <glyph glyph-name="D" unicode="D" horiz-adv-x="611" 
d="M564 317c0 -50.667 -7.66895 -95.667 -23.002 -135s-37.5 -72.5 -66.5 -99.5s-64.333 -47.5 -106 -61.5s-88.834 -21 -141.501 -21h-145v625h151c50.667 0 96.334 -7.5 137.001 -22.5s75.334 -36 104.001 -63s50.834 -59.5 66.501 -97.5s23.5 -79.667 23.5 -125z
M520.998 313c0 41.333 -6.66797 78.833 -20.001 112.5s-32.5 62.5 -57.5 86.5s-55.5 42.5 -91.5 55.5s-77 19.5 -123 19.5h-105v-549h105c42.667 0 81.834 5.5 117.501 16.5s66.5 27.667 92.5 50s46.167 50.833 60.5 85.5s21.5 75.667 21.5 123z" />
    <glyph glyph-name="E" unicode="E" horiz-adv-x="490" 
d="M82 0v625h358v-38h-316v-256h264v-37h-264v-256h316v-38h-358z" />
    <glyph glyph-name="F" unicode="F" horiz-adv-x="463" 
d="M82 625h349v-39h-307v-264h255v-38h-255v-284h-42v625z" />
    <glyph glyph-name="G" unicode="G" horiz-adv-x="610" 
d="M544 53c-28.667 -20.667 -60.667 -36.334 -96 -47.001s-72 -16 -110 -16c-44.667 0 -84.834 7.5 -120.501 22.5s-66 36.333 -91 64s-44.167 61.334 -57.5 101.001s-20 84.167 -20 133.5s7.16699 94 21.5 134s34.5 74 60.5 102s56.667 49.667 92 65s74 23 116 23
c40.667 0 77 -5.33301 109 -16s58 -22 78 -34l-13 -36c-22 14 -48.5 25.5 -79.5 34.5s-63.167 13.5 -96.5 13.5c-34 0 -65.833 -6.16699 -95.5 -18.5s-55.667 -30.666 -78 -54.999s-39.833 -54.333 -52.5 -90s-19 -76.5 -19 -122.5c0 -44 5.83301 -83.5 17.5 -118.5
s28.334 -64.667 50.001 -89s47.667 -43 78 -56s64.166 -19.5 101.499 -19.5c32.667 0 62.834 4.16699 90.501 12.5s52.167 19.166 73.5 32.499v192h-187v37h228v-249v0z" />
    <glyph glyph-name="H" unicode="H" horiz-adv-x="638" 
d="M514 0v295h-390v-295h-42v625h42v-293h390v293h42v-625h-42z" />
    <glyph glyph-name="I" unicode="I" horiz-adv-x="208" 
d="M83 0v625h42v-625h-42z" />
    <glyph glyph-name="J" unicode="J" horiz-adv-x="409" 
d="M342 194c0 -63.333 -15.001 -113.167 -45.001 -149.5s-77.333 -54.5 -142 -54.5c-28.667 0 -55.5 4.16699 -80.5 12.5s-45.167 17.166 -60.5 26.499l9 41c20.667 -12.667 42.334 -23 65.001 -31s45.667 -12 69 -12c46.667 0 82.167 14.333 106.5 43
s36.5 70.334 36.5 125.001v430h42v-431v0z" />
    <glyph glyph-name="K" unicode="K" horiz-adv-x="525" 
d="M125 323l314 302h56l-329 -311l335 -314h-56l-320 301h-1v-301h-42v625h42v-302h1z" />
    <glyph glyph-name="L" unicode="L" horiz-adv-x="461" 
d="M82 0v625h42v-586h316v-39h-358z" />
    <glyph glyph-name="M" unicode="M" horiz-adv-x="750" 
d="M625 572l-222 -573h-54l-224 574l-14 -573h-43l21 625h59l229 -591l227 591h58l19 -625h-42z" />
    <glyph glyph-name="N" unicode="N" horiz-adv-x="631" 
d="M509 625h40v-631h-46l-381 573v-567h-40v625h49l378 -568v568z" />
    <glyph glyph-name="O" unicode="O" horiz-adv-x="698" 
d="M649 314c0 -48.667 -7.5 -92.833 -22.5 -132.5s-36 -73.667 -63 -102s-58.833 -50.333 -95.5 -66s-76.667 -23.5 -120 -23.5c-41.333 0 -80.166 8 -116.499 24s-68 38.167 -95 66.5s-48.333 62.333 -64 102s-23.5 82.834 -23.5 129.501c0 48.667 7.5 92.834 22.5 132.501
s36 73.667 63 102s58.833 50.166 95.5 65.499s76.667 23 120 23c41.333 0 80.166 -7.83301 116.499 -23.5s68 -37.834 95 -66.501s48.333 -62.5 64 -101.5s23.5 -82.167 23.5 -129.5zM606 312.001c0 42 -6.66699 80.499 -20 115.499s-31.5 65.167 -54.5 90.5
s-50.333 45 -82 59s-65.834 21 -102.501 21s-70.667 -7 -102 -21s-58.333 -33.5 -81 -58.5s-40.334 -54.833 -53.001 -89.5s-19 -73 -19 -115s6.66699 -80.5 20 -115.5s31.5 -65.167 54.5 -90.5s50.333 -45.166 82 -59.499s65.834 -21.5 102.501 -21.5s70.667 7 102 21
s58.333 33.667 81 59s40.334 55.333 53.001 90s19 73 19 115z" />
    <glyph glyph-name="P" unicode="P" horiz-adv-x="500" 
d="M461 437c0 -66.667 -22.333 -116.833 -67 -150.5s-105.667 -51.167 -183 -52.5l-87 -1v-233h-42v625h140c79.333 0 139 -17 179 -51s60 -79.667 60 -137zM417 436.001c0 47.333 -17 84.333 -51 111s-82 40 -144 40h-98v-316l87 1c65.333 1.33301 116 14.5 152 39.5
s54 66.5 54 124.5z" />
    <glyph glyph-name="Q" unicode="Q" horiz-adv-x="698" 
d="M669 -101l-18.999 -36l-243 132c-9.33301 -1.33301 -19 -2.5 -29 -3.5s-20 -1.5 -30 -1.5c-41.333 0 -80.166 8 -116.499 24s-68 38.167 -95 66.5s-48.333 62.333 -64 102s-23.5 82.834 -23.5 129.501c0 48.667 7.5 92.834 22.5 132.501s36 73.667 63 102
s58.833 50.166 95.5 65.499s76.667 23 120 23c41.333 0 80.166 -7.83301 116.499 -23.5s68 -37.834 95 -66.501s48.333 -62.5 64 -101.5s23.5 -82.167 23.5 -129.5c0 -38 -4.66699 -73.167 -14 -105.5s-22.333 -61.5 -39 -87.5s-36.834 -48.5 -60.501 -67.5
s-50.167 -33.833 -79.5 -44.5zM606.001 312c0 42 -6.66699 80.499 -20 115.499s-31.5 65.167 -54.5 90.5s-50.333 45 -82 59s-65.834 21 -102.501 21s-70.667 -7 -102 -21s-58.333 -33.5 -81 -58.5s-40.334 -54.833 -53.001 -89.5s-19 -73 -19 -115s6.66699 -80.5 20 -115.5
s31.5 -65.167 54.5 -90.5s50.333 -45.166 82 -59.499s65.834 -21.5 102.501 -21.5s70.667 7 102 21s58.333 33.667 81 59s40.334 55.333 53.001 90s19 73 19 115z" />
    <glyph glyph-name="R" unicode="R" horiz-adv-x="513" 
d="M124 0l-42 -0.000976562v625h148c78 0 134.833 -16.167 170.5 -48.5s53.5 -75.166 53.5 -128.499c0 -23.333 -4.16699 -44.5 -12.5 -63.5s-19.5 -35.5 -33.5 -49.5s-30 -25.833 -48 -35.5s-36.667 -17.167 -56 -22.5l178 -277h-47l-169 269l-142 -9v-260zM245 301.999
c21.333 0.666992 41.833 4.5 61.5 11.5s37.334 16.667 53.001 29s28.167 27.333 37.5 45s14 37.5 14 59.5c0 44.667 -15.333 79.167 -46 103.5s-77.334 36.5 -140.001 36.5h-101v-289z" />
    <glyph glyph-name="S" unicode="S" horiz-adv-x="471" 
d="M230 27c24 0 46.001 3.49902 66.001 10.499s37 16.5 51 28.5s24.833 25.833 32.5 41.5s11.5 32.167 11.5 49.5c0 21.333 -4.33301 39.5 -13 54.5s-20.5 28.167 -35.5 39.5s-32.667 21.166 -53 29.499s-42.166 16.5 -65.499 24.5c-21.333 7.33301 -42.5 15.5 -63.5 24.5
s-39.667 19.833 -56 32.5s-29.666 28 -39.999 46s-15.5 39.667 -15.5 65c0 23.333 4.83301 44.833 14.5 64.5s23 36.667 40 51s37 25.666 60 33.999s48.167 12.5 75.5 12.5c36 0 69 -4.83301 99 -14.5s56.667 -22.167 80 -37.5l-16 -37
c-23.333 16 -49.166 28.667 -77.499 38s-56.833 14 -85.5 14c-24.667 0 -46.334 -3.33301 -65.001 -10s-34.334 -15.667 -47.001 -27s-22.167 -24.333 -28.5 -39s-9.5 -30 -9.5 -46c0 -18.667 4.16699 -35 12.5 -49s19.666 -26.167 33.999 -36.5s31.5 -19.666 51.5 -27.999
s41.667 -16.5 65 -24.5c22 -7.33301 43.667 -15.666 65 -24.999s40.333 -20.666 57 -33.999s30.167 -29.5 40.5 -48.5s15.5 -42.167 15.5 -69.5c0 -24 -5 -46.5 -15 -67.5s-23.833 -39.167 -41.5 -54.5s-38.834 -27.333 -63.501 -36s-52 -13 -82 -13
c-38 0 -72.833 5 -104.5 15s-60.5 23.667 -86.5 41l16 36c23.333 -16 50 -29.167 80 -39.5s62.333 -15.5 97 -15.5z" />
    <glyph glyph-name="T" unicode="T" horiz-adv-x="540" 
d="M291 586v-586h-42v586h-221v39h484v-39h-221z" />
    <glyph glyph-name="U" unicode="U" horiz-adv-x="586" 
d="M519 236c0 -37.333 -4.83203 -71.1689 -14.499 -101.502s-24.167 -56.166 -43.5 -77.499s-43 -37.833 -71 -49.5s-60.667 -17.5 -98 -17.5c-72.667 0 -128.334 20.833 -167.001 62.5s-58 99.5 -58 173.5v399h41v-396c0 -62.667 15.5 -112 46.5 -148s77.167 -54 138.5 -54
c62.667 0 109.167 18.333 139.5 55s45.5 88.334 45.5 155.001v388h41v-389v0z" />
    <glyph glyph-name="V" unicode="V" horiz-adv-x="547" 
d="M298 0h-50l-228 625h43l211 -584l211 584h42z" />
    <glyph glyph-name="W" unicode="W" horiz-adv-x="892" 
d="M268 0h-39l-178 625h43l157 -560l171 560h53l174 -560l148 560h44l-173 -625h-39l-181 580z" />
    <glyph glyph-name="X" unicode="X" horiz-adv-x="549" 
d="M63 0h-49l235 322l-218 303h48l196 -277l196 277h48l-220 -302l235 -323h-49l-212 297z" />
    <glyph glyph-name="Y" unicode="Y" horiz-adv-x="507" 
d="M275 254v-254h-42v253l-219 372h47l194 -331l192 331h46z" />
    <glyph glyph-name="Z" unicode="Z" horiz-adv-x="498" 
d="M26 0v30l388 558h-373v37h425v-30l-388 -558h387v-37h-439z" />
    <glyph glyph-name="bracketleft" unicode="[" horiz-adv-x="409" 
d="M114 -222v897h245v-36h-203v-825h203v-36h-245z" />
    <glyph glyph-name="backslash" unicode="\" horiz-adv-x="197" 
d="M7 702l243 -901h-37l-244 901h38z" />
    <glyph glyph-name="bracketright" unicode="]" horiz-adv-x="409" 
d="M50 -186h203v825h-203v36h245v-897h-245v36z" />
    <glyph glyph-name="asciicircum" unicode="^" horiz-adv-x="359" 
d="M304 515l-103 144h-2l-103 -144h-33l112 177h50l112 -177h-33z" />
    <glyph glyph-name="underscore" unicode="_" horiz-adv-x="429" 
d="M-9 -38v38h447v-38h-447z" />
    <glyph glyph-name="grave" unicode="`" horiz-adv-x="399" 
d="M230 515l-158 177h58l131 -177h-31z" />
    <glyph glyph-name="a" unicode="a" horiz-adv-x="427" 
d="M316 243c-44.667 -4.66699 -82.333 -10.8301 -113 -18.4971s-55.5 -16.834 -74.5 -27.501s-32.667 -22.834 -41 -36.501s-12.5 -28.834 -12.5 -45.501c0 -28.667 10.5 -50.667 31.5 -66s46.167 -23 75.5 -23c28.667 0 54.5 7.5 77.5 22.5s41.833 31.167 56.5 48.5v146z
M320.001 62.0039c-6.66699 -8.66699 -15.166 -17.3311 -25.499 -25.998s-21.833 -16.5 -34.5 -23.5s-26 -12.5 -40 -16.5s-28.333 -6 -43 -6c-20 0 -38.833 3 -56.5 9s-32.834 14.167 -45.501 24.5s-22.667 23 -30 38s-11 31.5 -11 49.5
c0 21.333 4.83301 41.166 14.5 59.499s25.5 34.5 47.5 48.5s51 25.667 87 35s80.333 15.666 133 18.999v42c0 35.333 -8.83301 63.333 -26.5 84s-46.167 31 -85.5 31c-14 0 -28.167 -1.83301 -42.5 -5.5s-28.166 -8.16699 -41.499 -13.5s-26 -11.5 -38 -18.5
s-22.667 -14.167 -32 -21.5l-10 41c21.333 15.333 47.5 28.5 78.5 39.5s60.5 16.5 88.5 16.5c22 0 42.167 -2.66699 60.5 -8s34.166 -14 47.499 -26s23.666 -27.5 30.999 -46.5s11 -41.833 11 -68.5v-248c0 -14 2.83301 -25.667 8.5 -35s18.834 -13.666 39.501 -12.999
l-3 -31c-22.667 -1.33301 -41.5 3.66699 -56.5 15s-23.167 29.666 -24.5 54.999h-1z" />
    <glyph glyph-name="b" unicode="b" horiz-adv-x="499" 
d="M459 240c0 -38 -5.50098 -72.334 -16.501 -103.001s-26.333 -56.834 -46 -78.501s-42.834 -38.5 -69.501 -50.5s-56 -18 -88 -18c-23.333 0 -46.166 3.5 -68.499 10.5s-41.166 15.167 -56.499 24.5l-40 -39v689l41 12v-283c7.33301 6.66699 16 13.5 26 20.5
s21.333 13.333 34 19s26.334 10.334 41.001 14.001s30 5.5 46 5.5c28 0 54.167 -5.33301 78.5 -16s45.166 -25.667 62.499 -45s31 -42.666 41 -69.999s15 -58 15 -92zM416.999 235.999c0 26.667 -3.83105 51.5 -11.498 74.5s-18.5 43 -32.5 60s-31 30.5 -51 40.5
s-42.333 15 -67 15c-28 0 -54 -5.5 -78 -16.5s-44.667 -24.833 -62 -41.5v-303c14.667 -11.333 33.667 -20.5 57 -27.5s46.666 -10.5 69.999 -10.5c26 0 49.667 4.83301 71 14.5s39.666 23.667 54.999 42s27.333 40.333 36 66s13 54.5 13 86.5z" />
    <glyph glyph-name="c" unicode="c" horiz-adv-x="445" 
d="M398 29c-18.667 -11.333 -39.333 -20.667 -62 -28s-46 -11 -70 -11c-32.667 0 -62.5 5.83301 -89.5 17.5s-50.333 28 -70 49s-35 46 -46 75s-16.5 60.833 -16.5 95.5s5.33301 66.667 16 96s25.667 54.833 45 76.5s42.333 38.5 69 50.5s55.667 18 87 18
c27.333 0 52.666 -3.33301 75.999 -10s44 -16 62 -28l-10 -37c-16.667 10.667 -35.834 19.5 -57.501 26.5s-45.167 10.5 -70.5 10.5c-26 0 -49.667 -5 -71 -15s-39.666 -24 -54.999 -42s-27.333 -39.167 -36 -63.5s-13 -51.166 -13 -80.499s4.33301 -56.333 13 -81
s20.834 -45.834 36.501 -63.501s34.5 -31.5 56.5 -41.5s46.667 -15 74 -15c22 0 43.667 3.66699 65 11s40.333 16.333 57 27l10 -37v0z" />
    <glyph glyph-name="d" unicode="d" horiz-adv-x="502" 
d="M388 674l40.9971 12.998v-687h-41v45c-14 -13.333 -33 -25.833 -57 -37.5s-51 -17.5 -81 -17.5c-29.333 0 -56.666 5.5 -81.999 16.5s-47.166 26.667 -65.499 47s-32.666 44.833 -42.999 73.5s-15.5 60.334 -15.5 95.001c0 36.667 5.5 69.834 16.5 99.501
s26.333 55 46 76s42.834 37.167 69.501 48.5s56 17 88 17c22.667 0 45.167 -3.5 67.5 -10.5s41.166 -15.167 56.499 -24.5v246zM387.997 387.998c-14.667 11.333 -33.6689 20.501 -57.002 27.501s-46.666 10.5 -69.999 10.5c-26 0 -49.667 -4.83301 -71 -14.5
s-39.666 -23.5 -54.999 -41.5s-27.333 -39.5 -36 -64.5s-13 -52.833 -13 -83.5c0 -28 4 -53.833 12 -77.5s19.167 -44.334 33.5 -62.001s31.833 -31.5 52.5 -41.5s43.667 -15 69 -15s49.833 5.66699 73.5 17s44.167 25.333 61.5 42v303v0z" />
    <glyph glyph-name="e" unicode="e" horiz-adv-x="460" 
d="M86 229c0 -28.667 3.83301 -55.335 11.5 -80.002s18.834 -46 33.501 -64s32.5 -32 53.5 -42s44.5 -15 70.5 -15s49.667 3.66699 71 11s40.333 16.333 57 27l9 -37c-18 -11.333 -38.833 -20.666 -62.5 -27.999s-49.5 -11 -77.5 -11c-31.333 0 -59.833 5.83301 -85.5 17.5
s-47.5 28 -65.5 49s-32 46 -42 75s-15 60.833 -15 95.5s5 66.667 15 96s24.167 54.833 42.5 76.5s40 38.5 65 50.5s52.5 18 82.5 18c22.667 0 43.667 -3.66699 63 -11s36.166 -17.833 50.499 -31.5s25.5 -30.167 33.5 -49.5s12 -41.333 12 -66
c0 -11.333 -1 -23.666 -3 -36.999s-4.33301 -25 -7 -35l-312 -2v-7zM363 272.999c2 11.333 3 22.667 3 34c0 36 -10.5 65.5 -31.5 88.5s-49.833 34.5 -86.5 34.5c-42.667 0 -78 -14.5 -106 -43.5s-45.667 -66.833 -53 -113.5h274z" />
    <glyph glyph-name="f" unicode="f" horiz-adv-x="279" 
d="M273 641c-10.667 5.33301 -21.166 9.66602 -31.499 12.999s-22.5 5 -36.5 5c-55.333 0 -83 -38.667 -83 -116v-90h142l-3 -35h-139v-418h-41v416l-66 4l3 26l62 8l1 87c0.666992 28.667 4.16699 52.834 10.5 72.501s15.166 35.667 26.499 48s24.5 21.166 39.5 26.499
s31.167 8 48.5 8c14.667 0 28.667 -1.66699 42 -5s25 -7.66602 35 -12.999z" />
    <glyph glyph-name="g" unicode="g" horiz-adv-x="460" 
d="M87 297c0 -18 2.83301 -35 8.5 -51s14 -30.167 25 -42.5s24.5 -22 40.5 -29s34.333 -10.5 55 -10.5c40 0 71.667 12.833 95 38.5s35 57.5 35 95.5s-11 70.167 -33 96.5s-54 39.5 -96 39.5c-41.333 0 -73.333 -13 -96 -39s-34 -58.667 -34 -98zM155 -4
c-32 -8 -57.998 -22.167 -77.998 -42.5s-30 -41.833 -30 -64.5c0 -30 14.333 -54.667 43 -74s70 -29 124 -29c26 0 50.667 3.33301 74 10s43.666 15.5 60.999 26.5s31.166 24 41.499 39s15.5 31.167 15.5 48.5c0 30 -12.333 51.5 -37 64.5s-59.667 19.5 -105 19.5h-54.5
c-20.333 0 -38.5 0.666992 -54.5 2zM110.002 6c-20 5.33301 -36.001 13.6689 -48.001 25.002s-18 25.666 -18 42.999c0 19.333 7.66699 36.166 23 50.499s32.333 25.833 51 34.5c-19.333 13.333 -36 31.833 -50 55.5s-21 51.167 -21 82.5c0 26 4.5 49.667 13.5 71
s21.333 39.333 37 54s34 26 55 34s43.5 12 67.5 12c23.333 0 42.833 -2.66699 58.5 -8s29.167 -11.666 40.5 -18.999l136 8l3 -42l-114 5c13.333 -13.333 23.833 -30.5 31.5 -51.5s11.5 -41.167 11.5 -60.5c0 -26 -4.5 -49.5 -13.5 -70.5s-21.333 -38.667 -37 -53
s-34 -25.5 -55 -33.5s-43.833 -12 -68.5 -12c-13.333 0 -26.166 1.5 -38.499 4.5s-23.166 6.5 -32.499 10.5c-14.667 -7.33301 -27.834 -16 -39.501 -26s-17.5 -22.333 -17.5 -37c0 -15.333 7.5 -27.666 22.5 -36.999s41.833 -14 80.5 -14h76
c64.667 0 111 -10.833 139 -32.5s42 -49.834 42 -84.501c0 -25.333 -6.83301 -48 -20.5 -68s-31.5 -37 -53.5 -51s-47 -24.833 -75 -32.5s-56.667 -11.5 -86 -11.5c-31.333 0 -59.5 3.33301 -84.5 10s-46.167 16 -63.5 28s-30.5 26 -39.5 42s-13.5 33.667 -13.5 53
c0 13.333 2.66699 26.166 8 38.499s12.5 23.833 21.5 34.5s19.667 20.167 32 28.5s25.5 14.833 39.5 19.5z" />
    <glyph glyph-name="h" unicode="h" horiz-adv-x="492" 
d="M381 0v303.999c0 40.667 -8.66699 71.834 -26 93.501s-44.666 32.5 -81.999 32.5c-26 0 -52.5 -6.83301 -79.5 -20.5s-53.167 -33.167 -78.5 -58.5v-351h-41v674l41 13v-298c26.667 27.333 55 47.333 85 60s56 19 78 19c45.333 0 80.666 -13.167 105.999 -39.5
s38 -64.833 38 -115.5v-313h-41z" />
    <glyph glyph-name="i" unicode="i" horiz-adv-x="193" 
d="M126 599c0 -8 -2.66699 -15.333 -8 -22s-12.666 -10 -21.999 -10s-16.5 3.33301 -21.5 10s-7.5 14 -7.5 22c0 7.33301 2.5 14.166 7.5 20.499s12.167 9.5 21.5 9.5s16.666 -3.16699 21.999 -9.5s8 -13.166 8 -20.499zM76 0v455l41 13v-468h-41z" />
    <glyph glyph-name="j" unicode="j" horiz-adv-x="193" 
d="M126 599c0 -8 -2.66699 -15.333 -8 -22s-12.666 -10 -21.999 -10s-16.5 3.33301 -21.5 10s-7.5 14 -7.5 22c0 7.33301 2.5 14.166 7.5 20.499s12.167 9.5 21.5 9.5s16.666 -3.16699 21.999 -9.5s8 -13.166 8 -20.499zM-22 -222c19.333 10.667 35.333 21.667 48 33
s22.667 24 30 38s12.5 30 15.5 48s4.5 39 4.5 63v495l41 13v-514c0 -52 -8.5 -94 -25.5 -126s-45.167 -58.333 -84.5 -79z" />
    <glyph glyph-name="k" unicode="k" horiz-adv-x="412" 
d="M115 231v-231h-41v674l41 13v-442h2l222 213h53l-231 -220l232 -238h-54l-222 231h-2z" />
    <glyph glyph-name="l" unicode="l" horiz-adv-x="188" 
d="M74 0v674l41 13v-687h-41z" />
    <glyph glyph-name="m" unicode="m" horiz-adv-x="757" 
d="M646 0l-0.000976562 303.999c0 40.667 -8.66699 71.834 -26 93.501s-44.666 32.5 -81.999 32.5c-23.333 0 -47.166 -5.83301 -71.499 -17.5s-47.833 -27.834 -70.5 -48.501c3.33301 -14.667 5 -33.334 5 -56.001v-308h-41v304c0 40.667 -8.66699 71.834 -26 93.501
s-44.666 32.5 -81.999 32.5c-22.667 0 -45.667 -5.16699 -69 -15.5s-46 -25.166 -68 -44.499v-370h-41v455l41 13v-62c24.667 21.333 49.667 37 75 47s47.666 15 66.999 15c30.667 0 57 -6.33301 79 -19s38.667 -31.667 50 -57c26 26.667 53.333 46 82 58s53.667 18 75 18
c45.333 0 80.666 -13.167 105.999 -39.5s38 -64.833 38 -115.5v-313h-41z" />
    <glyph glyph-name="n" unicode="n" horiz-adv-x="492" 
d="M381 0v303.999c0 40.667 -8.66699 71.834 -26 93.501s-44.666 32.5 -81.999 32.5c-26 0 -52.5 -6.83301 -79.5 -20.5s-53.167 -33.167 -78.5 -58.5v-351h-41v455l41 13v-80c26.667 27.333 55 47.5 85 60.5s56 19.5 78 19.5c45.333 0 80.666 -13.167 105.999 -39.5
s38 -64.833 38 -115.5v-313h-41z" />
    <glyph glyph-name="o" unicode="o" horiz-adv-x="534" 
d="M490 231c0 -36 -5.83301 -68.833 -17.5 -98.5s-27.834 -55 -48.501 -76s-44.5 -37.333 -71.5 -49s-56.167 -17.5 -87.5 -17.5c-30.667 0 -59.5 5.5 -86.5 16.5s-50.5 26.833 -70.5 47.5s-35.667 45.667 -47 75s-17 62 -17 98s5.83301 68.833 17.5 98.5
s27.834 55 48.501 76s44.667 37.333 72 49s56.333 17.5 87 17.5c31.333 0 60.333 -5.5 87 -16.5s50 -26.833 70 -47.5s35.667 -45.667 47 -75s17 -62 17 -98zM449 229c0 31.333 -4.66602 59.5 -13.999 84.5s-22 46.167 -38 63.5s-35.167 30.666 -57.5 39.999
s-46.5 14 -72.5 14s-50.167 -5 -72.5 -15s-41.5 -24 -57.5 -42s-28.667 -39.333 -38 -64s-14 -51.667 -14 -81c0 -31.333 4.5 -59.5 13.5 -84.5s21.667 -46.167 38 -63.5s35.666 -30.666 57.999 -39.999s46.5 -14 72.5 -14s50.167 5 72.5 15s41.5 24 57.5 42
s28.667 39.333 38 64s14 51.667 14 81z" />
    <glyph glyph-name="p" unicode="p" horiz-adv-x="503" 
d="M115 408c14 13.333 33.0029 25.832 57.0029 37.499s51 17.5 81 17.5c29.333 0 56.666 -5.5 81.999 -16.5s47.166 -26.667 65.499 -47s32.666 -44.666 42.999 -72.999s15.5 -60.166 15.5 -95.499c0 -36.667 -5.5 -69.834 -16.5 -99.501s-26.333 -55 -46 -76
s-42.834 -37.167 -69.501 -48.5s-56 -17 -88 -17c-22.667 0 -45.167 3.5 -67.5 10.5s-41.166 15.167 -56.499 24.5v-258h-41v694l41 12v-65v0zM115.003 64.999c14.667 -11.333 33.6689 -20.5 57.002 -27.5s46.666 -10.5 69.999 -10.5c26 0 49.667 4.83301 71 14.5
s39.666 23.5 54.999 41.5s27.333 39.5 36 64.5s13 52.833 13 83.5c0 28 -4 53.833 -12 77.5s-19.167 44.167 -33.5 61.5s-31.833 31 -52.5 41s-43.667 15 -69 15s-49.833 -5.5 -73.5 -16.5s-44.167 -24.833 -61.5 -41.5v-303z" />
    <glyph glyph-name="q" unicode="q" horiz-adv-x="502" 
d="M388 -233l-0.00195312 277.998c-14 -13.333 -33 -25.833 -57 -37.5s-51 -17.5 -81 -17.5c-29.333 0 -56.666 5.5 -81.999 16.5s-47.166 26.667 -65.499 47s-32.666 44.833 -42.999 73.5s-15.5 60.334 -15.5 95.001c0 36.667 5.5 69.834 16.5 99.501s26.333 55 46 76
s42.834 37.167 69.501 48.5s56 17 88 17c23.333 0 46.166 -3.5 68.499 -10.5s41.166 -15.167 56.499 -24.5l40 40v-701h-41zM387.998 387.998c-14.667 11.333 -33.6689 20.5 -57.002 27.5s-46.666 10.5 -69.999 10.5c-26 0 -49.667 -4.83301 -71 -14.5
s-39.666 -23.5 -54.999 -41.5s-27.333 -39.5 -36 -64.5s-13 -52.833 -13 -83.5c0 -28 4 -53.833 12 -77.5s19.167 -44.167 33.5 -61.5s31.833 -31 52.5 -41s43.667 -15 69 -15s49.833 5.5 73.5 16.5s44.167 24.833 61.5 41.5v303v0z" />
    <glyph glyph-name="r" unicode="r" horiz-adv-x="330" 
d="M115 0l-41.001 -0.000976562v455l41 13v-114c13.333 34 32.333 61.5 57 82.5s52.667 31.5 84 31.5c14.667 0 28.5 -1.83301 41.5 -5.5s24.167 -8.16699 33.5 -13.5l-12 -37c-7.33301 4.66699 -16.666 8.83398 -27.999 12.501s-24.333 5.5 -39 5.5
c-26 0 -50.5 -10.667 -73.5 -32s-44.167 -58 -63.5 -110v-288z" />
    <glyph glyph-name="s" unicode="s" horiz-adv-x="372" 
d="M329 119c0 -20 -4.16895 -38.0068 -12.502 -54.0068s-19.5 -29.5 -33.5 -40.5s-30.333 -19.5 -49 -25.5s-38.667 -9 -60 -9c-26 0 -51.167 3.66699 -75.5 11s-45.5 16.666 -63.5 27.999l13 38c19.333 -12.667 39.666 -22.667 60.999 -30s43.666 -11 66.999 -11
c14.667 0 28.834 2 42.501 6s26 9.66699 37 17s19.833 16.5 26.5 27.5s10 23.833 10 38.5c0 16.667 -3.5 30.334 -10.5 41.001s-16.167 19.834 -27.5 27.501s-24.333 14 -39 19l-45 15.5c-15.333 5.33301 -30.666 11.333 -45.999 18s-29.166 14.834 -41.499 24.501
s-22.333 21.334 -30 35.001s-11.5 29.834 -11.5 48.501c0 20.667 3.83301 38.667 11.5 54s18 28.166 31 38.499s28.167 18.166 45.5 23.499s36 8 56 8c24 0 47.167 -3.16699 69.5 -9.5s42.5 -14.166 60.5 -23.499l-14 -37c-19.333 10.667 -38.833 19.167 -58.5 25.5
s-40.167 9.5 -61.5 9.5c-31.333 0 -56.333 -7.66699 -75 -23s-28 -35.666 -28 -60.999c0 -14.667 3.5 -27.167 10.5 -37.5s16 -19.166 27 -26.499s23.833 -13.5 38.5 -18.5l44 -15.5c16 -5.33301 31.667 -11.166 47 -17.499s29.333 -14.5 42 -24.5
s22.834 -22.167 30.501 -36.5s11.5 -32.166 11.5 -53.499z" />
    <glyph glyph-name="t" unicode="t" horiz-adv-x="319" 
d="M288 14c-15.333 -9.33301 -32.002 -16.499 -50.002 -21.499s-35.333 -7.5 -52 -7.5c-42.667 0 -72.5 12.667 -89.5 38s-24.833 61.333 -23.5 108l8 285l-63 4l3 26l61 8l3 109h40l-3 -110h163l-3 -35h-161l-8 -288c-1.33301 -38 3.83398 -65.5 15.501 -82.5
s31.167 -25.5 58.5 -25.5c16.667 0 32.834 2.66699 48.501 8s30.5 11.666 44.5 18.999l8 -35v0z" />
    <glyph glyph-name="u" unicode="u" horiz-adv-x="491" 
d="M111 458v-304c0 -40.667 8.66699 -71.834 26 -93.501s44.666 -32.5 81.999 -32.5c26 0 52.5 6.83301 79.5 20.5s53.167 33.167 78.5 58.5v351h41v-455l-41 -13v81c-26.667 -27.333 -55 -47.666 -85 -60.999s-56 -20 -78 -20c-45.333 0 -80.666 13.167 -105.999 39.5
s-38 64.833 -38 115.5v313h41z" />
    <glyph glyph-name="v" unicode="v" horiz-adv-x="406" 
d="M221 -1h-35l-181 459h44l156 -400l153 400h43z" />
    <glyph glyph-name="w" unicode="w" horiz-adv-x="640" 
d="M155 -1l-139 459h43l115 -391l134 391h36l132 -393l108 393h43l-134 -459h-35l-132 397l-138 -397h-33z" />
    <glyph glyph-name="x" unicode="x" horiz-adv-x="374" 
d="M320 0l-133 207l-134 -207h-46l159 236l-148 222h45l124 -192l124 192h44l-147 -220l159 -238h-47z" />
    <glyph glyph-name="y" unicode="y" horiz-adv-x="406" 
d="M228 15l-42.998 -116.999c-10 -26.667 -20.167 -48.834 -30.5 -66.501s-21 -31.667 -32 -42s-22.667 -17.5 -35 -21.5s-25.166 -6 -38.499 -6c-17.333 0 -32 1.66699 -44 5s-23.667 7.66602 -35 12.999l12 37c10.667 -5.33301 21.167 -9.66602 31.5 -12.999
s22.166 -5 35.499 -5c8.66699 0 17.167 1.5 25.5 4.5s16.666 8.66699 24.999 17s16.666 19.833 24.999 34.5s16.833 33.667 25.5 57l34 92l-179 454h44l156 -401l153 401h43z" />
    <glyph glyph-name="z" unicode="z" horiz-adv-x="374" 
d="M21 0v28l280 395h-271v35h320v-28l-280 -395h280v-35h-329z" />
    <glyph glyph-name="braceleft" unicode="{" horiz-adv-x="324" 
d="M309 -229c-34 2 -63.998 5.49707 -89.998 10.4971s-48 12.167 -66 21.5s-31.667 21.166 -41 35.499s-14 31.833 -14 52.5c0 21.333 2.83301 41.333 8.5 60s11.834 36.667 18.501 54s12.834 34.166 18.501 50.499s8.5 32.5 8.5 48.5c0 16.667 -2.16699 31 -6.5 43
s-11.833 22 -22.5 30s-24.334 14.333 -41.001 19s-37.667 8 -63 10l-3 26l3 26c50 4 84.667 13.333 104 28s29 39 29 73c0 16.667 -2.83301 33.167 -8.5 49.5s-11.834 33.166 -18.501 50.499s-12.834 35.333 -18.501 54s-8.5 38.334 -8.5 59.001
c0 41.333 18.333 70.666 55 87.999s88.667 28 156 32v-34c-62.667 -4.66699 -106.5 -13.334 -131.5 -26.001s-37.5 -31 -37.5 -55c0 -16 2.83301 -33.167 8.5 -51.5s11.834 -37 18.501 -56l18.5 -55c5.66699 -17.667 8.5 -34.167 8.5 -49.5s-2.5 -30.666 -7.5 -45.999
s-13.167 -29.166 -24.5 -41.499s-26 -22.666 -44 -30.999s-39.667 -13.166 -65 -14.499v-1c25.333 -1.33301 47 -6.16602 65 -14.499s32.667 -18.666 44 -30.999s19.5 -26.166 24.5 -41.499s7.5 -31 7.5 -47c0 -14.667 -2.83301 -31 -8.5 -49s-11.834 -36.167 -18.501 -54.5
s-12.834 -36.5 -18.501 -54.5s-8.5 -34.667 -8.5 -50c0 -25.333 12.5 -44.5 37.5 -57.5s68.833 -21.833 131.5 -26.5v-34v0z" />
    <glyph glyph-name="bar" unicode="|" horiz-adv-x="268" 
d="M113 702h42v-901h-42v901z" />
    <glyph glyph-name="braceright" unicode="}" horiz-adv-x="324" 
d="M305 204c-50 -4 -84.832 -13.3281 -104.499 -27.9951s-29.5 -39 -29.5 -73c0 -16.667 2.83301 -33.167 8.5 -49.5s12 -33.166 19 -50.499s13.333 -35.333 19 -54s8.5 -38.334 8.5 -59.001s-4.66699 -38.167 -14 -52.5s-23 -26.166 -41 -35.499s-40.167 -16.5 -66.5 -21.5
s-56.5 -8.5 -90.5 -10.5v34c31.333 2.66699 57.833 6 79.5 10s39.167 9.33301 52.5 16s23 14.5 29 23.5s9 19.5 9 31.5c0 16 -2.83301 33.167 -8.5 51.5s-11.834 37 -18.501 56s-12.834 37.5 -18.501 55.5s-8.5 34.333 -8.5 49c0 15.333 2.5 30.666 7.5 45.999
s13.167 29.166 24.5 41.499s26 22.666 44 30.999s39.667 13.166 65 14.499v1c-25.333 1.33301 -47 6.16602 -65 14.499s-32.667 18.666 -44 30.999s-19.5 26.166 -24.5 41.499s-7.5 31 -7.5 47c0 15.333 2.83301 31.833 8.5 49.5s11.834 35.834 18.501 54.501
s12.834 37 18.501 55s8.5 34.667 8.5 50c0 12.667 -3 23.667 -9 33s-15.667 17.166 -29 23.499s-30.833 11.666 -52.5 15.999s-48.167 7.83301 -79.5 10.5v34c34 -2 64.167 -5.5 90.5 -10.5s48.5 -12.167 66.5 -21.5s31.667 -21.166 41 -35.499s14 -31.833 14 -52.5
c0 -21.333 -2.83301 -41.333 -8.5 -60s-12 -36.667 -19 -54s-13.333 -34.166 -19 -50.499s-8.5 -32.5 -8.5 -48.5c0 -16.667 2.33301 -31 7 -43s12.167 -22 22.5 -30s24.166 -14.333 41.499 -19s38.333 -8 63 -10l2 -26z" />
    <glyph glyph-name="asciitilde" unicode="~" horiz-adv-x="359" 
d="M353 279c-12.667 -69.333 -39.668 -104 -81.001 -104c-13.333 0 -26.666 3.83301 -39.999 11.5s-26.5 16.167 -39.5 25.5l-36.5 25.5c-11.333 7.66699 -21.666 11.5 -30.999 11.5c-11.333 0 -20.5 -4.33301 -27.5 -13s-15.5 -27.334 -25.5 -56.001h-25
c12.667 69.333 39.667 104 81 104c13.333 0 26.833 -3.83301 40.5 -11.5s27 -16.167 40 -25.5l36.5 -25.5c11.333 -7.66699 21.333 -11.5 30 -11.5c10.667 0 19.667 4.33301 27 13s15.666 27.334 24.999 56.001h26v0z" />
    <glyph glyph-name="nonbreakingspace" unicode="&#xa0;" horiz-adv-x="119" 
 />
    <glyph glyph-name="exclamdown" unicode="&#xa1;" horiz-adv-x="245" 
d="M87 597c0 10 3.33301 18.833 10 26.5s15.334 11.5 26.001 11.5s19.167 -3.83301 25.5 -11.5s9.5 -16.5 9.5 -26.5c0 -9.33301 -3.16699 -17.666 -9.5 -24.999s-14.833 -11 -25.5 -11s-19.334 3.66699 -26.001 11s-10 15.666 -10 24.999zM147 -22h-50l13 470h23z" />
    <glyph glyph-name="cent" unicode="&#xa2;" horiz-adv-x="445" 
d="M310 464c33.333 -6 63.001 -17.333 89.001 -34l-10 -37c-11.333 7.33301 -24.166 13.833 -38.499 19.5s-29.5 10.167 -45.5 13.5l-54 -398h15c22 0 43.667 3.66699 65 11s40.333 16.333 57 27l10 -37c-18.667 -11.333 -39.334 -20.666 -62.001 -27.999s-46 -11 -70 -11
h-10c-3.33301 0 -6.66602 0.333008 -9.99902 1c0 -0.666992 -0.666992 -6.83398 -2 -18.501s-3 -24.5 -5 -38.5c-2.66699 -16.667 -5.33398 -35.667 -8.00098 -57h-37l8 60l5.5 41c1.66699 12 2.5 18.333 2.5 19c-24.667 6 -47.334 15.667 -68.001 29s-38.167 30 -52.5 50
s-25.5 42.833 -33.5 68.5s-12 53.167 -12 82.5c0 34.667 5.33301 66.667 16 96s25.667 54.833 45 76.5s42.333 38.5 69 50.5s55.667 18 87 18h12l13 93h37l-13 -97v0zM261.001 430c-26 0 -49.668 -5.00098 -71.001 -15.001s-39.666 -24 -54.999 -42
s-27.333 -39.167 -36 -63.5s-13 -51.166 -13 -80.499c0 -49.333 11.5 -91.333 34.5 -126s54.5 -57.667 94.5 -69l53 396h-7z" />
    <glyph glyph-name="sterling" unicode="&#xa3;" horiz-adv-x="479" 
d="M131 317c-1.33301 21.333 -2.32812 41.8301 -2.99512 61.4971s-1 37.834 -1 54.501c0 64 14.333 114.667 43 152s73.334 56 134.001 56c46.667 0 88.334 -10.667 125.001 -32l-12 -36c-16.667 8.66699 -33.834 15.834 -51.501 21.501s-39.167 8.5 -64.5 8.5
c-24.667 0 -45.5 -4 -62.5 -12s-30.833 -19 -41.5 -33s-18.334 -30.833 -23.001 -50.5s-7 -41.5 -7 -65.5c0 -16.667 0.333008 -35.5 1 -56.5s1.66699 -43.833 3 -68.5h195l-3 -37h-190c0.666992 -17.333 1.16699 -35.166 1.5 -53.499s0.5 -37.166 0.5 -56.499
c0 -13.333 -0.5 -25.833 -1.5 -37.5s-3.16699 -22.5 -6.5 -32.5c11.333 -10.667 24.166 -20.834 38.499 -30.501s28.833 -18 43.5 -25s28.667 -12.5 42 -16.5s25 -6 35 -6c25.333 0 47.666 7.5 66.999 22.5s34 43.833 44 86.5l30 -7
c-6.66699 -45.333 -22.334 -79.666 -47.001 -102.999s-54 -35 -88 -35c-30 0 -60.333 7.5 -91 22.5s-59.334 35.167 -86.001 60.5c-10 -18.667 -25.167 -34.834 -45.5 -48.501s-48.5 -26.167 -84.5 -37.5l-9 35c23.333 8 42.666 16.5 57.999 25.5s27.5 19.333 36.5 31
s15.333 25 19 40s5.5 32.167 5.5 51.5c0 37.333 -1 75.333 -3 114h-94l-3 37h96v0z" />
    <glyph glyph-name="currency" unicode="&#xa4;" horiz-adv-x="506" 
d="M39 375l-2.99902 34.998h74c11.333 72 36 128.5 74 169.5s89 61.5 153 61.5c28 0 53.333 -2.66699 76 -8s42.667 -12.666 60 -21.999l-9 -37c-18 9.33301 -37.667 16.833 -59 22.5s-44 8.5 -68 8.5c-53.333 0 -95.5 -16.333 -126.5 -49s-51.167 -81.334 -60.5 -146.001
h243l-3 -35h-244c-0.666992 -9.33301 -1.16699 -19 -1.5 -29s-0.5 -20.333 -0.5 -31c0 -11.333 0.166992 -22.166 0.5 -32.499s0.833008 -20.5 1.5 -30.5h214l3 -35h-213c9.33301 -64.667 29 -113.5 59 -146.5s71.333 -49.5 124 -49.5c27.333 0 51.666 2.5 72.999 7.5
s41 11.833 59 20.5l6 -36c-18 -8.66699 -38.333 -15.5 -61 -20.5s-49 -7.5 -79 -7.5c-64.667 0 -115.167 20.333 -151.5 61s-59.833 97.667 -70.5 171h-73l3 35h66c-0.666992 9.33301 -1.16699 18.833 -1.5 28.5s-0.5 19.834 -0.5 30.501c0 22.667 1 44 3 64h-67z" />
    <glyph glyph-name="yen" unicode="&#xa5;" horiz-adv-x="547" 
d="M58 265l-3 36h159l-200 324h46l195 -324l193 324h45l-100 -162l-36.5 -59.5l-31.5 -52l-23 -36.5l-9 -14h159l-3 -36h-174v-98h174l3 -36h-177v-131h-42v131h-178l3 36h175v98h-175z" />
    <glyph glyph-name="brokenbar" unicode="&#xa6;" horiz-adv-x="375" 
d="M307 180c0 -126.667 -57.001 -190 -171.001 -190c-22.667 0 -45.167 3.5 -67.5 10.5s-40.166 14.5 -53.499 22.5l8 42c16.667 -11.333 35.5 -20.5 56.5 -27.5s40.5 -10.5 58.5 -10.5c84.667 0 127 52 127 156v442h42v-445v0z" />
    <glyph glyph-name="section" unicode="&#xa7;" horiz-adv-x="468" 
d="M447 283c0 -16.667 -3.32812 -31.832 -9.99512 -45.499s-15.667 -26 -27 -37s-24.666 -20.333 -39.999 -28s-32 -13.834 -50 -18.501c17.333 -10 31.333 -22.333 42 -37s16 -33 16 -55c0 -20 -4.33301 -38 -13 -54s-20.334 -29.5 -35.001 -40.5s-31.5 -19.333 -50.5 -25
s-39.167 -8.5 -60.5 -8.5c-26 0 -51.167 3.66699 -75.5 11s-45.5 16.666 -63.5 27.999l13 36c19.333 -12 39.666 -21.5 60.999 -28.5s43.666 -10.5 66.999 -10.5c15.333 0 30 2 44 6s26.667 9.83301 38 17.5s20.333 16.834 27 27.501s10 23 10 37
c0 15.333 -4.33301 28.5 -13 39.5s-20 20.5 -34 28.5s-30.167 15 -48.5 21l-56.5 18c-20.667 6 -41 12.667 -61 20s-37.833 16 -53.5 26s-28.334 22 -38.001 36s-14.5 31 -14.5 51c0 16.667 3.5 32.167 10.5 46.5s16.5 27 28.5 38s26 20.5 42 28.5s33.333 14 52 18
c-19.333 10 -34.833 22 -46.5 36s-17.5 32 -17.5 54c0 21.333 4 39.666 12 54.999s18.833 28 32.5 38s29.5 17.5 47.5 22.5s36.667 7.5 56 7.5c24 0 47.167 -3.16699 69.5 -9.5s42.5 -14.166 60.5 -23.499l-14 -35c-19.333 10 -38.833 18 -58.5 24s-40.167 9 -61.5 9
c-31.333 0 -56.833 -7.5 -76.5 -22.5s-29.5 -35.167 -29.5 -60.5c0 -14 4.16699 -26 12.5 -36s19.166 -18.667 32.499 -26s28.833 -13.833 46.5 -19.5l54.5 -17.5c21.333 -6 42.166 -12.667 62.499 -20s38.833 -16.333 55.5 -27s30 -23.667 40 -39s15 -34 15 -56z
M409.005 278.002c0 22 -7.16699 39.666 -21.5 52.999s-32.333 24.5 -54 33.5s-45.5 17.167 -71.5 24.5s-50.667 15.333 -74 24c-14 -4.66699 -28.5 -10.334 -43.5 -17.001s-28.833 -14.5 -41.5 -23.5s-23.167 -19.167 -31.5 -30.5s-12.5 -24 -12.5 -38
c0 -20.667 7.5 -37.5 22.5 -50.5s34 -24 57 -33s48 -17.167 75 -24.5s52.5 -16 76.5 -26c13.333 4.66699 27 10.334 41 17.001s26.833 14.334 38.5 23.001s21.167 18.667 28.5 30s11 24 11 38z" />
    <glyph glyph-name="dieresis" unicode="&#xa8;" 
d="M325 599c0 -9.33301 -3.16699 -17.833 -9.5 -25.5s-14.5 -11.5 -24.5 -11.5c-10.667 0 -19.334 3.83301 -26.001 11.5s-10 16.167 -10 25.5s3.33301 17.5 10 24.5s15.334 10.5 26.001 10.5c10 0 18.167 -3.5 24.5 -10.5s9.5 -15.167 9.5 -24.5zM144 599
c0 -9.33301 -3.16699 -17.833 -9.5 -25.5s-14.833 -11.5 -25.5 -11.5s-19 3.83301 -25 11.5s-9 16.167 -9 25.5s3 17.5 9 24.5s14.333 10.5 25 10.5s19.167 -3.5 25.5 -10.5s9.5 -15.167 9.5 -24.5z" />
    <glyph glyph-name="copyright" unicode="&#xa9;" horiz-adv-x="731" 
d="M366 -16c-45.333 0 -87.833 8.66699 -127.5 26s-74.334 40.666 -104.001 69.999s-53 64 -70 104s-25.5 82.333 -25.5 127c0 45.333 8.5 87.833 25.5 127.5s40.333 74.334 70 104.001s64.334 53.167 104.001 70.5s82.167 26 127.5 26s87.833 -8.66699 127.5 -26
s74.334 -40.833 104.001 -70.5s53 -64.334 70 -104.001s25.5 -82.167 25.5 -127.5c0 -44.667 -8.5 -87 -25.5 -127s-40.333 -74.667 -70 -104s-64.334 -52.666 -104.001 -69.999s-82.167 -26 -127.5 -26zM666 312c0 41.333 -7.83301 80.166 -23.5 116.499
s-37 68.166 -64 95.499s-58.833 49 -95.5 65s-75.667 24 -117 24s-80.166 -8 -116.499 -24s-68 -37.667 -95 -65s-48.333 -59.166 -64 -95.499s-23.5 -75.166 -23.5 -116.499c0 -40.667 7.83301 -79.334 23.5 -116.001s37 -68.5 64 -95.5s58.667 -48.5 95 -64.5
s75.166 -24 116.499 -24s80.333 8 117 24s68.5 37.5 95.5 64.5s48.333 58.833 64 95.5s23.5 75.334 23.5 116.001zM474 431c-29.333 18.667 -61.3281 27.999 -95.9951 27.999c-38.667 0 -70.334 -12.833 -95.001 -38.5s-37 -62.167 -37 -109.5c0 -45.333 12 -81.333 36 -108
s56 -40 96 -40c19.333 0 37.5 3 54.5 9s31.833 13.667 44.5 23l7 -39c-13.333 -9.33301 -29.333 -16.5 -48 -21.5s-38.334 -7.5 -59.001 -7.5c-52 0 -93.667 16.333 -125 49s-47 77.334 -47 134.001c0 28 4.16699 53.333 12.5 76s20.166 42.167 35.499 58.5
s33.666 28.833 54.999 37.5s44.666 13 69.999 13c21.333 0 41.5 -2.66699 60.5 -8s35.167 -12.333 48.5 -21z" />
    <glyph glyph-name="ordfeminine" unicode="&#xaa;" horiz-adv-x="328" 
d="M273 252c-14 10.667 -23.6631 28.9961 -28.9961 54.9961h-1c-5.33301 -6 -12.333 -12.333 -21 -19s-18.334 -12.667 -29.001 -18s-21.834 -9.66602 -33.501 -12.999s-23.167 -5 -34.5 -5c-32 0 -56.833 9.83301 -74.5 29.5s-26.5 42.5 -26.5 68.5c0 38 17 67.833 51 89.5
s89 35.167 165 40.5v24c0 30.667 -6 54.334 -18 71.001s-34 25 -66 25c-22 0 -42.833 -4.66699 -62.5 -14s-36.834 -19.666 -51.501 -30.999l-16 29c16.667 12.667 36.5 24.334 59.5 35.001s47.167 16 72.5 16c35.333 0 63.666 -9.66699 84.999 -29s32 -52.333 32 -99v-160
c0 -21.333 3.5 -39 10.5 -53s15.167 -25.667 24.5 -35zM240.004 450.996c-34.667 -2.66699 -63.499 -7.16797 -86.499 -13.501s-41.5 -13.666 -55.5 -21.999s-24 -17.833 -30 -28.5s-9 -22 -9 -34c0 -21.333 7.16699 -37.833 21.5 -49.5s31.166 -17.5 50.499 -17.5
c18 0 37.333 4.66699 58 14s37.667 21.333 51 36v115z" />
    <glyph glyph-name="guillemotleft" unicode="&#xab;" horiz-adv-x="566" 
d="M516 28l-228 188v36l228 188l8 -35l-199 -170v-1l199 -171zM248 38l-217 179v34l217 179l8 -35l-188 -160v-1l188 -161z" />
    <glyph glyph-name="logicalnot" unicode="&#xac;" horiz-adv-x="502" 
d="M388 388c-14.667 11.333 -33.6689 20.5 -57.002 27.5s-46.666 10.5 -69.999 10.5c-26 0 -49.667 -4.83301 -71 -14.5s-39.666 -23.5 -54.999 -41.5s-27.333 -39.5 -36 -64.5s-13 -52.833 -13 -83.5c0 -28 4 -53.833 12 -77.5s19.167 -44.167 33.5 -61.5
s31.833 -31 52.5 -41s43.667 -15 69 -15s49.833 5.5 73.5 16.5s44.167 24.833 61.5 41.5v303v0zM249.998 -10c-29.333 0 -56.6709 5.49902 -82.0039 16.499s-47.166 26.667 -65.499 47s-32.666 44.833 -42.999 73.5s-15.5 60.334 -15.5 95.001
c0 36.667 5.5 69.834 16.5 99.501s26.333 55 46 76s42.834 37.167 69.501 48.5s56 17 88 17c23.333 0 46.166 -3.5 68.499 -10.5s41.166 -15.167 56.499 -24.5l40 40l-1 -397c0 -14 2.83301 -25.667 8.5 -35s18.834 -13.666 39.501 -12.999l-3 -31
c-14 -0.666992 -25.667 0.666016 -35 3.99902s-17 7.66602 -23 12.999s-10.667 11.833 -14 19.5s-5.66602 15.5 -6.99902 23.5c-17.333 -15.333 -38.166 -29.5 -62.499 -42.5s-51.5 -19.5 -81.5 -19.5z" />
    <glyph glyph-name="registered" unicode="&#xae;" horiz-adv-x="731" 
d="M366 -16c-45.333 0 -87.833 8.66699 -127.5 26s-74.334 40.666 -104.001 69.999s-53 64 -70 104s-25.5 82.333 -25.5 127c0 45.333 8.5 87.833 25.5 127.5s40.333 74.334 70 104.001s64.334 53.167 104.001 70.5s82.167 26 127.5 26s87.833 -8.66699 127.5 -26
s74.334 -40.833 104.001 -70.5s53 -64.334 70 -104.001s25.5 -82.167 25.5 -127.5c0 -44.667 -8.5 -87 -25.5 -127s-40.333 -74.667 -70 -104s-64.334 -52.666 -104.001 -69.999s-82.167 -26 -127.5 -26zM666 312c0 41.333 -7.83301 80.166 -23.5 116.499
s-37 68.166 -64 95.499s-58.833 49 -95.5 65s-75.667 24 -117 24s-80.166 -8 -116.499 -24s-68 -37.667 -95 -65s-48.333 -59.166 -64 -95.499s-23.5 -75.166 -23.5 -116.499c0 -40.667 7.83301 -79.334 23.5 -116.001s37 -68.5 64 -95.5s58.667 -48.5 95 -64.5
s75.166 -24 116.499 -24s80.333 8 117 24s68.5 37.5 95.5 64.5s48.333 58.833 64 95.5s23.5 75.334 23.5 116.001zM294 138h-38v354h100c45.333 0 79 -9.5 101 -28.5s33 -45.167 33 -78.5c0 -26 -6.83301 -47.333 -20.5 -64s-31.167 -29 -52.5 -37l92 -146h-45l-85 137
l-85 -5v-132zM358 306c30 1.33301 53.333 8.66797 70 22.001s25 31.666 25 54.999c0 50 -33.333 75 -100 75h-60v-155z" />
    <glyph glyph-name="macron" unicode="&#xaf;" 
d="M84 533l3 38h229l3 -38h-235z" />
    <glyph glyph-name="degree" unicode="&#xb0;" horiz-adv-x="339" 
d="M301 505c0 -18 -3 -35 -9 -51s-14.667 -30 -26 -42s-25.166 -21.667 -41.499 -29s-34.833 -11 -55.5 -11c-20 0 -38.167 3.66699 -54.5 11s-30.333 17 -42 29s-20.5 26 -26.5 42s-9 33 -9 51s3 35.167 9 51.5s14.833 30.666 26.5 42.999s25.667 22 42 29
s34.5 10.5 54.5 10.5c20.667 0 39.167 -3.5 55.5 -10.5s30.166 -16.667 41.499 -29s20 -26.666 26 -42.999s9 -33.5 9 -51.5zM268 505c0 28 -8.66699 52 -26 72s-41.666 30 -72.999 30s-55.666 -10 -72.999 -30s-26 -44 -26 -72c0 -27.333 8.66699 -51 26 -71
s41.666 -30 72.999 -30s55.666 10 72.999 30s26 43.667 26 71z" />
    <glyph glyph-name="plusminus" unicode="&#xb1;" horiz-adv-x="731" 
d="M366 -16c-45.333 0 -87.833 8.66699 -127.5 26s-74.334 40.666 -104.001 69.999s-53 64 -70 104s-25.5 82.333 -25.5 127c0 45.333 8.5 87.833 25.5 127.5s40.333 74.334 70 104.001s64.334 53.167 104.001 70.5s82.167 26 127.5 26s87.833 -8.66699 127.5 -26
s74.334 -40.833 104.001 -70.5s53 -64.334 70 -104.001s25.5 -82.167 25.5 -127.5c0 -44.667 -8.5 -87 -25.5 -127s-40.333 -74.667 -70 -104s-64.334 -52.666 -104.001 -69.999s-82.167 -26 -127.5 -26zM666 312c0 41.333 -7.83301 80.166 -23.5 116.499
s-37 68.166 -64 95.499s-58.833 49 -95.5 65s-75.667 24 -117 24s-80.166 -8 -116.499 -24s-68 -37.667 -95 -65s-48.333 -59.166 -64 -95.499s-23.5 -75.166 -23.5 -116.499c0 -40.667 7.83301 -79.334 23.5 -116.001s37 -68.5 64 -95.5s58.667 -48.5 95 -64.5
s75.166 -24 116.499 -24s80.333 8 117 24s68.5 37.5 95.5 64.5s48.333 58.833 64 95.5s23.5 75.334 23.5 116.001zM509 371c0 -39.333 -12.833 -68.834 -38.5 -88.501s-60.834 -29.5 -105.501 -29.5h-54v-125h-38v354h98c46.667 0 81.334 -10.167 104.001 -30.5
s34 -47.166 34 -80.499zM471 369.999c0 25.333 -8.66699 44.667 -26 58s-42.333 20 -75 20h-59v-161h57c68.667 0 103 27.667 103 83z" />
    <glyph glyph-name="acute" unicode="&#xb4;" horiz-adv-x="399" 
d="M170 515h-31l131 177h58z" />
    <glyph glyph-name="mu" unicode="&#xb5;" horiz-adv-x="502" 
d="M429 -13c0 -40 -4.50098 -74.1699 -13.501 -102.503s-21.833 -51.666 -38.5 -69.999s-36.834 -31.666 -60.501 -39.999s-49.834 -12.5 -78.501 -12.5c-32.667 0 -60 2.66699 -82 8s-41.667 11.666 -59 18.999l10 38c15.333 -7.33301 33.5 -13.833 54.5 -19.5
s46.5 -8.5 76.5 -8.5c22.667 0 43.334 3.33301 62.001 10s34.5 17.5 47.5 32.5s23 34.5 30 58.5s10.5 53.333 10.5 88v57c-14 -13.333 -33 -25.833 -57 -37.5s-51 -17.5 -81 -17.5c-29.333 0 -56.666 5.5 -81.999 16.5s-47.166 26.667 -65.499 47
s-32.666 44.833 -42.999 73.5s-15.5 60.334 -15.5 95.001c0 36.667 5.5 69.834 16.5 99.501s26.333 55 46 76s42.834 37.167 69.501 48.5s56 17 88 17c23.333 0 46.166 -3.5 68.499 -10.5s41.166 -15.167 56.499 -24.5l40 40v-481v0zM387.999 387.997
c-14.667 11.333 -33.6689 20.5 -57.002 27.5s-46.666 10.5 -69.999 10.5c-26 0 -49.667 -4.83301 -71 -14.5s-39.666 -23.5 -54.999 -41.5s-27.333 -39.5 -36 -64.5s-13 -52.833 -13 -83.5c0 -28 4 -53.833 12 -77.5s19.167 -44.167 33.5 -61.5s31.833 -31 52.5 -41
s43.667 -15 69 -15s49.833 5.5 73.5 16.5s44.167 24.833 61.5 41.5v303z" />
    <glyph glyph-name="paragraph" unicode="&#xb6;" horiz-adv-x="504" 
d="M370 265c-4.66699 -1.33301 -10.8369 -2.66699 -18.5039 -4s-15.667 -2.5 -24 -3.5s-16.666 -1.83301 -24.999 -2.5s-15.5 -1 -21.5 -1c-39.333 0 -73.666 4.66699 -102.999 14s-53.666 22.166 -72.999 38.499s-33.666 35.5 -42.999 57.5s-14 46 -14 72
c0 31.333 5.5 58.833 16.5 82.5s26.5 43.334 46.5 59.001s43.667 27.5 71 35.5s57.333 12 90 12h138v-689h-40v329v0z" />
    <glyph glyph-name="periodcentered" unicode="&#xb7;" horiz-adv-x="153" 
d="M112 229c0 -10 -3.33301 -18.833 -10 -26.5s-15.334 -11.5 -26.001 -11.5s-19.167 3.83301 -25.5 11.5s-9.5 16.5 -9.5 26.5c0 9.33301 3.16699 17.666 9.5 24.999s14.833 11 25.5 11s19.334 -3.66699 26.001 -11s10 -15.666 10 -24.999z" />
    <glyph glyph-name="cedilla" unicode="&#xb8;" 
d="M186 -67c16 1.33301 31.5 0.667969 46.5 -1.99902s28 -7.5 39 -14.5s19.833 -16 26.5 -27s10 -24.5 10 -40.5c0 -26 -13.333 -49.5 -40 -70.5s-65 -33.167 -115 -36.5l-4 30c40 2.66699 70.5 10.334 91.5 23.001s31.5 29.667 31.5 51c0 27.333 -13.667 44.666 -41 51.999
s-61 6.66602 -101 -2.00098l-3 16l109 108h40l-90 -87v0z" />
    <glyph glyph-name="ordmasculine" unicode="&#xba;" horiz-adv-x="426" 
d="M392 446c0 -28.667 -4.66699 -54.999 -14 -78.999s-22.166 -44.333 -38.499 -61s-35.5 -29.667 -57.5 -39s-45.333 -14 -70 -14s-47.834 4.5 -69.501 13.5s-40.5 21.667 -56.5 38s-28.5 36.333 -37.5 60s-13.5 49.834 -13.5 78.501c0 29.333 4.66699 55.666 14 78.999
s22.166 43.5 38.499 60.5s35.5 30 57.5 39s45.333 13.5 70 13.5s47.834 -4.33301 69.501 -13s40.5 -21.334 56.5 -38.001s28.5 -36.5 37.5 -59.5s13.5 -49.167 13.5 -78.5zM356 444.001c0 49.333 -13.3311 88.333 -39.998 117s-60.667 43 -102 43
c-20.667 0 -39.834 -4 -57.501 -12s-32.834 -19 -45.501 -33s-22.5 -30.833 -29.5 -50.5s-10.5 -41.167 -10.5 -64.5c0 -49.333 13.333 -88.166 40 -116.499s61 -42.5 103 -42.5c20.667 0 39.667 4 57 12s32.333 19 45 33s22.5 30.667 29.5 50s10.5 40.666 10.5 63.999z" />
    <glyph glyph-name="guillemotright" unicode="&#xbb;" horiz-adv-x="566" 
d="M318 38l-8 35l189 161v1l-189 160l8 35l218 -179v-34zM51 28l-8 35l198 171v1l-198 170l8 35l228 -188v-36z" />
    <glyph glyph-name="onequarter" unicode="&#xbc;" horiz-adv-x="560" 
d="M122 0h-40.998v417l-66 4l3 25l62 8l1 77c0.666992 28.667 4.16699 52.834 10.5 72.501s15.166 35.667 26.499 48s24.5 21.166 39.5 26.499s31.167 8 48.5 8c14.667 0 28.667 -1.66699 42 -5s25 -7.66602 35 -12.999l-10 -37
c-10.667 5.33301 -21.167 9.66602 -31.5 12.999s-22.5 5 -36.5 5c-55.333 0 -83 -38.667 -83 -116v-80l239 1l1 87c0.666992 28.667 4.16699 52.834 10.5 72.501s15.166 35.667 26.499 48s24.5 21.166 39.5 26.499s31.167 8 48.5 8c14.667 0 28.667 -1.66699 42 -5
s25 -7.66602 35 -12.999l-10 -37c-10.667 5.33301 -21.167 9.66602 -31.5 12.999s-22.5 5 -36.5 5c-55.333 0 -83 -38.667 -83 -116v-90h142l-3 -36h-139v-417h-41v417h-240v-417z" />
    <glyph glyph-name="onehalf" unicode="&#xbd;" horiz-adv-x="741" 
d="M122 0h-40.998v417l-66 4l3 25l62 8l1 77c0 28.667 3.33301 52.834 10 72.501s15.5 35.667 26.5 48s24.167 21.166 39.5 26.499s31.666 8 48.999 8c14.667 0 28.667 -1.66699 42 -5s25 -7.66602 35 -12.999l-10 -37c-10.667 5.33301 -21.167 9.66602 -31.5 12.999
s-22.5 5 -36.5 5c-55.333 0 -83 -38.667 -83 -116v-80l239 1l1 87c0.666992 28.667 4.16699 52.834 10.5 72.501s15.166 35.667 26.499 48s24.5 21.166 39.5 26.499s31.167 8 48.5 8c14.667 0 28.667 -1.66699 42 -5s25 -7.66602 35 -12.999l-10 -37
c-10.667 5.33301 -21.167 9.66602 -31.5 12.999s-22.5 5 -36.5 5c-55.333 0 -83 -38.667 -83 -116v-90h215l47 15v-468h-41v417h-221v-417h-41v417h-240v-417z" />
    <glyph glyph-name="threequarters" unicode="&#xbe;" horiz-adv-x="738" 
d="M624 0v674l41 13v-687h-41zM122 0h-40.998v417l-66 4l3 25l62 8l1 77c0.666992 28.667 4.16699 52.834 10.5 72.501s15.166 35.667 26.499 48s24.5 21.166 39.5 26.499s31.167 8 48.5 8c14.667 0 28.667 -1.66699 42 -5s25 -7.66602 35 -12.999l-10 -37
c-10.667 5.33301 -21.167 9.66602 -31.5 12.999s-22.5 5 -36.5 5c-55.333 0 -83 -38.667 -83 -116v-80l239 1l1 87c0.666992 28.667 4.16699 52.834 10.5 72.501s15.166 35.667 26.499 48s24.5 21.166 39.5 26.499s31.167 8 48.5 8c14.667 0 28.667 -1.66699 42 -5
s25 -7.66602 35 -12.999l-10 -37c-10.667 5.33301 -21.167 9.66602 -31.5 12.999s-22.5 5 -36.5 5c-55.333 0 -83 -38.667 -83 -116v-90h142l-3 -36h-139v-417h-41v417h-240v-417z" />
    <glyph glyph-name="questiondown" unicode="&#xbf;" horiz-adv-x="341" 
d="M41 151c0 20 2.83301 37.002 8.5 51.002s13.334 26.333 23.001 37s20.834 19.667 33.501 27s26 14.333 40 21c27.333 13.333 47.333 24.666 60 33.999s19 21.666 19 36.999c0 16 -5.66699 31 -17 45s-27.333 27.667 -48 41l25 10c20.667 -12.667 38.5 -27.167 53.5 -43.5
s22.5 -33.833 22.5 -52.5c0 -25.333 -8.16699 -45.5 -24.5 -60.5s-39.166 -28.833 -68.499 -41.5c-12.667 -5.33301 -24.5 -11 -35.5 -17s-20.5 -13 -28.5 -21s-14.167 -17.333 -18.5 -28s-6.5 -23.334 -6.5 -38.001c0 -16.667 3.33301 -33 10 -49s16 -30 28 -42
s26.667 -21.667 44 -29s36.666 -11 57.999 -11c13.333 0 25.166 0.833008 35.499 2.5s21.166 4.16699 32.499 7.5v-37c-8.66699 -2 -18.5 -4 -29.5 -6s-23.167 -3 -36.5 -3c-30 0 -56.333 5.16699 -79 15.5s-41.5 23.5 -56.5 39.5s-26.167 33.833 -33.5 53.5
s-11 38.834 -11 57.501zM161 596.002c0 10 3.33301 18.833 10 26.5s15.334 11.5 26.001 11.5s19.167 -3.83301 25.5 -11.5s9.5 -16.5 9.5 -26.5c0 -9.33301 -3.16699 -17.666 -9.5 -24.999s-14.833 -11 -25.5 -11s-19.334 3.66699 -26.001 11s-10 15.666 -10 24.999z" />
    <glyph glyph-name="Agrave" unicode="&#xc0;" horiz-adv-x="576" 
d="M551 0h-43l-73 195h-295l-73 -195h-42l239 625h52zM289 588l-134 -355h265zM269 682l-158 177h58l131 -177h-31z" />
    <glyph glyph-name="Aacute" unicode="&#xc1;" horiz-adv-x="576" 
d="M551 0h-43l-73 195h-295l-73 -195h-42l239 625h52zM289 588l-134 -355h265zM298 682h-31l131 177h58z" />
    <glyph glyph-name="Acircumflex" unicode="&#xc2;" horiz-adv-x="576" 
d="M551 0h-43l-73 195h-295l-73 -195h-42l239 625h52zM289 588l-134 -355h265zM392 682l-103 144h-2l-103 -144h-33l112 177h50l112 -177h-33z" />
    <glyph glyph-name="Atilde" unicode="&#xc3;" horiz-adv-x="576" 
d="M551 0h-43l-73 195h-295l-73 -195h-42l239 625h52zM289 588l-134 -355h265zM441 791c-12.667 -69.333 -39.668 -104 -81.001 -104c-13.333 0 -26.666 3.83301 -39.999 11.5s-26.5 16.167 -39.5 25.5l-36.5 25.5c-11.333 7.66699 -21.666 11.5 -30.999 11.5
c-11.333 0 -20.5 -4.33301 -27.5 -13s-15.5 -27.334 -25.5 -56.001h-25c12.667 69.333 39.667 104 81 104c13.333 0 26.833 -3.83301 40.5 -11.5s27 -16.167 40 -25.5l36.5 -25.5c11.333 -7.66699 21.333 -11.5 30 -11.5c10.667 0 19.667 4.33301 27 13
s15.666 27.334 24.999 56.001h26v0z" />
    <glyph glyph-name="Adieresis" unicode="&#xc4;" horiz-adv-x="576" 
d="M551 0h-43l-73 195h-295l-73 -195h-42l239 625h52zM289 588l-134 -355h265zM411 766c0 -9.33301 -3.16699 -17.833 -9.5 -25.5s-14.5 -11.5 -24.5 -11.5c-10.667 0 -19.334 3.83301 -26.001 11.5s-10 16.167 -10 25.5s3.33301 17.5 10 24.5s15.334 10.5 26.001 10.5
c10 0 18.167 -3.5 24.5 -10.5s9.5 -15.167 9.5 -24.5zM230 766c0 -9.33301 -3.16699 -17.833 -9.5 -25.5s-14.833 -11.5 -25.5 -11.5s-19 3.83301 -25 11.5s-9 16.167 -9 25.5s3 17.5 9 24.5s14.333 10.5 25 10.5s19.167 -3.5 25.5 -10.5s9.5 -15.167 9.5 -24.5z" />
    <glyph glyph-name="Aring" unicode="&#xc5;" horiz-adv-x="576" 
d="M290 588l-134 -355h265zM254 599c-24 6.66699 -42.667 18.5 -56 35.5s-20 36.167 -20 57.5c0 26.667 10 49.667 30 69s47.333 29 82 29s62 -9.66699 82 -29s30 -42.333 30 -69c0 -21.333 -6.66699 -40.5 -20 -57.5s-32 -28.833 -56 -35.5l225 -599h-42l-73 195h-295
l-74 -195h-42l115 300l41.5 110l36.5 96l26 67.5zM367 690c0 18.667 -7 35.167 -21 49.5s-32.667 21.5 -56 21.5s-42 -6.66699 -56 -20s-21 -29.333 -21 -48s7 -34.834 21 -48.501s32.667 -20.5 56 -20.5s42 6.33301 56 19s21 28.334 21 47.001z" />
    <glyph glyph-name="AE" unicode="&#xc6;" horiz-adv-x="803" 
d="M395 223v368l-214 -368h214zM52 0h-42l360 625h383v-38h-316v-255h264v-38h-264v-256h316v-38h-358v185h-236z" />
    <glyph glyph-name="Ccedilla" unicode="&#xc7;" horiz-adv-x="571" 
d="M316 -9c-41.333 2 -78.499 11.001 -111.499 27.001s-61 37.833 -84 65.5s-40.667 60.667 -53 99s-18.5 81.166 -18.5 128.499c0 49.333 7.16699 94 21.5 134s34.5 74 60.5 102s56.667 49.667 92 65s74 23 116 23c40.667 0 77 -5.33301 109 -16s58 -22 78 -34l-13 -36
c-22 14 -48.5 25.5 -79.5 34.5s-63.167 13.5 -96.5 13.5c-34 0 -65.833 -6.16699 -95.5 -18.5s-55.667 -30.666 -78 -54.999s-39.833 -54.333 -52.5 -90s-19 -76.5 -19 -122.5c0 -44 5.83301 -83.5 17.5 -118.5s28.334 -64.667 50.001 -89s47.667 -43 78 -56
s64.166 -19.5 101.499 -19.5c34 0 66 4.66699 96 14s55.667 21.666 77 36.999l10 -39c-19.333 -13.333 -43.333 -24.666 -72 -33.999s-60.334 -14.666 -95.001 -15.999l-59 -57c16 1.33301 31.5 0.666016 46.5 -2.00098s28 -7.5 39 -14.5s19.833 -16 26.5 -27
s10 -24.5 10 -40.5c0 -26 -13.333 -49.5 -40 -70.5s-65 -33.167 -115 -36.5l-4 30c40 2.66699 70.5 10.334 91.5 23.001s31.5 29.667 31.5 51c0 27.333 -13.667 44.666 -41 51.999s-61 6.66602 -101 -2.00098l-3 16l79 79v0z" />
    <glyph glyph-name="Egrave" unicode="&#xc8;" horiz-adv-x="490" 
d="M82 0v625h358v-38h-316v-256h264v-37h-264v-256h316v-38h-358zM252 682l-158 177h58l131 -177h-31z" />
    <glyph glyph-name="Eacute" unicode="&#xc9;" horiz-adv-x="490" 
d="M82 0v625h358v-38h-316v-256h264v-37h-264v-256h316v-38h-358zM243 682h-31l131 177h58z" />
    <glyph glyph-name="Ecircumflex" unicode="&#xca;" horiz-adv-x="490" 
d="M82 0v625h358v-38h-316v-256h264v-37h-264v-256h316v-38h-358zM370 682l-103 144h-2l-103 -144h-33l112 177h50l112 -177h-33z" />
    <glyph glyph-name="Edieresis" unicode="&#xcb;" horiz-adv-x="490" 
d="M82 0v625h358v-38h-316v-256h264v-37h-264v-256h316v-38h-358zM381 766c0 -9.33301 -3.16699 -17.833 -9.5 -25.5s-14.5 -11.5 -24.5 -11.5c-10.667 0 -19.334 3.83301 -26.001 11.5s-10 16.167 -10 25.5s3.33301 17.5 10 24.5s15.334 10.5 26.001 10.5
c10 0 18.167 -3.5 24.5 -10.5s9.5 -15.167 9.5 -24.5zM200 766c0 -9.33301 -3.16699 -17.833 -9.5 -25.5s-14.833 -11.5 -25.5 -11.5s-19 3.83301 -25 11.5s-9 16.167 -9 25.5s3 17.5 9 24.5s14.333 10.5 25 10.5s19.167 -3.5 25.5 -10.5s9.5 -15.167 9.5 -24.5z" />
    <glyph glyph-name="Igrave" unicode="&#xcc;" horiz-adv-x="208" 
d="M83 0v625h42v-625h-42zM93 682l-158 177h58l131 -177h-31z" />
    <glyph glyph-name="Iacute" unicode="&#xcd;" horiz-adv-x="208" 
d="M83 0v625h42v-625h-42zM118 682h-31l131 177h58z" />
    <glyph glyph-name="Icircumflex" unicode="&#xce;" horiz-adv-x="208" 
d="M83 0v625h42v-625h-42zM208 682l-103 144h-2l-103 -144h-33l112 177h50l112 -177h-33z" />
    <glyph glyph-name="Idieresis" unicode="&#xcf;" horiz-adv-x="208" 
d="M83 0v625h42v-625h-42zM229 766c0 -9.33301 -3.16699 -17.833 -9.5 -25.5s-14.5 -11.5 -24.5 -11.5c-10.667 0 -19.334 3.83301 -26.001 11.5s-10 16.167 -10 25.5s3.33301 17.5 10 24.5s15.334 10.5 26.001 10.5c10 0 18.167 -3.5 24.5 -10.5s9.5 -15.167 9.5 -24.5z
M48 766c0 -9.33301 -3.16699 -17.833 -9.5 -25.5s-14.833 -11.5 -25.5 -11.5s-19 3.83301 -25 11.5s-9 16.167 -9 25.5s3 17.5 9 24.5s14.333 10.5 25 10.5s19.167 -3.5 25.5 -10.5s9.5 -15.167 9.5 -24.5z" />
    <glyph glyph-name="Eth" unicode="&#xd0;" horiz-adv-x="633" 
d="M334 332l-0.000976562 -37h-190v-257h105c42.667 0 81.834 5.5 117.501 16.5s66.5 27.667 92.5 50s46.167 50.833 60.5 85.5s21.5 75.667 21.5 123c0 41.333 -6.66699 78.833 -20 112.5s-32.5 62.5 -57.5 86.5s-55.5 42.5 -91.5 55.5s-77 19.5 -123 19.5h-105v-255h190z
M15.999 295l-0.00195312 37h86v293h151c50.667 0 96.334 -7.5 137.001 -22.5s75.334 -36 104.001 -63s50.834 -59.5 66.501 -97.5s23.5 -79.667 23.5 -125c0 -50.667 -7.66699 -95.667 -23 -135s-37.5 -72.5 -66.5 -99.5s-64.333 -47.5 -106 -61.5s-88.834 -21 -141.501 -21
h-145v295h-86z" />
    <glyph glyph-name="Ntilde" unicode="&#xd1;" horiz-adv-x="631" 
d="M509 625h40v-631h-46l-381 573v-567h-40v625h49l378 -568v568zM468 791c-12.667 -69.333 -39.668 -104 -81.001 -104c-13.333 0 -26.666 3.83301 -39.999 11.5s-26.5 16.167 -39.5 25.5l-36.5 25.5c-11.333 7.66699 -21.666 11.5 -30.999 11.5
c-11.333 0 -20.5 -4.33301 -27.5 -13s-15.5 -27.334 -25.5 -56.001h-25c12.667 69.333 39.667 104 81 104c13.333 0 26.833 -3.83301 40.5 -11.5s27 -16.167 40 -25.5l36.5 -25.5c11.333 -7.66699 21.333 -11.5 30 -11.5c10.667 0 19.667 4.33301 27 13
s15.666 27.334 24.999 56.001h26v0z" />
    <glyph glyph-name="Ograve" unicode="&#xd2;" horiz-adv-x="698" 
d="M649 314c0 -48.667 -7.5 -92.833 -22.5 -132.5s-36 -73.667 -63 -102s-58.833 -50.333 -95.5 -66s-76.667 -23.5 -120 -23.5c-41.333 0 -80.166 8 -116.499 24s-68 38.167 -95 66.5s-48.333 62.333 -64 102s-23.5 82.834 -23.5 129.501c0 48.667 7.5 92.834 22.5 132.501
s36 73.667 63 102s58.833 50.166 95.5 65.499s76.667 23 120 23c41.333 0 80.166 -7.83301 116.499 -23.5s68 -37.834 95 -66.501s48.333 -62.5 64 -101.5s23.5 -82.167 23.5 -129.5zM606 312.001c0 42 -6.66699 80.499 -20 115.499s-31.5 65.167 -54.5 90.5
s-50.333 45 -82 59s-65.834 21 -102.501 21s-70.667 -7 -102 -21s-58.333 -33.5 -81 -58.5s-40.334 -54.833 -53.001 -89.5s-19 -73 -19 -115s6.66699 -80.5 20 -115.5s31.5 -65.167 54.5 -90.5s50.333 -45.166 82 -59.499s65.834 -21.5 102.501 -21.5s70.667 7 102 21
s58.333 33.667 81 59s40.334 55.333 53.001 90s19 73 19 115zM343 682l-158 177h58l131 -177h-31z" />
    <glyph glyph-name="Oacute" unicode="&#xd3;" horiz-adv-x="698" 
d="M649 314c0 -48.667 -7.5 -92.833 -22.5 -132.5s-36 -73.667 -63 -102s-58.833 -50.333 -95.5 -66s-76.667 -23.5 -120 -23.5c-41.333 0 -80.166 8 -116.499 24s-68 38.167 -95 66.5s-48.333 62.333 -64 102s-23.5 82.834 -23.5 129.501c0 48.667 7.5 92.834 22.5 132.501
s36 73.667 63 102s58.833 50.166 95.5 65.499s76.667 23 120 23c41.333 0 80.166 -7.83301 116.499 -23.5s68 -37.834 95 -66.501s48.333 -62.5 64 -101.5s23.5 -82.167 23.5 -129.5zM606 312.001c0 42 -6.66699 80.499 -20 115.499s-31.5 65.167 -54.5 90.5
s-50.333 45 -82 59s-65.834 21 -102.501 21s-70.667 -7 -102 -21s-58.333 -33.5 -81 -58.5s-40.334 -54.833 -53.001 -89.5s-19 -73 -19 -115s6.66699 -80.5 20 -115.5s31.5 -65.167 54.5 -90.5s50.333 -45.166 82 -59.499s65.834 -21.5 102.501 -21.5s70.667 7 102 21
s58.333 33.667 81 59s40.334 55.333 53.001 90s19 73 19 115zM356 682h-31l131 177h58z" />
    <glyph glyph-name="Ocircumflex" unicode="&#xd4;" horiz-adv-x="698" 
d="M649 314c0 -48.667 -7.5 -92.833 -22.5 -132.5s-36 -73.667 -63 -102s-58.833 -50.333 -95.5 -66s-76.667 -23.5 -120 -23.5c-41.333 0 -80.166 8 -116.499 24s-68 38.167 -95 66.5s-48.333 62.333 -64 102s-23.5 82.834 -23.5 129.501c0 48.667 7.5 92.834 22.5 132.501
s36 73.667 63 102s58.833 50.166 95.5 65.499s76.667 23 120 23c41.333 0 80.166 -7.83301 116.499 -23.5s68 -37.834 95 -66.501s48.333 -62.5 64 -101.5s23.5 -82.167 23.5 -129.5zM606 312.001c0 42 -6.66699 80.499 -20 115.499s-31.5 65.167 -54.5 90.5
s-50.333 45 -82 59s-65.834 21 -102.501 21s-70.667 -7 -102 -21s-58.333 -33.5 -81 -58.5s-40.334 -54.833 -53.001 -89.5s-19 -73 -19 -115s6.66699 -80.5 20 -115.5s31.5 -65.167 54.5 -90.5s50.333 -45.166 82 -59.499s65.834 -21.5 102.501 -21.5s70.667 7 102 21
s58.333 33.667 81 59s40.334 55.333 53.001 90s19 73 19 115zM453 682l-103 144h-2l-103 -144h-33l112 177h50l112 -177h-33z" />
    <glyph glyph-name="Otilde" unicode="&#xd5;" horiz-adv-x="698" 
d="M649 314c0 -48.667 -7.5 -92.833 -22.5 -132.5s-36 -73.667 -63 -102s-58.833 -50.333 -95.5 -66s-76.667 -23.5 -120 -23.5c-41.333 0 -80.166 8 -116.499 24s-68 38.167 -95 66.5s-48.333 62.333 -64 102s-23.5 82.834 -23.5 129.501c0 48.667 7.5 92.834 22.5 132.501
s36 73.667 63 102s58.833 50.166 95.5 65.499s76.667 23 120 23c41.333 0 80.166 -7.83301 116.499 -23.5s68 -37.834 95 -66.501s48.333 -62.5 64 -101.5s23.5 -82.167 23.5 -129.5zM606 312.001c0 42 -6.66699 80.499 -20 115.499s-31.5 65.167 -54.5 90.5
s-50.333 45 -82 59s-65.834 21 -102.501 21s-70.667 -7 -102 -21s-58.333 -33.5 -81 -58.5s-40.334 -54.833 -53.001 -89.5s-19 -73 -19 -115s6.66699 -80.5 20 -115.5s31.5 -65.167 54.5 -90.5s50.333 -45.166 82 -59.499s65.834 -21.5 102.501 -21.5s70.667 7 102 21
s58.333 33.667 81 59s40.334 55.333 53.001 90s19 73 19 115zM502 791c-12.667 -69.333 -39.668 -104 -81.001 -104c-13.333 0 -26.666 3.83301 -39.999 11.5s-26.5 16.167 -39.5 25.5l-36.5 25.5c-11.333 7.66699 -21.666 11.5 -30.999 11.5
c-11.333 0 -20.5 -4.33301 -27.5 -13s-15.5 -27.334 -25.5 -56.001h-25c12.667 69.333 39.667 104 81 104c13.333 0 26.833 -3.83301 40.5 -11.5s27 -16.167 40 -25.5l36.5 -25.5c11.333 -7.66699 21.333 -11.5 30 -11.5c10.667 0 19.667 4.33301 27 13
s15.666 27.334 24.999 56.001h26v0z" />
    <glyph glyph-name="Odieresis" unicode="&#xd6;" horiz-adv-x="698" 
d="M649 314c0 -48.667 -7.5 -92.833 -22.5 -132.5s-36 -73.667 -63 -102s-58.833 -50.333 -95.5 -66s-76.667 -23.5 -120 -23.5c-41.333 0 -80.166 8 -116.499 24s-68 38.167 -95 66.5s-48.333 62.333 -64 102s-23.5 82.834 -23.5 129.501c0 48.667 7.5 92.834 22.5 132.501
s36 73.667 63 102s58.833 50.166 95.5 65.499s76.667 23 120 23c41.333 0 80.166 -7.83301 116.499 -23.5s68 -37.834 95 -66.501s48.333 -62.5 64 -101.5s23.5 -82.167 23.5 -129.5zM606 312.001c0 42 -6.66699 80.499 -20 115.499s-31.5 65.167 -54.5 90.5
s-50.333 45 -82 59s-65.834 21 -102.501 21s-70.667 -7 -102 -21s-58.333 -33.5 -81 -58.5s-40.334 -54.833 -53.001 -89.5s-19 -73 -19 -115s6.66699 -80.5 20 -115.5s31.5 -65.167 54.5 -90.5s50.333 -45.166 82 -59.499s65.834 -21.5 102.501 -21.5s70.667 7 102 21
s58.333 33.667 81 59s40.334 55.333 53.001 90s19 73 19 115zM474 766c0 -9.33301 -3.16699 -17.833 -9.5 -25.5s-14.5 -11.5 -24.5 -11.5c-10.667 0 -19.334 3.83301 -26.001 11.5s-10 16.167 -10 25.5s3.33301 17.5 10 24.5s15.334 10.5 26.001 10.5
c10 0 18.167 -3.5 24.5 -10.5s9.5 -15.167 9.5 -24.5zM293 766c0 -9.33301 -3.16699 -17.833 -9.5 -25.5s-14.833 -11.5 -25.5 -11.5s-19 3.83301 -25 11.5s-9 16.167 -9 25.5s3 17.5 9 24.5s14.333 10.5 25 10.5s19.167 -3.5 25.5 -10.5s9.5 -15.167 9.5 -24.5z" />
    <glyph glyph-name="multiply" unicode="&#xd7;" horiz-adv-x="488" 
d="M424 27l-180 180l-180 -180l-26 26l180 180l-180 180l26 26l180 -180l182 182l26 -26l-182 -182l180 -180z" />
    <glyph glyph-name="Oslash" unicode="&#xd8;" horiz-adv-x="698" 
d="M649 314c0 -48.667 -7.50098 -92.833 -22.501 -132.5s-36 -73.667 -63 -102s-58.833 -50.333 -95.5 -66s-76.667 -23.5 -120 -23.5c-26.667 0 -52.167 3.33301 -76.5 10s-47.166 16 -68.499 28l-55 -95h-39l33 57c8.66699 14 16.334 27 23.001 39s10 17.667 10 17
c-38 28.667 -68.5 65.667 -91.5 111s-34.5 97 -34.5 155c0 48.667 7.5 92.834 22.5 132.501s36 73.667 63 102s58.833 50.166 95.5 65.499s76.667 23 120 23c26.667 0 52.167 -3.33301 76.5 -10s47.166 -16 68.499 -28l55 95h39l-66 -113c38 -28 68.5 -64.667 91.5 -110
s34.5 -97 34.5 -155zM475.999 564.001c-18.667 11.333 -38.832 20 -60.499 26s-44.5 9 -68.5 9c-36.667 0 -70.667 -7 -102 -21s-58.333 -33.667 -81 -59s-40.334 -55.333 -53.001 -90s-19 -73 -19 -115c0 -50 9.16699 -95 27.5 -135s43.5 -72.667 75.5 -98l281 483v0z
M222.001 61.001c19.333 -11.333 39.666 -20 60.999 -26s44 -9 68 -9c36.667 0 70.667 7 102 21s58.333 33.667 81 59s40.334 55.5 53.001 90.5s19 73.5 19 115.5c0 50 -9.16699 95 -27.5 135s-43.5 72.667 -75.5 98z" />
    <glyph glyph-name="Ugrave" unicode="&#xd9;" horiz-adv-x="586" 
d="M519 236c0 -37.333 -4.83203 -71.1689 -14.499 -101.502s-24.167 -56.166 -43.5 -77.499s-43 -37.833 -71 -49.5s-60.667 -17.5 -98 -17.5c-72.667 0 -128.334 20.833 -167.001 62.5s-58 99.5 -58 173.5v399h41v-396c0 -62.667 15.5 -112 46.5 -148s77.167 -54 138.5 -54
c62.667 0 109.167 18.333 139.5 55s45.5 88.334 45.5 155.001v388h41v-389v0zM291.001 681.997l-158 177h58l131 -177h-31z" />
    <glyph glyph-name="Uacute" unicode="&#xda;" horiz-adv-x="586" 
d="M519 236c0 -37.333 -4.83203 -71.1689 -14.499 -101.502s-24.167 -56.166 -43.5 -77.499s-43 -37.833 -71 -49.5s-60.667 -17.5 -98 -17.5c-72.667 0 -128.334 20.833 -167.001 62.5s-58 99.5 -58 173.5v399h41v-396c0 -62.667 15.5 -112 46.5 -148s77.167 -54 138.5 -54
c62.667 0 109.167 18.333 139.5 55s45.5 88.334 45.5 155.001v388h41v-389v0zM286.001 681.997h-31l131 177h58z" />
    <glyph glyph-name="Ucircumflex" unicode="&#xdb;" horiz-adv-x="586" 
d="M519 236c0 -37.333 -4.83203 -71.1689 -14.499 -101.502s-24.167 -56.166 -43.5 -77.499s-43 -37.833 -71 -49.5s-60.667 -17.5 -98 -17.5c-72.667 0 -128.334 20.833 -167.001 62.5s-58 99.5 -58 173.5v399h41v-396c0 -62.667 15.5 -112 46.5 -148s77.167 -54 138.5 -54
c62.667 0 109.167 18.333 139.5 55s45.5 88.334 45.5 155.001v388h41v-389v0zM397.001 681.997l-103 144h-2l-103 -144h-33l112 177h50l112 -177h-33z" />
    <glyph glyph-name="Udieresis" unicode="&#xdc;" horiz-adv-x="586" 
d="M519 236c0 -37.333 -4.83203 -71.1689 -14.499 -101.502s-24.167 -56.166 -43.5 -77.499s-43 -37.833 -71 -49.5s-60.667 -17.5 -98 -17.5c-72.667 0 -128.334 20.833 -167.001 62.5s-58 99.5 -58 173.5v399h41v-396c0 -62.667 15.5 -112 46.5 -148s77.167 -54 138.5 -54
c62.667 0 109.167 18.333 139.5 55s45.5 88.334 45.5 155.001v388h41v-389v0zM418.001 765.997c0 -9.33301 -3.16699 -17.833 -9.5 -25.5s-14.5 -11.5 -24.5 -11.5c-10.667 0 -19.334 3.83301 -26.001 11.5s-10 16.167 -10 25.5s3.33301 17.5 10 24.5
s15.334 10.5 26.001 10.5c10 0 18.167 -3.5 24.5 -10.5s9.5 -15.167 9.5 -24.5zM237.001 765.997c0 -9.33301 -3.16699 -17.833 -9.5 -25.5s-14.833 -11.5 -25.5 -11.5s-19 3.83301 -25 11.5s-9 16.167 -9 25.5s3 17.5 9 24.5s14.333 10.5 25 10.5s19.167 -3.5 25.5 -10.5
s9.5 -15.167 9.5 -24.5z" />
    <glyph glyph-name="Yacute" unicode="&#xdd;" horiz-adv-x="507" 
d="M275 254v-254h-42v253l-219 372h47l194 -331l192 331h46zM253 682h-31l131 177h58z" />
    <glyph glyph-name="Thorn" unicode="&#xde;" horiz-adv-x="500" 
d="M461 324c0 -66.667 -22.333 -116.833 -67 -150.5s-105.667 -51.167 -183 -52.5l-87 -1v-120h-42v625h42v-113h98c79.333 0 139 -17 179 -51s60 -79.667 60 -137zM417 323.001c0 47.333 -17 84.333 -51 111s-82 40 -144 40h-98v-316l87 1
c65.333 1.33301 116 14.5 152 39.5s54 66.5 54 124.5z" />
    <glyph glyph-name="germandbls" unicode="&#xdf;" horiz-adv-x="566" 
d="M273 641c-10.667 5.33301 -21.166 9.66602 -31.499 12.999s-22.5 5 -36.5 5c-55.333 0 -83 -38.667 -83 -116v-543h-41v416l-66 4l3 26l62 8l1 87c0.666992 28.667 4.16699 52.834 10.5 72.501s15.166 35.667 26.499 48s24.5 21.166 39.5 26.499s31.167 8 48.5 8
c14.667 0 28.667 -1.66699 42 -5s25 -7.66602 35 -12.999zM523.001 119c0 -20 -4.16895 -38.0068 -12.502 -54.0068s-19.5 -29.5 -33.5 -40.5s-30.333 -19.5 -49 -25.5s-38.667 -9 -60 -9c-26 0 -51.167 3.66699 -75.5 11s-45.5 16.666 -63.5 27.999l13 38
c19.333 -12.667 39.666 -22.667 60.999 -30s43.666 -11 66.999 -11c14.667 0 28.834 2 42.501 6s26 9.66699 37 17s19.833 16.5 26.5 27.5s10 23.833 10 38.5c0 16.667 -3.5 30.334 -10.5 41.001s-16.167 19.834 -27.5 27.501s-24.333 14 -39 19l-45 15.5
c-15.333 5.33301 -30.666 11.333 -45.999 18s-29.166 14.834 -41.499 24.501s-22.333 21.334 -30 35.001s-11.5 29.834 -11.5 48.501c0 20.667 3.83301 38.667 11.5 54s18 28.166 31 38.499s28.167 18.166 45.5 23.499s36 8 56 8c24 0 47.167 -3.16699 69.5 -9.5
s42.5 -14.166 60.5 -23.499l-14 -37c-19.333 10.667 -38.833 19.167 -58.5 25.5s-40.167 9.5 -61.5 9.5c-31.333 0 -56.333 -7.66699 -75 -23s-28 -35.666 -28 -60.999c0 -14.667 3.5 -27.167 10.5 -37.5s16 -19.166 27 -26.499s23.833 -13.5 38.5 -18.5l44 -15.5
c16 -5.33301 31.667 -11.166 47 -17.499s29.333 -14.5 42 -24.5s22.834 -22.167 30.501 -36.5s11.5 -32.166 11.5 -53.499z" />
    <glyph glyph-name="agrave" unicode="&#xe0;" horiz-adv-x="427" 
d="M219 515l-158 177h58l131 -177h-31zM316 243c-44.667 -4.66699 -82.333 -10.8301 -113 -18.4971s-55.5 -16.834 -74.5 -27.501s-32.667 -22.834 -41 -36.501s-12.5 -28.834 -12.5 -45.501c0 -28.667 10.5 -50.667 31.5 -66s46.167 -23 75.5 -23
c28.667 0 54.5 7.5 77.5 22.5s41.833 31.167 56.5 48.5v146zM320.001 62.0039c-6.66699 -8.66699 -15.166 -17.3311 -25.499 -25.998s-21.833 -16.5 -34.5 -23.5s-26 -12.5 -40 -16.5s-28.333 -6 -43 -6c-20 0 -38.833 3 -56.5 9s-32.834 14.167 -45.501 24.5
s-22.667 23 -30 38s-11 31.5 -11 49.5c0 21.333 4.83301 41.166 14.5 59.499s25.5 34.5 47.5 48.5s51 25.667 87 35s80.333 15.666 133 18.999v42c0 35.333 -8.83301 63.333 -26.5 84s-46.167 31 -85.5 31c-14 0 -28.167 -1.83301 -42.5 -5.5
s-28.166 -8.16699 -41.499 -13.5s-26 -11.5 -38 -18.5s-22.667 -14.167 -32 -21.5l-10 41c21.333 15.333 47.5 28.5 78.5 39.5s60.5 16.5 88.5 16.5c22 0 42.167 -2.66699 60.5 -8s34.166 -14 47.499 -26s23.666 -27.5 30.999 -46.5s11 -41.833 11 -68.5v-248
c0 -14 2.83301 -25.667 8.5 -35s18.834 -13.666 39.501 -12.999l-3 -31c-22.667 -1.33301 -41.5 3.66699 -56.5 15s-23.167 29.666 -24.5 54.999h-1z" />
    <glyph glyph-name="aacute" unicode="&#xe1;" horiz-adv-x="427" 
d="M316 243c-44.667 -4.66699 -82.333 -10.8301 -113 -18.4971s-55.5 -16.834 -74.5 -27.501s-32.667 -22.834 -41 -36.501s-12.5 -28.834 -12.5 -45.501c0 -28.667 10.5 -50.667 31.5 -66s46.167 -23 75.5 -23c28.667 0 54.5 7.5 77.5 22.5s41.833 31.167 56.5 48.5v146z
M320.001 62.0039c-6.66699 -8.66699 -15.166 -17.3311 -25.499 -25.998s-21.833 -16.5 -34.5 -23.5s-26 -12.5 -40 -16.5s-28.333 -6 -43 -6c-20 0 -38.833 3 -56.5 9s-32.834 14.167 -45.501 24.5s-22.667 23 -30 38s-11 31.5 -11 49.5
c0 21.333 4.83301 41.166 14.5 59.499s25.5 34.5 47.5 48.5s51 25.667 87 35s80.333 15.666 133 18.999v42c0 35.333 -8.83301 63.333 -26.5 84s-46.167 31 -85.5 31c-14 0 -28.167 -1.83301 -42.5 -5.5s-28.166 -8.16699 -41.499 -13.5s-26 -11.5 -38 -18.5
s-22.667 -14.167 -32 -21.5l-10 41c21.333 15.333 47.5 28.5 78.5 39.5s60.5 16.5 88.5 16.5c22 0 42.167 -2.66699 60.5 -8s34.166 -14 47.499 -26s23.666 -27.5 30.999 -46.5s11 -41.833 11 -68.5v-248c0 -14 2.83301 -25.667 8.5 -35s18.834 -13.666 39.501 -12.999
l-3 -31c-22.667 -1.33301 -41.5 3.66699 -56.5 15s-23.167 29.666 -24.5 54.999h-1zM188.002 515.007h-31l131 177h58z" />
    <glyph glyph-name="acircumflex" unicode="&#xe2;" horiz-adv-x="427" 
d="M316 243c-44.667 -4.66699 -82.333 -10.8301 -113 -18.4971s-55.5 -16.834 -74.5 -27.501s-32.667 -22.834 -41 -36.501s-12.5 -28.834 -12.5 -45.501c0 -28.667 10.5 -50.667 31.5 -66s46.167 -23 75.5 -23c28.667 0 54.5 7.5 77.5 22.5s41.833 31.167 56.5 48.5v146z
M320.001 62.0039c-6.66699 -8.66699 -15.166 -17.3311 -25.499 -25.998s-21.833 -16.5 -34.5 -23.5s-26 -12.5 -40 -16.5s-28.333 -6 -43 -6c-20 0 -38.833 3 -56.5 9s-32.834 14.167 -45.501 24.5s-22.667 23 -30 38s-11 31.5 -11 49.5
c0 21.333 4.83301 41.166 14.5 59.499s25.5 34.5 47.5 48.5s51 25.667 87 35s80.333 15.666 133 18.999v42c0 35.333 -8.83301 63.333 -26.5 84s-46.167 31 -85.5 31c-14 0 -28.167 -1.83301 -42.5 -5.5s-28.166 -8.16699 -41.499 -13.5s-26 -11.5 -38 -18.5
s-22.667 -14.167 -32 -21.5l-10 41c21.333 15.333 47.5 28.5 78.5 39.5s60.5 16.5 88.5 16.5c22 0 42.167 -2.66699 60.5 -8s34.166 -14 47.499 -26s23.666 -27.5 30.999 -46.5s11 -41.833 11 -68.5v-248c0 -14 2.83301 -25.667 8.5 -35s18.834 -13.666 39.501 -12.999
l-3 -31c-22.667 -1.33301 -41.5 3.66699 -56.5 15s-23.167 29.666 -24.5 54.999h-1zM309.002 515.007l-103 144h-2l-103 -144h-33l112 177h50l112 -177h-33z" />
    <glyph glyph-name="atilde" unicode="&#xe3;" horiz-adv-x="427" 
d="M316 243c-44.667 -4.66699 -82.333 -10.8301 -113 -18.4971s-55.5 -16.834 -74.5 -27.501s-32.667 -22.834 -41 -36.501s-12.5 -28.834 -12.5 -45.501c0 -28.667 10.5 -50.667 31.5 -66s46.167 -23 75.5 -23c28.667 0 54.5 7.5 77.5 22.5s41.833 31.167 56.5 48.5v146z
M320.001 62.0039c-6.66699 -8.66699 -15.166 -17.3311 -25.499 -25.998s-21.833 -16.5 -34.5 -23.5s-26 -12.5 -40 -16.5s-28.333 -6 -43 -6c-20 0 -38.833 3 -56.5 9s-32.834 14.167 -45.501 24.5s-22.667 23 -30 38s-11 31.5 -11 49.5
c0 21.333 4.83301 41.166 14.5 59.499s25.5 34.5 47.5 48.5s51 25.667 87 35s80.333 15.666 133 18.999v42c0 35.333 -8.83301 63.333 -26.5 84s-46.167 31 -85.5 31c-14 0 -28.167 -1.83301 -42.5 -5.5s-28.166 -8.16699 -41.499 -13.5s-26 -11.5 -38 -18.5
s-22.667 -14.167 -32 -21.5l-10 41c21.333 15.333 47.5 28.5 78.5 39.5s60.5 16.5 88.5 16.5c22 0 42.167 -2.66699 60.5 -8s34.166 -14 47.499 -26s23.666 -27.5 30.999 -46.5s11 -41.833 11 -68.5v-248c0 -14 2.83301 -25.667 8.5 -35s18.834 -13.666 39.501 -12.999
l-3 -31c-22.667 -1.33301 -41.5 3.66699 -56.5 15s-23.167 29.666 -24.5 54.999h-1zM358.002 624.007c-12.667 -69.333 -39.668 -104 -81.001 -104c-13.333 0 -26.666 3.83301 -39.999 11.5s-26.5 16.167 -39.5 25.5l-36.5 25.5c-11.333 7.66699 -21.666 11.5 -30.999 11.5
c-11.333 0 -20.5 -4.33301 -27.5 -13s-15.5 -27.334 -25.5 -56.001h-25c12.667 69.333 39.667 104 81 104c13.333 0 26.833 -3.83301 40.5 -11.5s27 -16.167 40 -25.5l36.5 -25.5c11.333 -7.66699 21.333 -11.5 30 -11.5c10.667 0 19.667 4.33301 27 13
s15.666 27.334 24.999 56.001h26v0z" />
    <glyph glyph-name="adieresis" unicode="&#xe4;" horiz-adv-x="427" 
d="M316 243c-44.667 -4.66699 -82.333 -10.8301 -113 -18.4971s-55.5 -16.834 -74.5 -27.501s-32.667 -22.834 -41 -36.501s-12.5 -28.834 -12.5 -45.501c0 -28.667 10.5 -50.667 31.5 -66s46.167 -23 75.5 -23c28.667 0 54.5 7.5 77.5 22.5s41.833 31.167 56.5 48.5v146z
M320.001 62.0039c-6.66699 -8.66699 -15.166 -17.3311 -25.499 -25.998s-21.833 -16.5 -34.5 -23.5s-26 -12.5 -40 -16.5s-28.333 -6 -43 -6c-20 0 -38.833 3 -56.5 9s-32.834 14.167 -45.501 24.5s-22.667 23 -30 38s-11 31.5 -11 49.5
c0 21.333 4.83301 41.166 14.5 59.499s25.5 34.5 47.5 48.5s51 25.667 87 35s80.333 15.666 133 18.999v42c0 35.333 -8.83301 63.333 -26.5 84s-46.167 31 -85.5 31c-14 0 -28.167 -1.83301 -42.5 -5.5s-28.166 -8.16699 -41.499 -13.5s-26 -11.5 -38 -18.5
s-22.667 -14.167 -32 -21.5l-10 41c21.333 15.333 47.5 28.5 78.5 39.5s60.5 16.5 88.5 16.5c22 0 42.167 -2.66699 60.5 -8s34.166 -14 47.499 -26s23.666 -27.5 30.999 -46.5s11 -41.833 11 -68.5v-248c0 -14 2.83301 -25.667 8.5 -35s18.834 -13.666 39.501 -12.999
l-3 -31c-22.667 -1.33301 -41.5 3.66699 -56.5 15s-23.167 29.666 -24.5 54.999h-1zM330.002 599.007c0 -9.33301 -3.16699 -17.833 -9.5 -25.5s-14.5 -11.5 -24.5 -11.5c-10.667 0 -19.334 3.83301 -26.001 11.5s-10 16.167 -10 25.5s3.33301 17.5 10 24.5
s15.334 10.5 26.001 10.5c10 0 18.167 -3.5 24.5 -10.5s9.5 -15.167 9.5 -24.5zM149.002 599.007c0 -9.33301 -3.16699 -17.833 -9.5 -25.5s-14.833 -11.5 -25.5 -11.5s-19 3.83301 -25 11.5s-9 16.167 -9 25.5s3 17.5 9 24.5s14.333 10.5 25 10.5s19.167 -3.5 25.5 -10.5
s9.5 -15.167 9.5 -24.5z" />
    <glyph glyph-name="aring" unicode="&#xe5;" horiz-adv-x="427" 
d="M316 243c-44.667 -4.66699 -82.333 -10.8301 -113 -18.4971s-55.5 -16.834 -74.5 -27.501s-32.667 -22.834 -41 -36.501s-12.5 -28.834 -12.5 -45.501c0 -28.667 10.5 -50.667 31.5 -66s46.167 -23 75.5 -23c28.667 0 54.5 7.5 77.5 22.5s41.833 31.167 56.5 48.5v146z
M320.001 62.0039c-6.66699 -8.66699 -15.166 -17.3311 -25.499 -25.998s-21.833 -16.5 -34.5 -23.5s-26 -12.5 -40 -16.5s-28.333 -6 -43 -6c-20 0 -38.833 3 -56.5 9s-32.834 14.167 -45.501 24.5s-22.667 23 -30 38s-11 31.5 -11 49.5
c0 21.333 4.83301 41.166 14.5 59.499s25.5 34.5 47.5 48.5s51 25.667 87 35s80.333 15.666 133 18.999v42c0 35.333 -8.83301 63.333 -26.5 84s-46.167 31 -85.5 31c-14 0 -28.167 -1.83301 -42.5 -5.5s-28.166 -8.16699 -41.499 -13.5s-26 -11.5 -38 -18.5
s-22.667 -14.167 -32 -21.5l-10 41c21.333 15.333 47.5 28.5 78.5 39.5s60.5 16.5 88.5 16.5c22 0 42.167 -2.66699 60.5 -8s34.166 -14 47.499 -26s23.666 -27.5 30.999 -46.5s11 -41.833 11 -68.5v-248c0 -14 2.83301 -25.667 8.5 -35s18.834 -13.666 39.501 -12.999
l-3 -31c-22.667 -1.33301 -41.5 3.66699 -56.5 15s-23.167 29.666 -24.5 54.999h-1zM318.002 604.007c0 -26.667 -10 -49.5 -30 -68.5s-47.333 -28.5 -82 -28.5s-62 9.5 -82 28.5s-30 41.833 -30 68.5s10 49.667 30 69s47.333 29 82 29s62 -9.66699 82 -29
s30 -42.333 30 -69zM283.002 602.007c0 18.667 -7 35.167 -21 49.5s-32.667 21.5 -56 21.5s-42 -6.66699 -56 -20s-21 -29.333 -21 -48s7 -34.834 21 -48.501s32.667 -20.5 56 -20.5s42 6.33301 56 19s21 28.334 21 47.001z" />
    <glyph glyph-name="ae" unicode="&#xe6;" horiz-adv-x="720" 
d="M337 91c-10 -14.667 -22.333 -28.333 -37 -41s-30 -23.334 -46 -32.001s-32 -15.5 -48 -20.5s-31 -7.5 -45 -7.5c-40.667 0 -72 11.333 -94 34s-33 50 -33 82c0 48 21.5 85.167 64.5 111.5s112.167 41.833 207.5 46.5l2 41c1.33301 38.667 -6.5 68.834 -23.5 90.501
s-45.833 32.5 -86.5 32.5c-28 0 -54.167 -6 -78.5 -18s-45.5 -25 -63.5 -39l-19 34c20 15.333 44.333 29.666 73 42.999s59 20 91 20c35.333 0 65.5 -7.5 90.5 -22.5s41.167 -40.167 48.5 -75.5c18 30 41.5 53.833 70.5 71.5s61.833 26.5 98.5 26.5
c22.667 0 43.667 -3.66699 63 -11s36.166 -17.833 50.499 -31.5s25.5 -30.167 33.5 -49.5s12 -41.333 12 -66c0 -11.333 -1 -23.666 -3 -36.999s-4.33301 -25 -7 -35l-312 -2v-7c0 -28.667 3.83301 -55.334 11.5 -80.001s18.834 -46 33.501 -64s32.5 -32 53.5 -42
s44.5 -15 70.5 -15s49.667 3.66699 71 11s40.333 16.333 57 27l9 -37c-18.667 -11.333 -39.667 -20.666 -63 -27.999s-49 -11 -77 -11c-39.333 0 -74 8.83301 -104 26.5s-53.667 42.5 -71 74.5zM623 273.001c2 11.333 3 22.667 3 34c0 36 -10.5 65.5 -31.5 88.5
s-49.833 34.5 -86.5 34.5c-42.667 0 -78 -14.5 -106 -43.5s-45.667 -66.833 -53 -113.5h274zM304 231.002c-44 -2.66699 -80.666 -7.5 -109.999 -14.5s-52.833 -16 -70.5 -27s-30.334 -23.333 -38.001 -37s-11.5 -28.167 -11.5 -43.5c0 -27.333 9 -47.333 27 -60
s39.667 -19 65 -19c22.667 0 48.5 7 77.5 21s55.833 36.333 80.5 67c-13.333 34 -20 71.667 -20 113z" />
    <glyph glyph-name="ccedilla" unicode="&#xe7;" horiz-adv-x="445" 
d="M244 -9c-29.333 2.66699 -56.332 10.332 -80.999 22.999s-45.834 29.334 -63.501 50.001s-31.334 44.834 -41.001 72.501s-14.5 57.834 -14.5 90.501c0 34.667 5.33301 66.667 16 96s25.667 54.833 45 76.5s42.333 38.5 69 50.5s55.667 18 87 18
c27.333 0 52.666 -3.33301 75.999 -10s44 -16 62 -28l-10 -37c-16.667 10.667 -35.834 19.5 -57.501 26.5s-45.167 10.5 -70.5 10.5c-26 0 -49.667 -5 -71 -15s-39.666 -24 -54.999 -42s-27.333 -39.167 -36 -63.5s-13 -51.166 -13 -80.499s4.33301 -56.333 13 -81
s20.834 -45.834 36.501 -63.501s34.5 -31.5 56.5 -41.5s46.667 -15 74 -15c22 0 43.667 3.66699 65 11s40.333 16.333 57 27l10 -37c-16.667 -10 -34.667 -18.5 -54 -25.5s-39.666 -11.167 -60.999 -12.5l-60 -58c16 1.33301 31.5 0.666016 46.5 -2.00098s28 -7.5 39 -14.5
s19.833 -16 26.5 -27s10 -24.5 10 -40.5c0 -26 -13.333 -49.5 -40 -70.5s-65 -33.167 -115 -36.5l-4 30c40 2.66699 70.5 10.334 91.5 23.001s31.5 29.667 31.5 51c0 27.333 -13.667 44.666 -41 51.999s-61 6.66602 -101 -2.00098l-3 16l80 79v0z" />
    <glyph glyph-name="egrave" unicode="&#xe8;" horiz-adv-x="460" 
d="M86 229c0 -28.667 3.83301 -55.335 11.5 -80.002s18.834 -46 33.501 -64s32.5 -32 53.5 -42s44.5 -15 70.5 -15s49.667 3.66699 71 11s40.333 16.333 57 27l9 -37c-18 -11.333 -38.833 -20.666 -62.5 -27.999s-49.5 -11 -77.5 -11c-31.333 0 -59.833 5.83301 -85.5 17.5
s-47.5 28 -65.5 49s-32 46 -42 75s-15 60.833 -15 95.5s5 66.667 15 96s24.167 54.833 42.5 76.5s40 38.5 65 50.5s52.5 18 82.5 18c22.667 0 43.667 -3.66699 63 -11s36.166 -17.833 50.499 -31.5s25.5 -30.167 33.5 -49.5s12 -41.333 12 -66
c0 -11.333 -1 -23.666 -3 -36.999s-4.33301 -25 -7 -35l-312 -2v-7zM363 272.999c2 11.333 3 22.667 3 34c0 36 -10.5 65.5 -31.5 88.5s-49.833 34.5 -86.5 34.5c-42.667 0 -78 -14.5 -106 -43.5s-45.667 -66.833 -53 -113.5h274zM243 515l-158 177h58l131 -177h-31z" />
    <glyph glyph-name="eacute" unicode="&#xe9;" horiz-adv-x="460" 
d="M86 229c0 -28.667 3.83301 -55.335 11.5 -80.002s18.834 -46 33.501 -64s32.5 -32 53.5 -42s44.5 -15 70.5 -15s49.667 3.66699 71 11s40.333 16.333 57 27l9 -37c-18 -11.333 -38.833 -20.666 -62.5 -27.999s-49.5 -11 -77.5 -11c-31.333 0 -59.833 5.83301 -85.5 17.5
s-47.5 28 -65.5 49s-32 46 -42 75s-15 60.833 -15 95.5s5 66.667 15 96s24.167 54.833 42.5 76.5s40 38.5 65 50.5s52.5 18 82.5 18c22.667 0 43.667 -3.66699 63 -11s36.166 -17.833 50.499 -31.5s25.5 -30.167 33.5 -49.5s12 -41.333 12 -66
c0 -11.333 -1 -23.666 -3 -36.999s-4.33301 -25 -7 -35l-312 -2v-7zM363 272.999c2 11.333 3 22.667 3 34c0 36 -10.5 65.5 -31.5 88.5s-49.833 34.5 -86.5 34.5c-42.667 0 -78 -14.5 -106 -43.5s-45.667 -66.833 -53 -113.5h274zM244 515h-31l131 177h58z" />
    <glyph glyph-name="ecircumflex" unicode="&#xea;" horiz-adv-x="460" 
d="M86 229c0 -28.667 3.83301 -55.335 11.5 -80.002s18.834 -46 33.501 -64s32.5 -32 53.5 -42s44.5 -15 70.5 -15s49.667 3.66699 71 11s40.333 16.333 57 27l9 -37c-18 -11.333 -38.833 -20.666 -62.5 -27.999s-49.5 -11 -77.5 -11c-31.333 0 -59.833 5.83301 -85.5 17.5
s-47.5 28 -65.5 49s-32 46 -42 75s-15 60.833 -15 95.5s5 66.667 15 96s24.167 54.833 42.5 76.5s40 38.5 65 50.5s52.5 18 82.5 18c22.667 0 43.667 -3.66699 63 -11s36.166 -17.833 50.499 -31.5s25.5 -30.167 33.5 -49.5s12 -41.333 12 -66
c0 -11.333 -1 -23.666 -3 -36.999s-4.33301 -25 -7 -35l-312 -2v-7zM363 272.999c2 11.333 3 22.667 3 34c0 36 -10.5 65.5 -31.5 88.5s-49.833 34.5 -86.5 34.5c-42.667 0 -78 -14.5 -106 -43.5s-45.667 -66.833 -53 -113.5h274zM334 515l-103 144h-2l-103 -144h-33
l112 177h50l112 -177h-33z" />
    <glyph glyph-name="edieresis" unicode="&#xeb;" horiz-adv-x="460" 
d="M86 229c0 -28.667 3.83301 -55.335 11.5 -80.002s18.834 -46 33.501 -64s32.5 -32 53.5 -42s44.5 -15 70.5 -15s49.667 3.66699 71 11s40.333 16.333 57 27l9 -37c-18 -11.333 -38.833 -20.666 -62.5 -27.999s-49.5 -11 -77.5 -11c-31.333 0 -59.833 5.83301 -85.5 17.5
s-47.5 28 -65.5 49s-32 46 -42 75s-15 60.833 -15 95.5s5 66.667 15 96s24.167 54.833 42.5 76.5s40 38.5 65 50.5s52.5 18 82.5 18c22.667 0 43.667 -3.66699 63 -11s36.166 -17.833 50.499 -31.5s25.5 -30.167 33.5 -49.5s12 -41.333 12 -66
c0 -11.333 -1 -23.666 -3 -36.999s-4.33301 -25 -7 -35l-312 -2v-7zM363 272.999c2 11.333 3 22.667 3 34c0 36 -10.5 65.5 -31.5 88.5s-49.833 34.5 -86.5 34.5c-42.667 0 -78 -14.5 -106 -43.5s-45.667 -66.833 -53 -113.5h274zM359 599
c0 -9.33301 -3.16699 -17.833 -9.5 -25.5s-14.5 -11.5 -24.5 -11.5c-10.667 0 -19.334 3.83301 -26.001 11.5s-10 16.167 -10 25.5s3.33301 17.5 10 24.5s15.334 10.5 26.001 10.5c10 0 18.167 -3.5 24.5 -10.5s9.5 -15.167 9.5 -24.5zM178 599
c0 -9.33301 -3.16699 -17.833 -9.5 -25.5s-14.833 -11.5 -25.5 -11.5s-19 3.83301 -25 11.5s-9 16.167 -9 25.5s3 17.5 9 24.5s14.333 10.5 25 10.5s19.167 -3.5 25.5 -10.5s9.5 -15.167 9.5 -24.5z" />
    <glyph glyph-name="igrave" unicode="&#xec;" horiz-adv-x="193" 
d="M76 0v455l41 13v-468h-41zM83 515l-158 177h58l131 -177h-31z" />
    <glyph glyph-name="iacute" unicode="&#xed;" horiz-adv-x="193" 
d="M76 0v455l41 13v-468h-41zM107 515h-31l131 177h58z" />
    <glyph glyph-name="icircumflex" unicode="&#xee;" horiz-adv-x="193" 
d="M76 0v455l41 13v-468h-41zM203 515l-103 144h-2l-103 -144h-33l112 177h50l112 -177h-33z" />
    <glyph glyph-name="idieresis" unicode="&#xef;" horiz-adv-x="193" 
d="M76 0v455l41 13v-468h-41zM224 599c0 -9.33301 -3.16699 -17.833 -9.5 -25.5s-14.5 -11.5 -24.5 -11.5c-10.667 0 -19.334 3.83301 -26.001 11.5s-10 16.167 -10 25.5s3.33301 17.5 10 24.5s15.334 10.5 26.001 10.5c10 0 18.167 -3.5 24.5 -10.5s9.5 -15.167 9.5 -24.5z
M43 599c0 -9.33301 -3.16699 -17.833 -9.5 -25.5s-14.833 -11.5 -25.5 -11.5s-19 3.83301 -25 11.5s-9 16.167 -9 25.5s3 17.5 9 24.5s14.333 10.5 25 10.5s19.167 -3.5 25.5 -10.5s9.5 -15.167 9.5 -24.5z" />
    <glyph glyph-name="eth" unicode="&#xf0;" horiz-adv-x="515" 
d="M471 248c0 -36.667 -4.49609 -70.6709 -13.4961 -102.004s-22.5 -58.5 -40.5 -81.5s-40.667 -41.167 -68 -54.5s-59.333 -20 -96 -20c-30 0 -57.833 5.33301 -83.5 16s-47.834 25.667 -66.501 45s-33.167 42.5 -43.5 69.5s-15.5 56.833 -15.5 89.5
c0 35.333 5.66699 66.833 17 94.5s26.666 51 45.999 70s41.833 33.5 67.5 43.5s53.167 15 82.5 15c26.667 0 52.167 -4.16699 76.5 -12.5s44.5 -17.166 60.5 -26.499h1c-14 30 -31.5 59.833 -52.5 89.5s-44.833 58.834 -71.5 87.501l-133 -36l-9 36l112 30l-47 43
c-16 14 -32.667 27.333 -50 40l22 6l22 6c32 -23.333 64 -51 96 -83l108 29l9 -36l-44 -12l-30 -8.5c-8.66699 -2.33301 -13.334 -3.5 -14.001 -3.5c22 -24.667 42.667 -50.667 62 -78s36.166 -55.166 50.499 -83.499s25.5 -57.166 33.5 -86.499s12 -58 12 -86z
M430.004 245.996c0 33.333 -6.00098 67.334 -18.001 102.001c-19.333 13.333 -42.166 24.666 -68.499 33.999s-52.833 14 -79.5 14c-56.667 0 -100.5 -16.833 -131.5 -50.5s-46.5 -78.834 -46.5 -135.501c0 -26 4.16699 -50.333 12.5 -73s20 -42.167 35 -58.5
s32.667 -29.166 53 -38.499s42.833 -14 67.5 -14c58.667 0 102.667 20.167 132 60.5s44 93.5 44 159.5z" />
    <glyph glyph-name="ntilde" unicode="&#xf1;" horiz-adv-x="492" 
d="M381 0v303.999c0 40.667 -8.66699 71.834 -26 93.501s-44.666 32.5 -81.999 32.5c-26 0 -52.5 -6.83301 -79.5 -20.5s-53.167 -33.167 -78.5 -58.5v-351h-41v455l41 13v-80c26.667 27.333 55 47.5 85 60.5s56 19.5 78 19.5c45.333 0 80.666 -13.167 105.999 -39.5
s38 -64.833 38 -115.5v-313h-41zM399 623.999c-12.667 -69.333 -39.668 -104 -81.001 -104c-13.333 0 -26.666 3.83301 -39.999 11.5s-26.5 16.167 -39.5 25.5l-36.5 25.5c-11.333 7.66699 -21.666 11.5 -30.999 11.5c-11.333 0 -20.5 -4.33301 -27.5 -13
s-15.5 -27.334 -25.5 -56.001h-25c12.667 69.333 39.667 104 81 104c13.333 0 26.833 -3.83301 40.5 -11.5s27 -16.167 40 -25.5l36.5 -25.5c11.333 -7.66699 21.333 -11.5 30 -11.5c10.667 0 19.667 4.33301 27 13s15.666 27.334 24.999 56.001h26v0z" />
    <glyph glyph-name="ograve" unicode="&#xf2;" horiz-adv-x="534" 
d="M490 231c0 -36 -5.83301 -68.833 -17.5 -98.5s-27.834 -55 -48.501 -76s-44.5 -37.333 -71.5 -49s-56.167 -17.5 -87.5 -17.5c-30.667 0 -59.5 5.5 -86.5 16.5s-50.5 26.833 -70.5 47.5s-35.667 45.667 -47 75s-17 62 -17 98s5.83301 68.833 17.5 98.5
s27.834 55 48.501 76s44.667 37.333 72 49s56.333 17.5 87 17.5c31.333 0 60.333 -5.5 87 -16.5s50 -26.833 70 -47.5s35.667 -45.667 47 -75s17 -62 17 -98zM449 229c0 31.333 -4.66602 59.5 -13.999 84.5s-22 46.167 -38 63.5s-35.167 30.666 -57.5 39.999
s-46.5 14 -72.5 14s-50.167 -5 -72.5 -15s-41.5 -24 -57.5 -42s-28.667 -39.333 -38 -64s-14 -51.667 -14 -81c0 -31.333 4.5 -59.5 13.5 -84.5s21.667 -46.167 38 -63.5s35.666 -30.666 57.999 -39.999s46.5 -14 72.5 -14s50.167 5 72.5 15s41.5 24 57.5 42
s28.667 39.333 38 64s14 51.667 14 81zM267.001 515l-158 177h58l131 -177h-31z" />
    <glyph glyph-name="oacute" unicode="&#xf3;" horiz-adv-x="534" 
d="M490 231c0 -36 -5.83301 -68.833 -17.5 -98.5s-27.834 -55 -48.501 -76s-44.5 -37.333 -71.5 -49s-56.167 -17.5 -87.5 -17.5c-30.667 0 -59.5 5.5 -86.5 16.5s-50.5 26.833 -70.5 47.5s-35.667 45.667 -47 75s-17 62 -17 98s5.83301 68.833 17.5 98.5
s27.834 55 48.501 76s44.667 37.333 72 49s56.333 17.5 87 17.5c31.333 0 60.333 -5.5 87 -16.5s50 -26.833 70 -47.5s35.667 -45.667 47 -75s17 -62 17 -98zM449 229c0 31.333 -4.66602 59.5 -13.999 84.5s-22 46.167 -38 63.5s-35.167 30.666 -57.5 39.999
s-46.5 14 -72.5 14s-50.167 -5 -72.5 -15s-41.5 -24 -57.5 -42s-28.667 -39.333 -38 -64s-14 -51.667 -14 -81c0 -31.333 4.5 -59.5 13.5 -84.5s21.667 -46.167 38 -63.5s35.666 -30.666 57.999 -39.999s46.5 -14 72.5 -14s50.167 5 72.5 15s41.5 24 57.5 42
s28.667 39.333 38 64s14 51.667 14 81zM268.001 515h-31l131 177h58z" />
    <glyph glyph-name="ocircumflex" unicode="&#xf4;" horiz-adv-x="534" 
d="M490 231c0 -36 -5.83301 -68.833 -17.5 -98.5s-27.834 -55 -48.501 -76s-44.5 -37.333 -71.5 -49s-56.167 -17.5 -87.5 -17.5c-30.667 0 -59.5 5.5 -86.5 16.5s-50.5 26.833 -70.5 47.5s-35.667 45.667 -47 75s-17 62 -17 98s5.83301 68.833 17.5 98.5
s27.834 55 48.501 76s44.667 37.333 72 49s56.333 17.5 87 17.5c31.333 0 60.333 -5.5 87 -16.5s50 -26.833 70 -47.5s35.667 -45.667 47 -75s17 -62 17 -98zM449 229c0 31.333 -4.66602 59.5 -13.999 84.5s-22 46.167 -38 63.5s-35.167 30.666 -57.5 39.999
s-46.5 14 -72.5 14s-50.167 -5 -72.5 -15s-41.5 -24 -57.5 -42s-28.667 -39.333 -38 -64s-14 -51.667 -14 -81c0 -31.333 4.5 -59.5 13.5 -84.5s21.667 -46.167 38 -63.5s35.666 -30.666 57.999 -39.999s46.5 -14 72.5 -14s50.167 5 72.5 15s41.5 24 57.5 42
s28.667 39.333 38 64s14 51.667 14 81zM371.001 515l-103 144h-2l-103 -144h-33l112 177h50l112 -177h-33z" />
    <glyph glyph-name="otilde" unicode="&#xf5;" horiz-adv-x="534" 
d="M490 231c0 -36 -5.83301 -68.833 -17.5 -98.5s-27.834 -55 -48.501 -76s-44.5 -37.333 -71.5 -49s-56.167 -17.5 -87.5 -17.5c-30.667 0 -59.5 5.5 -86.5 16.5s-50.5 26.833 -70.5 47.5s-35.667 45.667 -47 75s-17 62 -17 98s5.83301 68.833 17.5 98.5
s27.834 55 48.501 76s44.667 37.333 72 49s56.333 17.5 87 17.5c31.333 0 60.333 -5.5 87 -16.5s50 -26.833 70 -47.5s35.667 -45.667 47 -75s17 -62 17 -98zM449 229c0 31.333 -4.66602 59.5 -13.999 84.5s-22 46.167 -38 63.5s-35.167 30.666 -57.5 39.999
s-46.5 14 -72.5 14s-50.167 -5 -72.5 -15s-41.5 -24 -57.5 -42s-28.667 -39.333 -38 -64s-14 -51.667 -14 -81c0 -31.333 4.5 -59.5 13.5 -84.5s21.667 -46.167 38 -63.5s35.666 -30.666 57.999 -39.999s46.5 -14 72.5 -14s50.167 5 72.5 15s41.5 24 57.5 42
s28.667 39.333 38 64s14 51.667 14 81zM420.001 624c-12.667 -69.333 -39.668 -104 -81.001 -104c-13.333 0 -26.666 3.83301 -39.999 11.5s-26.5 16.167 -39.5 25.5l-36.5 25.5c-11.333 7.66699 -21.666 11.5 -30.999 11.5c-11.333 0 -20.5 -4.33301 -27.5 -13
s-15.5 -27.334 -25.5 -56.001h-25c12.667 69.333 39.667 104 81 104c13.333 0 26.833 -3.83301 40.5 -11.5s27 -16.167 40 -25.5l36.5 -25.5c11.333 -7.66699 21.333 -11.5 30 -11.5c10.667 0 19.667 4.33301 27 13s15.666 27.334 24.999 56.001h26v0z" />
    <glyph glyph-name="odieresis" unicode="&#xf6;" horiz-adv-x="534" 
d="M490 231c0 -36 -5.83301 -68.833 -17.5 -98.5s-27.834 -55 -48.501 -76s-44.5 -37.333 -71.5 -49s-56.167 -17.5 -87.5 -17.5c-30.667 0 -59.5 5.5 -86.5 16.5s-50.5 26.833 -70.5 47.5s-35.667 45.667 -47 75s-17 62 -17 98s5.83301 68.833 17.5 98.5
s27.834 55 48.501 76s44.667 37.333 72 49s56.333 17.5 87 17.5c31.333 0 60.333 -5.5 87 -16.5s50 -26.833 70 -47.5s35.667 -45.667 47 -75s17 -62 17 -98zM449 229c0 31.333 -4.66602 59.5 -13.999 84.5s-22 46.167 -38 63.5s-35.167 30.666 -57.5 39.999
s-46.5 14 -72.5 14s-50.167 -5 -72.5 -15s-41.5 -24 -57.5 -42s-28.667 -39.333 -38 -64s-14 -51.667 -14 -81c0 -31.333 4.5 -59.5 13.5 -84.5s21.667 -46.167 38 -63.5s35.666 -30.666 57.999 -39.999s46.5 -14 72.5 -14s50.167 5 72.5 15s41.5 24 57.5 42
s28.667 39.333 38 64s14 51.667 14 81zM392.001 599c0 -9.33301 -3.16699 -17.833 -9.5 -25.5s-14.5 -11.5 -24.5 -11.5c-10.667 0 -19.334 3.83301 -26.001 11.5s-10 16.167 -10 25.5s3.33301 17.5 10 24.5s15.334 10.5 26.001 10.5c10 0 18.167 -3.5 24.5 -10.5
s9.5 -15.167 9.5 -24.5zM211.001 599c0 -9.33301 -3.16699 -17.833 -9.5 -25.5s-14.833 -11.5 -25.5 -11.5s-19 3.83301 -25 11.5s-9 16.167 -9 25.5s3 17.5 9 24.5s14.333 10.5 25 10.5s19.167 -3.5 25.5 -10.5s9.5 -15.167 9.5 -24.5z" />
    <glyph glyph-name="divide" unicode="&#xf7;" horiz-adv-x="488" 
d="M42 217l3 36h399l3 -36h-405zM281 107c0 -10 -3.33301 -18.833 -10 -26.5s-15.334 -11.5 -26.001 -11.5s-19.167 3.83301 -25.5 11.5s-9.5 16.5 -9.5 26.5c0 9.33301 3.16699 17.666 9.5 24.999s14.833 11 25.5 11s19.334 -3.66699 26.001 -11s10 -15.666 10 -24.999z
M281 361c0 -10 -3.33301 -18.833 -10 -26.5s-15.334 -11.5 -26.001 -11.5s-19.167 3.83301 -25.5 11.5s-9.5 16.5 -9.5 26.5c0 9.33301 3.16699 17.666 9.5 24.999s14.833 11 25.5 11s19.334 -3.66699 26.001 -11s10 -15.666 10 -24.999z" />
    <glyph glyph-name="oslash" unicode="&#xf8;" horiz-adv-x="534" 
d="M490 231c0 -36 -5.83203 -68.833 -17.499 -98.5s-27.834 -55 -48.501 -76s-44.5 -37.333 -71.5 -49s-56.167 -17.5 -87.5 -17.5c-37.333 0 -71.666 8 -102.999 24l-47 -81h-39l57 99c-27.333 20 -49 46.5 -65 79.5s-24 71.5 -24 115.5c0 36 5.83301 68.833 17.5 98.5
s27.834 55 48.501 76s44.667 37.333 72 49s56.333 17.5 87 17.5c38 0 72.333 -8 103 -24c5.33301 8.66699 10.666 17.834 15.999 27.501s10.666 18.5 15.999 26.5c6 9.33301 11.333 18.666 16 27.999h39l-58 -100c27.333 -20 49 -46.5 65 -79.5s24 -71.5 24 -115.5z
M353.001 410c-24.667 14 -53.333 21 -86 21c-26 0 -50.167 -5 -72.5 -15s-41.5 -24 -57.5 -42s-28.667 -39.333 -38 -64s-14 -51.667 -14 -81c0 -36 6 -67.833 18 -95.5s28.667 -50.167 50 -67.5l100 172l37 63l32 55.5l22.5 39zM449.002 229
c0 36 -6.00098 67.833 -18.001 95.5s-28.667 50.167 -50 67.5l-200 -345c26.667 -13.333 55.334 -20 86.001 -20c26 0 50.167 5 72.5 15s41.5 24 57.5 42s28.667 39.333 38 64s14 51.667 14 81z" />
    <glyph glyph-name="ugrave" unicode="&#xf9;" horiz-adv-x="491" 
d="M111 458v-304c0 -40.667 8.66699 -71.834 26 -93.501s44.666 -32.5 81.999 -32.5c26 0 52.5 6.83301 79.5 20.5s53.167 33.167 78.5 58.5v351h41v-455l-41 -13v81c-26.667 -27.333 -55 -47.666 -85 -60.999s-56 -20 -78 -20c-45.333 0 -80.666 13.167 -105.999 39.5
s-38 64.833 -38 115.5v313h41zM243 515l-158 177h58l131 -177h-31z" />
    <glyph glyph-name="uacute" unicode="&#xfa;" horiz-adv-x="491" 
d="M111 458v-304c0 -40.667 8.66699 -71.834 26 -93.501s44.666 -32.5 81.999 -32.5c26 0 52.5 6.83301 79.5 20.5s53.167 33.167 78.5 58.5v351h41v-455l-41 -13v81c-26.667 -27.333 -55 -47.666 -85 -60.999s-56 -20 -78 -20c-45.333 0 -80.666 13.167 -105.999 39.5
s-38 64.833 -38 115.5v313h41zM238 515h-31l131 177h58z" />
    <glyph glyph-name="ucircumflex" unicode="&#xfb;" horiz-adv-x="491" 
d="M111 458v-304c0 -40.667 8.66699 -71.834 26 -93.501s44.666 -32.5 81.999 -32.5c26 0 52.5 6.83301 79.5 20.5s53.167 33.167 78.5 58.5v351h41v-455l-41 -13v81c-26.667 -27.333 -55 -47.666 -85 -60.999s-56 -20 -78 -20c-45.333 0 -80.666 13.167 -105.999 39.5
s-38 64.833 -38 115.5v313h41zM349 515l-103 144h-2l-103 -144h-33l112 177h50l112 -177h-33z" />
    <glyph glyph-name="udieresis" unicode="&#xfc;" horiz-adv-x="491" 
d="M111 458v-304c0 -40.667 8.66699 -71.834 26 -93.501s44.666 -32.5 81.999 -32.5c26 0 52.5 6.83301 79.5 20.5s53.167 33.167 78.5 58.5v351h41v-455l-41 -13v81c-26.667 -27.333 -55 -47.666 -85 -60.999s-56 -20 -78 -20c-45.333 0 -80.666 13.167 -105.999 39.5
s-38 64.833 -38 115.5v313h41zM366 599c0 -9.33301 -3.16699 -17.833 -9.5 -25.5s-14.5 -11.5 -24.5 -11.5c-10.667 0 -19.334 3.83301 -26.001 11.5s-10 16.167 -10 25.5s3.33301 17.5 10 24.5s15.334 10.5 26.001 10.5c10 0 18.167 -3.5 24.5 -10.5s9.5 -15.167 9.5 -24.5
zM185 599c0 -9.33301 -3.16699 -17.833 -9.5 -25.5s-14.833 -11.5 -25.5 -11.5s-19 3.83301 -25 11.5s-9 16.167 -9 25.5s3 17.5 9 24.5s14.333 10.5 25 10.5s19.167 -3.5 25.5 -10.5s9.5 -15.167 9.5 -24.5z" />
    <glyph glyph-name="yacute" unicode="&#xfd;" horiz-adv-x="406" 
d="M228 15l-42.998 -116.999c-10 -26.667 -20.167 -48.834 -30.5 -66.501s-21 -31.667 -32 -42s-22.667 -17.5 -35 -21.5s-25.166 -6 -38.499 -6c-17.333 0 -32 1.66699 -44 5s-23.667 7.66602 -35 12.999l12 37c10.667 -5.33301 21.167 -9.66602 31.5 -12.999
s22.166 -5 35.499 -5c8.66699 0 17.167 1.5 25.5 4.5s16.666 8.66699 24.999 17s16.666 19.833 24.999 34.5s16.833 33.667 25.5 57l34 92l-179 454h44l156 -401l153 401h43zM188.002 515.001h-31l131 177h58z" />
    <glyph glyph-name="thorn" unicode="&#xfe;" horiz-adv-x="503" 
d="M115 -233l-40.9971 -0.000976562v908l41 12v-279c14 13.333 33 25.833 57 37.5s51 17.5 81 17.5c29.333 0 56.666 -5.5 81.999 -16.5s47.166 -26.667 65.499 -47s32.666 -44.666 42.999 -72.999s15.5 -60.166 15.5 -95.499c0 -36.667 -5.5 -69.834 -16.5 -99.501
s-26.333 -55 -46 -76s-42.834 -37.167 -69.501 -48.5s-56 -17 -88 -17c-22.667 0 -45.167 3.5 -67.5 10.5s-41.166 15.167 -56.499 24.5v-258zM115.003 64.999c14.667 -11.333 33.6689 -20.5 57.002 -27.5s46.666 -10.5 69.999 -10.5c26 0 49.667 4.83301 71 14.5
s39.666 23.5 54.999 41.5s27.333 39.5 36 64.5s13 52.833 13 83.5c0 28 -4 53.833 -12 77.5s-19.167 44.167 -33.5 61.5s-31.833 31 -52.5 41s-43.667 15 -69 15s-49.833 -5.5 -73.5 -16.5s-44.167 -24.833 -61.5 -41.5v-303z" />
    <glyph glyph-name="ydieresis" unicode="&#xff;" horiz-adv-x="406" 
d="M228 15l-42.998 -116.999c-10 -26.667 -20.167 -48.834 -30.5 -66.501s-21 -31.667 -32 -42s-22.667 -17.5 -35 -21.5s-25.166 -6 -38.499 -6c-17.333 0 -32 1.66699 -44 5s-23.667 7.66602 -35 12.999l12 37c10.667 -5.33301 21.167 -9.66602 31.5 -12.999
s22.166 -5 35.499 -5c8.66699 0 17.167 1.5 25.5 4.5s16.666 8.66699 24.999 17s16.666 19.833 24.999 34.5s16.833 33.667 25.5 57l34 92l-179 454h44l156 -401l153 401h43zM327.002 599.001c0 -9.33301 -3.16699 -17.833 -9.5 -25.5s-14.5 -11.5 -24.5 -11.5
c-10.667 0 -19.334 3.83301 -26.001 11.5s-10 16.167 -10 25.5s3.33301 17.5 10 24.5s15.334 10.5 26.001 10.5c10 0 18.167 -3.5 24.5 -10.5s9.5 -15.167 9.5 -24.5zM146.002 599.001c0 -9.33301 -3.16699 -17.833 -9.5 -25.5s-14.833 -11.5 -25.5 -11.5
s-19 3.83301 -25 11.5s-9 16.167 -9 25.5s3 17.5 9 24.5s14.333 10.5 25 10.5s19.167 -3.5 25.5 -10.5s9.5 -15.167 9.5 -24.5z" />
    <glyph glyph-name="dotlessi" unicode="&#x131;" horiz-adv-x="193" 
d="M76 0v455l41 13v-468h-41z" />
    <glyph glyph-name="Lslash" unicode="&#x141;" horiz-adv-x="481" 
d="M144 39h306v-39h-348v259l-86 -24v37l86 24v329h42v-318l150 41v-37l-150 -41v-231z" />
    <glyph glyph-name="lslash" unicode="&#x142;" horiz-adv-x="228" 
d="M135 0h-41v259l-86 -24v37l86 23v379l41 13v-381l86 24v-37l-86 -23v-270z" />
    <glyph glyph-name="OE" unicode="&#x152;" horiz-adv-x="897" 
d="M847 587h-315.998v-255h264v-38h-264v-256h316v-38h-467c-50.667 0 -96.334 7.5 -137.001 22.5s-75.334 36 -104.001 63s-50.834 59.5 -66.501 97.5s-23.5 79.667 -23.5 125c0 50.667 7.66699 95.667 23 135s37.5 72.5 66.5 99.5s64.333 47.5 106 61.5
s88.834 21 141.501 21h461v-38zM92.002 312c0 -41.333 6.66797 -78.8311 20.001 -112.498s32.5 -62.5 57.5 -86.5s55.5 -42.5 91.5 -55.5s77 -19.5 123 -19.5h105v549h-105c-42.667 0 -81.834 -5.33301 -117.501 -16s-66.5 -27.334 -92.5 -50.001
s-46.167 -51.334 -60.5 -86.001s-21.5 -75.667 -21.5 -123z" />
    <glyph glyph-name="oe" unicode="&#x153;" horiz-adv-x="864" 
d="M767 273c2 11.333 3 22.667 3 34c0 36 -10.5 65.5 -31.5 88.5s-49.833 34.5 -86.5 34.5c-42.667 0 -78 -14.5 -106 -43.5s-45.667 -66.833 -53 -113.5h274zM85 229.001c0 -31.333 4.50098 -59.5 13.501 -84.5s21.667 -46.167 38 -63.5s35.666 -30.666 57.999 -39.999
s46.5 -14 72.5 -14s50.167 5 72.5 15s41.5 24 57.5 42s28.667 39.333 38 64s14 51.667 14 81c0 31.333 -4.66699 59.5 -14 84.5s-22 46.167 -38 63.5s-35.167 30.666 -57.5 39.999s-46.5 14 -72.5 14s-50.167 -5 -72.5 -15s-41.5 -24 -57.5 -42s-28.667 -39.333 -38 -64
s-14 -51.667 -14 -81zM467.001 124.001c-17.333 -42 -44.002 -74.834 -80.002 -98.501s-76.667 -35.5 -122 -35.5c-30.667 0 -59.5 5.5 -86.5 16.5s-50.5 26.833 -70.5 47.5s-35.667 45.667 -47 75s-17 62 -17 98s5.83301 68.833 17.5 98.5s27.834 55 48.501 76
s44.667 37.333 72 49s56.333 17.5 87 17.5c46 0 86.5 -11.667 121.5 -35s61.167 -56 78.5 -98c15.333 40.667 39 73 71 97s69.667 36 113 36c22.667 0 43.667 -3.66699 63 -11s36.166 -17.833 50.499 -31.5s25.5 -30.167 33.5 -49.5s12 -41.333 12 -66
c0 -11.333 -1 -23.666 -3 -36.999s-4.33301 -25 -7 -35l-312 -2v-7c0 -28.667 3.83301 -55.334 11.5 -80.001s18.834 -46 33.501 -64s32.5 -32 53.5 -42s44.5 -15 70.5 -15s49.667 3.66699 71 11s40.333 16.333 57 27l9 -37c-18.667 -11.333 -39.667 -20.666 -63 -27.999
s-49 -11 -77 -11c-46 0 -85.167 12 -117.5 36s-56.166 56.667 -71.499 98z" />
    <glyph glyph-name="Scaron" unicode="&#x160;" horiz-adv-x="471" 
d="M230 27c24 0 46.001 3.49902 66.001 10.499s37 16.5 51 28.5s24.833 25.833 32.5 41.5s11.5 32.167 11.5 49.5c0 21.333 -4.33301 39.5 -13 54.5s-20.5 28.167 -35.5 39.5s-32.667 21.166 -53 29.499s-42.166 16.5 -65.499 24.5c-21.333 7.33301 -42.5 15.5 -63.5 24.5
s-39.667 19.833 -56 32.5s-29.666 28 -39.999 46s-15.5 39.667 -15.5 65c0 23.333 4.83301 44.833 14.5 64.5s23 36.667 40 51s37 25.666 60 33.999s48.167 12.5 75.5 12.5c36 0 69 -4.83301 99 -14.5s56.667 -22.167 80 -37.5l-16 -37
c-23.333 16 -49.166 28.667 -77.499 38s-56.833 14 -85.5 14c-24.667 0 -46.334 -3.33301 -65.001 -10s-34.334 -15.667 -47.001 -27s-22.167 -24.333 -28.5 -39s-9.5 -30 -9.5 -46c0 -18.667 4.16699 -35 12.5 -49s19.666 -26.167 33.999 -36.5s31.5 -19.666 51.5 -27.999
s41.667 -16.5 65 -24.5c22 -7.33301 43.667 -15.666 65 -24.999s40.333 -20.666 57 -33.999s30.167 -29.5 40.5 -48.5s15.5 -42.167 15.5 -69.5c0 -24 -5 -46.5 -15 -67.5s-23.833 -39.167 -41.5 -54.5s-38.834 -27.333 -63.501 -36s-52 -13 -82 -13
c-38 0 -72.833 5 -104.5 15s-60.5 23.667 -86.5 41l16 36c23.333 -16 50 -29.167 80 -39.5s62.333 -15.5 97 -15.5zM260.001 671.999h-50l-112 177h33l103 -144h2l103 144h33z" />
    <glyph glyph-name="scaron" unicode="&#x161;" horiz-adv-x="372" 
d="M329 119c0 -20 -4.16895 -38.0068 -12.502 -54.0068s-19.5 -29.5 -33.5 -40.5s-30.333 -19.5 -49 -25.5s-38.667 -9 -60 -9c-26 0 -51.167 3.66699 -75.5 11s-45.5 16.666 -63.5 27.999l13 38c19.333 -12.667 39.666 -22.667 60.999 -30s43.666 -11 66.999 -11
c14.667 0 28.834 2 42.501 6s26 9.66699 37 17s19.833 16.5 26.5 27.5s10 23.833 10 38.5c0 16.667 -3.5 30.334 -10.5 41.001s-16.167 19.834 -27.5 27.501s-24.333 14 -39 19l-45 15.5c-15.333 5.33301 -30.666 11.333 -45.999 18s-29.166 14.834 -41.499 24.501
s-22.333 21.334 -30 35.001s-11.5 29.834 -11.5 48.501c0 20.667 3.83301 38.667 11.5 54s18 28.166 31 38.499s28.167 18.166 45.5 23.499s36 8 56 8c24 0 47.167 -3.16699 69.5 -9.5s42.5 -14.166 60.5 -23.499l-14 -37c-19.333 10.667 -38.833 19.167 -58.5 25.5
s-40.167 9.5 -61.5 9.5c-31.333 0 -56.333 -7.66699 -75 -23s-28 -35.666 -28 -60.999c0 -14.667 3.5 -27.167 10.5 -37.5s16 -19.166 27 -26.499s23.833 -13.5 38.5 -18.5l44 -15.5c16 -5.33301 31.667 -11.166 47 -17.499s29.333 -14.5 42 -24.5
s22.834 -22.167 30.501 -36.5s11.5 -32.166 11.5 -53.499zM207.998 504.993h-50l-112 177h33l103 -144h2l103 144h33z" />
    <glyph glyph-name="Ydieresis" unicode="&#x178;" horiz-adv-x="507" 
d="M275 254v-254h-42v253l-219 372h47l194 -331l192 331h46zM378 766c0 -9.33301 -3.16699 -17.833 -9.5 -25.5s-14.5 -11.5 -24.5 -11.5c-10.667 0 -19.334 3.83301 -26.001 11.5s-10 16.167 -10 25.5s3.33301 17.5 10 24.5s15.334 10.5 26.001 10.5
c10 0 18.167 -3.5 24.5 -10.5s9.5 -15.167 9.5 -24.5zM197 766c0 -9.33301 -3.16699 -17.833 -9.5 -25.5s-14.833 -11.5 -25.5 -11.5s-19 3.83301 -25 11.5s-9 16.167 -9 25.5s3 17.5 9 24.5s14.333 10.5 25 10.5s19.167 -3.5 25.5 -10.5s9.5 -15.167 9.5 -24.5z" />
    <glyph glyph-name="Zcaron" unicode="&#x17d;" horiz-adv-x="498" 
d="M26 0v30l388 558h-373v37h425v-30l-388 -558h387v-37h-439zM282 672h-50l-112 177h33l103 -144h2l103 144h33z" />
    <glyph glyph-name="zcaron" unicode="&#x17e;" horiz-adv-x="374" 
d="M21 0v28l280 395h-271v35h320v-28l-280 -395h280v-35h-329zM213 505h-50l-112 177h33l103 -144h2l103 144h33z" />
    <glyph glyph-name="florin" unicode="&#x192;" horiz-adv-x="362" 
d="M134 357l-95.0039 4.00098l3 25l99 8l18 93c6 26.667 13.5 49.167 22.5 67.5s19.5 33.166 31.5 44.499s25.167 19.5 39.5 24.5s29.5 7.5 45.5 7.5c16.667 0 32.834 -2.5 48.501 -7.5s29.5 -12.167 41.5 -21.5l-17 -35c-10.667 7.33301 -22.167 13.5 -34.5 18.5
s-26.166 7.5 -41.499 7.5c-25.333 0 -45.666 -9.66699 -60.999 -29s-26.666 -45.666 -33.999 -78.999l-20 -92h119l-4 -36h-122l-47 -241c-4 -20 -9 -37.333 -15 -52s-13.5 -27.334 -22.5 -38.001s-19.667 -19.5 -32 -26.5s-27.166 -12.5 -44.499 -16.5l-9 37
c28.667 7.33301 48.667 19 60 35s19.666 38 24.999 66z" />
    <glyph glyph-name="circumflex" unicode="&#x2c6;" 
d="M304 515l-103 144h-2l-103 -144h-33l112 177h50l112 -177h-33z" />
    <glyph glyph-name="caron" unicode="&#x2c7;" 
d="M225 505h-50l-112 177h33l103 -144h2l103 144h33z" />
    <glyph glyph-name="breve" unicode="&#x2d8;" 
d="M337 691c-4.66699 -19.333 -10.332 -39.333 -16.999 -60s-15.334 -39.667 -26.001 -57s-23.667 -31.666 -39 -42.999s-33.666 -17 -54.999 -17s-39.666 5.66699 -54.999 17s-28.333 25.666 -39 42.999s-19.334 36.333 -26.001 57s-12.334 40.667 -17.001 60h29
c14.667 -52 30.5 -89 47.5 -111s37.167 -33 60.5 -33s43.5 11 60.5 33s32.833 59 47.5 111h29v0z" />
    <glyph glyph-name="dotaccent" unicode="&#x2d9;" 
d="M234 599c0 -9.33301 -3.16699 -17.833 -9.5 -25.5s-14.833 -11.5 -25.5 -11.5s-19 3.83301 -25 11.5s-9 16.167 -9 25.5s3 17.5 9 24.5s14.333 10.5 25 10.5s19.167 -3.5 25.5 -10.5s9.5 -15.167 9.5 -24.5z" />
    <glyph glyph-name="ring" unicode="&#x2da;" 
d="M313 604c0 -26.667 -10 -49.5 -30 -68.5s-47.333 -28.5 -82 -28.5s-62 9.5 -82 28.5s-30 41.833 -30 68.5s10 49.667 30 69s47.333 29 82 29s62 -9.66699 82 -29s30 -42.333 30 -69zM278 602c0 18.667 -7 35.167 -21 49.5s-32.667 21.5 -56 21.5s-42 -6.66699 -56 -20
s-21 -29.333 -21 -48s7 -34.834 21 -48.501s32.667 -20.5 56 -20.5s42 6.33301 56 19s21 28.334 21 47.001z" />
    <glyph glyph-name="ogonek" unicode="&#x2db;" 
d="M303 -205c-12 -10 -25.834 -18.0029 -41.501 -24.0029s-32.167 -9 -49.5 -9c-13.333 0 -26.333 2.33301 -39 7s-24 11.334 -34 20.001s-18 19 -24 31s-9 25 -9 39c0 18 4 35 12 51s18.5 30.667 31.5 44s27.833 25.333 44.5 36s33.667 19.334 51 26.001h39
c-44 -21.333 -78.5 -44 -103.5 -68s-37.5 -52.667 -37.5 -86c0 -21.333 7.5 -38.166 22.5 -50.499s33.167 -18.5 54.5 -18.5c15.333 0 28.833 2.33301 40.5 7s23.834 10 36.501 16l6 -21v0z" />
    <glyph glyph-name="tilde" unicode="&#x2dc;" 
d="M353 624c-12.667 -69.333 -39.668 -104 -81.001 -104c-13.333 0 -26.666 3.83301 -39.999 11.5s-26.5 16.167 -39.5 25.5l-36.5 25.5c-11.333 7.66699 -21.666 11.5 -30.999 11.5c-11.333 0 -20.5 -4.33301 -27.5 -13s-15.5 -27.334 -25.5 -56.001h-25
c12.667 69.333 39.667 104 81 104c13.333 0 26.833 -3.83301 40.5 -11.5s27 -16.167 40 -25.5l36.5 -25.5c11.333 -7.66699 21.333 -11.5 30 -11.5c10.667 0 19.667 4.33301 27 13s15.666 27.334 24.999 56.001h26v0z" />
    <glyph glyph-name="hungarumlaut" unicode="&#x2dd;" 
d="M242 505h-32l118 177h49zM94 505h-32l118 177h49z" />
    <glyph glyph-name="endash" unicode="&#x2013;" horiz-adv-x="428" 
d="M32 224l3 38h359l3 -38h-365z" />
    <glyph glyph-name="emdash" unicode="&#x2014;" horiz-adv-x="898" 
d="M32 224l3 38h829l3 -38h-835z" />
    <glyph glyph-name="quoteleft" unicode="&#x2018;" horiz-adv-x="153" 
d="M121 471c0 -9.33301 -3.83398 -18.3301 -11.501 -26.9971s-17.5 -13 -29.5 -13c-15.333 0 -28.666 6 -39.999 18s-17 28.333 -17 49c0 25.333 9 51.666 27 78.999s42.333 50.666 73 69.999l19 -17c-28 -20.667 -47.333 -40 -58 -58s-16 -36 -16 -54
c0 -13.333 4.5 -23.333 13.5 -30s22.167 -12.334 39.5 -17.001z" />
    <glyph glyph-name="quoteright" unicode="&#x2019;" horiz-adv-x="153" 
d="M32 609c0 9.33301 3.83398 18.3301 11.501 26.9971s17.5 13 29.5 13c15.333 0 28.666 -6 39.999 -18s17 -28.333 17 -49c0 -25.333 -9 -51.666 -27 -78.999s-42.333 -50.666 -73 -69.999l-19 17c28 20.667 47.333 40 58 58s16 36 16 54c0 13.333 -4.5 23.333 -13.5 30
s-22.167 12.334 -39.5 17.001z" />
    <glyph glyph-name="quotesinglbase" unicode="&#x201a;" horiz-adv-x="153" 
d="M32 28c0 9.33301 3.83398 18.3301 11.501 26.9971s17.5 13 29.5 13c15.333 0 28.666 -6 39.999 -18s17 -28.333 17 -49c0 -25.333 -9 -51.666 -27 -78.999s-42.333 -50.666 -73 -69.999l-19 17c28 20.667 47.333 40 58 58s16 36 16 54c0 13.333 -4.5 23.333 -13.5 30
s-22.167 12.334 -39.5 17.001z" />
    <glyph glyph-name="quotedblleft" unicode="&#x201c;" horiz-adv-x="333" 
d="M301 471c0 -9.33301 -3.83398 -18.3301 -11.501 -26.9971s-17.5 -13 -29.5 -13c-15.333 0 -28.666 6 -39.999 18s-17 28.333 -17 49c0 25.333 9 51.666 27 78.999s42.333 50.666 73 69.999l19 -17c-28 -20.667 -47.333 -40 -58 -58s-16 -36 -16 -54
c0 -13.333 4.5 -23.333 13.5 -30s22.167 -12.334 39.5 -17.001zM120.999 471.003c0 -9.33301 -3.83398 -18.3301 -11.501 -26.9971s-17.5 -13 -29.5 -13c-15.333 0 -28.666 6 -39.999 18s-17 28.333 -17 49c0 25.333 9 51.666 27 78.999s42.333 50.666 73 69.999l19 -17
c-28 -20.667 -47.333 -40 -58 -58s-16 -36 -16 -54c0 -13.333 4.5 -23.333 13.5 -30s22.167 -12.334 39.5 -17.001z" />
    <glyph glyph-name="quotedblright" unicode="&#x201d;" horiz-adv-x="333" 
d="M212 609c0 9.33301 3.83398 18.3301 11.501 26.9971s17.5 13 29.5 13c15.333 0 28.666 -6 39.999 -18s17 -28.333 17 -49c0 -25.333 -9 -51.666 -27 -78.999s-42.333 -50.666 -73 -69.999l-19 17c28 20.667 47.333 40 58 58s16 36 16 54c0 13.333 -4.5 23.333 -13.5 30
s-22.167 12.334 -39.5 17.001zM32.001 608.997c0 9.33301 3.83398 18.3301 11.501 26.9971s17.5 13 29.5 13c15.333 0 28.666 -6 39.999 -18s17 -28.333 17 -49c0 -25.333 -9 -51.666 -27 -78.999s-42.333 -50.666 -73 -69.999l-19 17c28 20.667 47.333 40 58 58
s16 36 16 54c0 13.333 -4.5 23.333 -13.5 30s-22.167 12.334 -39.5 17.001z" />
    <glyph glyph-name="quotedblbase" unicode="&#x201e;" horiz-adv-x="333" 
d="M212 28c0 9.33301 3.83398 18.3301 11.501 26.9971s17.5 13 29.5 13c15.333 0 28.666 -6 39.999 -18s17 -28.333 17 -49c0 -25.333 -9 -51.666 -27 -78.999s-42.333 -50.666 -73 -69.999l-19 17c28 20.667 47.333 40 58 58s16 36 16 54c0 13.333 -4.5 23.333 -13.5 30
s-22.167 12.334 -39.5 17.001zM32.001 27.9971c0 9.33301 3.83398 18.3301 11.501 26.9971s17.5 13 29.5 13c15.333 0 28.666 -6 39.999 -18s17 -28.333 17 -49c0 -25.333 -9 -51.666 -27 -78.999s-42.333 -50.666 -73 -69.999l-19 17c28 20.667 47.333 40 58 58
s16 36 16 54c0 13.333 -4.5 23.333 -13.5 30s-22.167 12.334 -39.5 17.001z" />
    <glyph glyph-name="dagger" unicode="&#x2020;" horiz-adv-x="469" 
d="M38 397l-3 36h179v192h40v-192h180l-3 -36h-177v-523h-40v523h-176z" />
    <glyph glyph-name="daggerdbl" unicode="&#x2021;" horiz-adv-x="469" 
d="M38 412l-3 36h179v177h40v-177h180l-3 -36h-177v-326h177l3 -36h-180v-176h-40v176h-179l3 36h176v326h-176z" />
    <glyph glyph-name="bullet" unicode="&#x2022;" horiz-adv-x="455" 
d="M420 232c0 -7.33301 -2.00098 -17.5 -6.00098 -30.5s-8.83301 -26.5 -14.5 -40.5s-11.667 -27.167 -18 -39.5s-12.166 -21.166 -17.499 -26.499c-4.66699 -4.66699 -13.167 -10.334 -25.5 -17.001s-25.5 -12.834 -39.5 -18.501s-27.667 -10.5 -41 -14.5
s-23.666 -6 -30.999 -6c-6.66699 0 -16.667 2 -30 6s-27 8.83301 -41 14.5s-27 11.834 -39 18.501s-20.333 12.334 -25 17.001c-4.66699 5.33301 -10.334 14.166 -17.001 26.499s-13 25.5 -19 39.5s-11 27.5 -15 40.5s-6 23.167 -6 30.5s2 17.5 6 30.5s9 26.5 15 40.5
s12.333 27.167 19 39.5s12.334 20.833 17.001 25.5c5.33301 5.33301 14 11.166 26 17.499s25 12.333 39 18s27.667 10.5 41 14.5s23.333 6 30 6c7.33301 0 17.5 -2 30.5 -6s26.5 -8.83301 40.5 -14.5s27.167 -11.667 39.5 -18s20.833 -12.166 25.5 -17.499
c5.33301 -4.66699 11.166 -13.167 17.499 -25.5s12.333 -25.5 18 -39.5s10.5 -27.5 14.5 -40.5s6 -23.167 6 -30.5z" />
    <glyph glyph-name="ellipsis" unicode="&#x2026;" horiz-adv-x="459" 
d="M418 28c0 -10 -3.33301 -18.833 -10 -26.5s-15.334 -11.5 -26.001 -11.5s-19.167 3.83301 -25.5 11.5s-9.5 16.5 -9.5 26.5c0 9.33301 3.16699 17.666 9.5 24.999s14.833 11 25.5 11s19.334 -3.66699 26.001 -11s10 -15.666 10 -24.999zM265 28
c0 -10 -3.33301 -18.833 -10 -26.5s-15.334 -11.5 -26.001 -11.5s-19.167 3.83301 -25.5 11.5s-9.5 16.5 -9.5 26.5c0 9.33301 3.16699 17.666 9.5 24.999s14.833 11 25.5 11s19.334 -3.66699 26.001 -11s10 -15.666 10 -24.999zM112 28c0 -10 -3.33301 -18.833 -10 -26.5
s-15.334 -11.5 -26.001 -11.5s-19.167 3.83301 -25.5 11.5s-9.5 16.5 -9.5 26.5c0 9.33301 3.16699 17.666 9.5 24.999s14.833 11 25.5 11s19.334 -3.66699 26.001 -11s10 -15.666 10 -24.999z" />
    <glyph glyph-name="perthousand" unicode="&#x2030;" horiz-adv-x="1117" 
d="M349 482c0 -22 -3.83301 -43 -11.5 -63s-18.667 -37.5 -33 -52.5s-31.666 -27 -51.999 -36s-43.5 -13.5 -69.5 -13.5c-25.333 0 -48.333 4.5 -69 13.5s-38.167 21 -52.5 36s-25.333 32.5 -33 52.5s-11.5 41 -11.5 63c0 22.667 3.83301 44.167 11.5 64.5s18.667 38 33 53
s31.833 27 52.5 36s43.667 13.5 69 13.5c26 0 49.167 -4.5 69.5 -13.5s37.666 -21 51.999 -36s25.333 -32.667 33 -53s11.5 -41.833 11.5 -64.5zM139 -15h-46l516 654h45zM729 142c0 -22.667 -3.83301 -44.167 -11.5 -64.5s-18.667 -38 -33 -53s-31.833 -27 -52.5 -36
s-43.667 -13.5 -69 -13.5c-26 0 -49.167 4.5 -69.5 13.5s-37.666 21 -51.999 36s-25.333 32.667 -33 53s-11.5 41.833 -11.5 64.5c0 22 3.83301 43 11.5 63s18.667 37.5 33 52.5s31.666 27 51.999 36s43.5 13.5 69.5 13.5c25.333 0 48.333 -4.5 69 -13.5
s38.167 -21 52.5 -36s25.333 -32.5 33 -52.5s11.5 -41 11.5 -63zM313 482c0 18.667 -3 36 -9 52s-14.5 30 -25.5 42s-24.667 21.5 -41 28.5s-34.5 10.5 -54.5 10.5s-38.167 -3.5 -54.5 -10.5s-30 -16.5 -41 -28.5s-19.5 -26 -25.5 -42s-9 -33.333 -9 -52
c0 -17.333 3 -34 9 -50s14.5 -30 25.5 -42s24.667 -21.5 41 -28.5s34.5 -10.5 54.5 -10.5s38.167 3.5 54.5 10.5s30 16.5 41 28.5s19.5 26 25.5 42s9 32.667 9 50zM693 142c0 17.333 -3 34 -9 50s-14.5 30 -25.5 42s-24.667 21.5 -41 28.5s-34.5 10.5 -54.5 10.5
s-38.167 -3.5 -54.5 -10.5s-30 -16.5 -41 -28.5s-19.5 -26 -25.5 -42s-9 -32.667 -9 -50c0 -18.667 3 -36 9 -52s14.5 -30 25.5 -42s24.667 -21.5 41 -28.5s34.5 -10.5 54.5 -10.5s38.167 3.5 54.5 10.5s30 16.5 41 28.5s19.5 26 25.5 42s9 33.333 9 52zM1100 142
c0 -22.667 -3.83301 -44.167 -11.5 -64.5s-18.667 -38 -33 -53s-31.833 -27 -52.5 -36s-43.667 -13.5 -69 -13.5c-26 0 -49.167 4.5 -69.5 13.5s-37.666 21 -51.999 36s-25.333 32.667 -33 53s-11.5 41.833 -11.5 64.5c0 22 3.83301 43 11.5 63s18.667 37.5 33 52.5
s31.666 27 51.999 36s43.5 13.5 69.5 13.5c25.333 0 48.333 -4.5 69 -13.5s38.167 -21 52.5 -36s25.333 -32.5 33 -52.5s11.5 -41 11.5 -63zM1064 142c0 17.333 -3 34 -9 50s-14.5 30 -25.5 42s-24.667 21.5 -41 28.5s-34.5 10.5 -54.5 10.5s-38.167 -3.5 -54.5 -10.5
s-30 -16.5 -41 -28.5s-19.5 -26 -25.5 -42s-9 -32.667 -9 -50c0 -18.667 3 -36 9 -52s14.5 -30 25.5 -42s24.667 -21.5 41 -28.5s34.5 -10.5 54.5 -10.5s38.167 3.5 54.5 10.5s30 16.5 41 28.5s19.5 26 25.5 42s9 33.333 9 52z" />
    <glyph glyph-name="guilsinglleft" unicode="&#x2039;" horiz-adv-x="313" 
d="M260 28l-228 188v36l228 188l8 -35l-199 -170v-1l199 -171z" />
    <glyph glyph-name="guilsinglright" unicode="&#x203a;" horiz-adv-x="313" 
d="M53 28l-8 35l199 171v1l-199 170l8 35l228 -188v-36z" />
    <glyph glyph-name="fraction" unicode="&#x2044;" horiz-adv-x="581" 
d="M56 -15h-46l516 654h45z" />
    <glyph glyph-name="Euro" unicode="&#x20ac;" horiz-adv-x="506" 
d="M39 375l-2.99902 34.998h74c11.333 72 36 128.5 74 169.5s89 61.5 153 61.5c28 0 53.333 -2.66699 76 -8s42.667 -12.666 60 -21.999l-9 -37c-18 9.33301 -37.667 16.833 -59 22.5s-44 8.5 -68 8.5c-53.333 0 -95.5 -16.333 -126.5 -49s-51.167 -81.334 -60.5 -146.001
h243l-3 -35h-244c-0.666992 -9.33301 -1.16699 -19 -1.5 -29s-0.5 -20.333 -0.5 -31c0 -11.333 0.166992 -22.166 0.5 -32.499s0.833008 -20.5 1.5 -30.5h214l3 -35h-213c9.33301 -64.667 29 -113.5 59 -146.5s71.333 -49.5 124 -49.5c27.333 0 51.666 2.5 72.999 7.5
s41 11.833 59 20.5l6 -36c-18 -8.66699 -38.333 -15.5 -61 -20.5s-49 -7.5 -79 -7.5c-64.667 0 -115.167 20.333 -151.5 61s-59.833 97.667 -70.5 171h-73l3 35h66c-0.666992 9.33301 -1.16699 18.833 -1.5 28.5s-0.5 19.834 -0.5 30.501c0 22.667 1 44 3 64h-67z" />
    <glyph glyph-name="trademark" unicode="&#x2122;" horiz-adv-x="867" 
d="M759 251l-19 331h-3l-128 -331h-43l-116 331h-3l-18 -331h-34l23 374h52l118 -340h3l129 340h50l22 -374h-33zM199 593v-342h-34v342h-142v32h317v-32h-141z" />
    <glyph glyph-name="minus" unicode="&#x2212;" horiz-adv-x="488" 
d="M42 217l3 36h399l3 -36h-405z" />
    <glyph glyph-name="apple" unicode="&#xf8ff;" horiz-adv-x="758" 
d="M583 148l69 -189l-189 69l-85 -181l-84 180l-187 -68l68 187l-181 86l181 83l-68 189l187 -69l86 181l83 -181l189 69l-69 -189l180 -82zM531 294l50 139l-139 -50l-63 133l-63 -133l-139 50l51 -139l-134 -63l134 -63l-51 -138l139 51l62 -135l64 135l139 -51l-50 140
l132 62z" />
    <glyph glyph-name="ff" unicode="&#xfb00;" horiz-adv-x="560" 
d="M122 0h-40.998v417l-66 4l3 25l62 8l1 77c0.666992 28.667 4.16699 52.834 10.5 72.501s15.166 35.667 26.499 48s24.5 21.166 39.5 26.499s31.167 8 48.5 8c14.667 0 28.667 -1.66699 42 -5s25 -7.66602 35 -12.999l-10 -37
c-10.667 5.33301 -21.167 9.66602 -31.5 12.999s-22.5 5 -36.5 5c-55.333 0 -83 -38.667 -83 -116v-80l239 1l1 87c0.666992 28.667 4.16699 52.834 10.5 72.501s15.166 35.667 26.499 48s24.5 21.166 39.5 26.499s31.167 8 48.5 8c14.667 0 28.667 -1.66699 42 -5
s25 -7.66602 35 -12.999l-10 -37c-10.667 5.33301 -21.167 9.66602 -31.5 12.999s-22.5 5 -36.5 5c-55.333 0 -83 -38.667 -83 -116v-90h142l-3 -36h-139v-417h-41v417h-240v-417z" />
    <glyph glyph-name="fi" unicode="&#xfb01;" horiz-adv-x="460" 
d="M122 417l0.000976562 -417h-41v417l-66 4l3 25l62 8l1 87c0.666992 28.667 4.16699 52.834 10.5 72.501s15.166 35.667 26.499 48s24.5 21.166 39.5 26.499s31.167 8 48.5 8c14.667 0 28.667 -1.66699 42 -5s25 -7.66602 35 -12.999l-10 -37
c-10.667 5.33301 -21.167 9.66602 -31.5 12.999s-22.5 5 -36.5 5c-55.333 0 -83 -38.667 -83 -116v-90h215l47 15v-468h-41v417h-221z" />
    <glyph glyph-name="fl" unicode="&#xfb02;" horiz-adv-x="457" 
d="M273 641c-10.667 5.33301 -21.166 9.66602 -31.499 12.999s-22.5 5 -36.5 5c-55.333 0 -83 -38.667 -83 -116v-90h142l-3 -36h-139v-417h-41v417l-66 4l3 25l62 8l1 87c0.666992 28.667 4.16699 52.834 10.5 72.501s15.166 35.667 26.499 48s24.5 21.166 39.5 26.499
s31.167 8 48.5 8c14.667 0 28.667 -1.66699 42 -5s25 -7.66602 35 -12.999zM343.001 0v674l41 13v-687h-41z" />
    <glyph glyph-name="ffi" unicode="&#xfb03;" horiz-adv-x="741" 
d="M122 0h-40.998v417l-66 4l3 25l62 8l1 77c0 28.667 3.33301 52.834 10 72.501s15.5 35.667 26.5 48s24.167 21.166 39.5 26.499s31.666 8 48.999 8c14.667 0 28.667 -1.66699 42 -5s25 -7.66602 35 -12.999l-10 -37c-10.667 5.33301 -21.167 9.66602 -31.5 12.999
s-22.5 5 -36.5 5c-55.333 0 -83 -38.667 -83 -116v-80l239 1l1 87c0.666992 28.667 4.16699 52.834 10.5 72.501s15.166 35.667 26.499 48s24.5 21.166 39.5 26.499s31.167 8 48.5 8c14.667 0 28.667 -1.66699 42 -5s25 -7.66602 35 -12.999l-10 -37
c-10.667 5.33301 -21.167 9.66602 -31.5 12.999s-22.5 5 -36.5 5c-55.333 0 -83 -38.667 -83 -116v-90h215l47 15v-468h-41v417h-221v-417h-41v417h-240v-417z" />
    <glyph glyph-name="ffl" unicode="&#xfb04;" horiz-adv-x="738" 
d="M624 0v674l41 13v-687h-41zM122 0h-40.998v417l-66 4l3 25l62 8l1 77c0.666992 28.667 4.16699 52.834 10.5 72.501s15.166 35.667 26.499 48s24.5 21.166 39.5 26.499s31.167 8 48.5 8c14.667 0 28.667 -1.66699 42 -5s25 -7.66602 35 -12.999l-10 -37
c-10.667 5.33301 -21.167 9.66602 -31.5 12.999s-22.5 5 -36.5 5c-55.333 0 -83 -38.667 -83 -116v-80l239 1l1 87c0.666992 28.667 4.16699 52.834 10.5 72.501s15.166 35.667 26.499 48s24.5 21.166 39.5 26.499s31.167 8 48.5 8c14.667 0 28.667 -1.66699 42 -5
s25 -7.66602 35 -12.999l-10 -37c-10.667 5.33301 -21.167 9.66602 -31.5 12.999s-22.5 5 -36.5 5c-55.333 0 -83 -38.667 -83 -116v-90h142l-3 -36h-139v-417h-41v417h-240v-417z" />
    <glyph glyph-name=".null" horiz-adv-x="0" 
 />
    <glyph glyph-name="nonmarkingreturn" horiz-adv-x="124" 
 />
    </font>
</defs>
</svg>
