<svg width="22" height="22" viewBox="0 0 22 22" fill="none" xmlns="http://www.w3.org/2000/svg">
<path fill-rule="evenodd" clip-rule="evenodd" d="M19.74 5.86011L21 14.2001C21.51 17.8501 19 21.1701 15.6 21.2001H6.33999C2.99999 21.2001 0.459991 17.8501 0.999991 14.2001L2.25999 5.86011C2.55912 3.10248 4.82867 0.97743 7.59999 0.860107H14.4C17.1713 0.97743 19.4409 3.10248 19.74 5.86011ZM15.63 19.6701C16.7037 19.6546 17.7165 19.1683 18.4 18.3401C19.3167 17.2544 19.7147 15.8231 19.49 14.4201L18.26 6.08011C18.0844 4.04439 16.4399 2.44683 14.4 2.33011H7.59999C5.56005 2.44683 3.91563 4.04439 3.73999 6.08011L2.50999 14.4201C2.2853 15.8231 2.68329 17.2544 3.59999 18.3401C4.2835 19.1683 5.29626 19.6546 6.36999 19.6701H15.63Z" fill="black"/>
</svg>
