<svg width="19" height="20" viewBox="0 0 19 20" fill="none" xmlns="http://www.w3.org/2000/svg">
<path fill-rule="evenodd" clip-rule="evenodd" d="M17.9382 5.66957C16.512 2.24494 13.1704 0.0102816 9.46066 0.000372992C5.46246 -0.0206814 1.90737 2.5403 0.661047 6.33934C-0.585272 10.1384 0.761902 14.3076 3.99559 16.6591C7.22927 19.0105 11.6107 19.007 14.8407 16.6504L17.7207 19.5304C18.0135 19.8228 18.4878 19.8228 18.7807 19.5304C19.0731 19.2376 19.0731 18.7632 18.7807 18.4704L15.9907 15.6804C18.5968 13.0402 19.3644 9.09421 17.9382 5.66957ZM16.6011 12.1693C15.4036 15.055 12.5849 16.9344 9.46066 16.9304V16.8904C5.22037 16.885 1.77812 13.4606 1.75066 9.22037C1.74662 6.09611 3.62605 3.27742 6.51172 2.07994C9.39739 0.88247 12.7203 1.54232 14.9295 3.75152C17.1387 5.96071 17.7986 9.28364 16.6011 12.1693Z" fill="black"/>
</svg>
